<mxfile host="65bd71144e">
    <diagram id="Lu83tjWo-Wz-DkkKe9Yt" name="第 1 页">
        <mxGraphModel dx="1148" dy="898" grid="0" gridSize="10" guides="1" tooltips="1" connect="1" arrows="1" fold="1" page="0" pageScale="1" pageWidth="850" pageHeight="1100" math="0" shadow="0">
            <root>
                <mxCell id="0"/>
                <mxCell id="1" parent="0"/>
                <mxCell id="3" value="" style="shape=image;verticalLabelPosition=bottom;labelBackgroundColor=default;verticalAlign=top;aspect=fixed;imageAspect=0;image=data:image/png,iVBORw0KGgoAAAANSUhEUgAAAJ4AAACyCAYAAACz63Y2AAAgAElEQVR4nO2deWwcR37vP9U995DDW6Qo8dAtH7JsaeWVvcB67diWj13nOWtYQIAgQPKS/TNAgiAJkDx7sYgBI3n7noNdx7tZBM4mMRIYiO3ss7WyvZYtKZJtOZIsWZK1FimJ4n0NOcM5u7vq/dHTwxleIilyhpT6A5AczkxXV1d/+1dVv/pVlVBKKVxcSoxW7gy43Jq4wnMpC67wXMqCKzyXsuAKz6UsuMJzKQuu8FzKgis8l7LgCs+lLLjCcykLrvBcyoIrPJey4ArPpSx4SneqwiAYUbrTuqxISmTxFJAGDIoF6HKrsuzCU0qimMDkGha9gFzuU7qsApa9qlXKQhIlo7qRKoFfVuLz1uJWt7c2JalqTcvH+GiAdw+eIJ2NAyZ2letWu7cqyyw8hRAKISsY7PHywv96kyOHT5DJZnCFd2uzzMITIHSE0DGyFl+cvcgPvv+/ee/dw0iZ+9zllmT5q1qlARpC6JimyalTn/N//89L9PUNYFmuxbtVKY07RQk8Hi9tbW1s3bqJykiY/v5+MukM15vkttST4JRSSCmXPN3lZmJigitXrhCNRmf8rLOzk6Ghofx7lmXR39/Pl19+STqdLmVW54X+/PPPP7+UCSqlEEJMe8+yLPx+P7t370bXdR5++GHC4TC6rk/7vsPIyAj/8R//gWVZNDU1zfq9hTA8PMx//ud/0t/fz6ZNmxZ8vGVZGIaBx1Ma37vzgJw/f55XX30Vr9fL5s2bi75z9uxZfvKTn2AYBjt27AAgkUjw/vvvc+DAATZu3Eh9fX1J8jtfltTiOQJTSuULTAiBEIL6+np+93d/lwcffAifz0dtbQ2BgB9N0/LHSimL0rp27Rp/+Zd/ybvvvjst3cLvFb5X+FpKOS3N7u5u/vqv/5qf/exni7q+7u5uDh48uODjCn/myv9sx3d1dfH6669z5syZacd1dXXxb//2bxw/frzomHA4TH19fVEZzJWnwv+Xu1ZYksd2YmKCAwcOEI1GUUrh9XppaWnhkUceIRaL8atf/Yr+/n4sy0IIweOPP46Ukl//+td88sknNDU1cfXqVUKhEA888ACRSISPPvqITz/9lFQqxcmTJ3n11Vepra3l29/+Nj6fj5GREX7xi1+QzWbRNI3W1lYefvhhJiYmOHXqFMlkkq6uLpRSrFu3jscee4yRkRHefPNNxsfHuXz5Mv/wD/8AQHNzM08++eR1r1MpRWdnJ6+99hpPPfXUvMrm2rVrHD16lJqaGrq6utB1nZaWFr71rW8xMTHBiRMnuHbtGkIIamtr2b17N62trRiGwaVLlzh27BiWZeUFJ4TIC/GDDz7ANE3Onj2brw2cPB46dAgpJVu2bKG2tjb/WUdHBydOnMiXYSgUYseOHdx111309fXxySefMDg4iNfrJRQK0dbWxt69e5ektinkhoUnpaSrq4s///M/p6mpiebmZi5dukRTUxP33Xcfp0+f5rnnnsPr9dLc3MwXX3zB/v372blzJ5988gl/9Ed/xDe+8Q38fj9jY2P09vbyO7/zO5w5c4ZTp06RSqXo6OggFArR0tLCE088QTwe58033+S5555j7969dHd34/P52LhxI7qu89Of/pSenh6qqqoYHx9nbGyMSCTC2rVrOX36NIlEgqGhIY4cOYJSittvv31O4aXTaYaGhrAsi8HBQeLxOFevXsXv91NXV4fX65312HPnzvHHf/zH3HvvvYRCIXp7ezEMgxdeeIENGzZw5swZTp48yejoKNFolP379/Mnf/IndHd386Mf/YiDBw+ya9cuenp68hZoaGiI1157jX/8x39k8+bNDA4OYllW/n4MDAxw6NAhOjs78Xg8vPjiizQ2NgLw6aef8hd/8Rfs3LkTwzDo6uriySefpK2tjaNHj/Liiy9SUVFBfX09nZ2d3H///ezZs2fJmxY33MbLZDIcP36cY8eO8cILL7B//36am5upqqpi+/btvPbaa5w4cYIf/OAHPPPMM5w/f57PPvuM733ve1y4cIGDBw/y+OOP86d/+qcEAgHeeOMN/vAP/5C7776bDRs28M477/DMM8/wV3/1V3zjG98gHA7nq8v6+np+9KMfUV1dzS9+8Qvq6+vZsmUL7733Hl6vN39zX3/9dTRN49lnn2X9+vUcOnSI22+/nZdffpl9+/axd+9eAoHAjNenlOLq1au8/PLLHD58mOPHj3PhwgUGBwe5cuUKGzduJBKJzFo+ly5d4p133uE3f/M3+bM/+zNqa2t56623SKfT7N+/n23btrFr1y42bNhAf38/nZ2dPPvss3z22We88sorPPHEEzz//PMEg0EOHz7MvffeSzAY5KWXXmLz5s0899xzeDwejhw5ws6dO3nsscdoaGhg7969mKbJxYsXeeSRR2htbUUpxZkzZzh9+jTf+973eOaZZ+ju7qanp4ctW7Zw4MABxsbG+P73v89jjz1GT08PqVSK73znO+i6fiMymcYNyVgpRTqdprOzkz179vDII48AsGHDBgzDYGBggBMnTlBZWcnTTz9NJpPht37rt/jbv/1bwK42ampq2L9/P5s2bSIWi/Hzn/8cXdeprq6mrq4OgHA4TENDQ77jkkqluHTpEq2trRw8eJCrV6+STqc5f/48Tz75JJWVlezcuZPbb7+dZDKJ1+slkUig6zpVVVUIIfD7/TQ0NMz7Ok3TJJvNYpomSimy2SyZTAbDMGbsUBXS3t6efyC3bdtGY2Mjvb29DA0N8eGHH9LR0UE0Gs2nbVkWqVSKiooKHn/8cdavX09jYyOapqGUYnx8nOHhYR544AF2797N5cuX8Xq9aJqGruuEQiHq6+sJh8MIIfLtaCePW7du5amnnkIIwe7du3nnnXf48ssvOXfuHNu2beOBBx5ASsm9997L0aNHF62Pubhh+6lpGn6/n3g8TiwWIxKJoJTC4/GgaRrBYBDTNInFYui6zvj4eL6dopRC0zSqq6vRNC1fsM6NdP4fGRnBsqyiAnTaMp9//jmapvHbv/3b7Nq1K5+OU+hCiHw14Xzm8/lIJpNks9l8NTmbcIQQbNmyhR/+8IeYpslHH33ET37yE3784x+jlLquJXBEaxgGUkpM08SyLLLZLB9++CEvvfQSd955J0II+vr68p0BKSWZTIbh4eEiYQsh0HUdXdexLAspZV5whZ2EwvIs7CgIIfD5fASDQdLpdF7oQgi8Xi+pVIpYLEY4HF65nQshBMFgkDvvvJMXXniBl156icbGRkzTpKqqiqeeeopHH32UkydP8nd/93eEQiHefvtt1q1bV1SYU3vADoFAgHXr1nHkyBFeeeUVampqePjhh6mvr+fpp5/m7bffZseOHfj9fsLhMPv27WN0dLSooJ2b4qRbXV3N3XffzbFjx3j55ZcJBAI0Nzdft7Pg3JjW1lYefPDB/I2dD729vfzTP/0TGzdu5MKFC6RSKe666y56e3tJJBLs2bOHQCBAKpWis7OT999/n9raWvx+Pz/72c8YHx/n7NmzSCkRQrB27Vpuu+02jh07xt///d9z9uzZvOU1DIOLFy/ywQcf8PHHH9Pf388bb7xBd3c3e/bsyZfJVFpaWti1axfvvvsuP/7xj6mtreWjjz7C7/fn79FSdjBuuI2n6zoVFRV0dXVx+vRpjh8/ztmzZ0kkEnz3u9+lsbGR/v5+Tp48yblz52hra+PZZ5/ljjvuIBqNkkgkePTRR6moqCCdTjM4OMgjjzySF0wgEKC3t5ejR4/S39/P3r17aW1tZcuWLVy5coUjR45w6tQpxsbG2Lt3L8FgkNHRUdra2ti+fTupVIre3l527NjB17/+9XyHoKenh+PHj3Pq1CmklOzbt29e11tdXc2OHTvweDzzuhEdHR289dZbhMNhTpw4weDgIPv27eP3f//3iUQiXL58mXPnztHb24tlWVRUVCCl5OGHHyYYDNLR0cGpU6eYmJhg+/bt3HfffXzta18jEonQ0dHB559/jmEYtLe3c//997Nz505Onz7Nv//7v5PNZmloaGB0dJR4PM6GDRsIBAIopbjvvvsAGB0dRdM0fuM3foO1a9dy9epVTp8+TWdnJz09PTQ0NOTbeEspPLEU6+MppYjFYpw7d46BgQGCwSAtLS3cfvvtSCkZGxvj3LlzJBIJtm/fTktLC0IIxsbGGB0dpb29Ha/XSyaToa+vj/b29nza6XSay5cv89VXX1FTU8POnTuJRCJIKYlGo5w8eZJUKsW6devYvn07Xq+XkZERvF4v9fX1pNNpurq6CIfDNDc3I4TAMAy6u7u5ePEipmnS1taWd7wuNQcOHOCFF17ghz/8IRMTE3g8HrZv305DQwPZbJa+vj4uX75MMBhkzZo1RKNRqquraW9vJx6Pc+nSJaLRKFVVVQSDQRobG6mrqyOVSnHt2jVGRkaoqakhlUqxdu1aGhsbGRsbY2BgIN8kAbv2aGhowDAMkskk69evR0rJ+Pg4yWSSNWvWALZ1vnTpEvF4nHfffZd0Os1Pf/rTJe/VLonwHJz2xlQK222LeWqmpjvV7M9VDRS2JWf6bKn9U1P55S9/yYsvvsg///M/s379+uuef7Zrm29eHWfxfJsBhcdduHCBw4cPI6Xk2rVrHD58mPvvv5+/+Zu/WXl+vEJmu9jFCm62dKemNVfac517uUUH0NbWxtNPP01FRcW8zj/btc03rwsVnINSimg0yvnz5/PifeCBB3jooYeWpZyW1OK5uMwXd3qjS1lwhedSFlzhuZQFV3guZcEVnktZcIXnUhZc4bmUBVd4LmXBFZ5LWXCF51IWXOG5lAVXeC5lwRWeS1ko2VK0lmWBUu76UCsMJ1ZxqWeRXY9lF14mk+HcuXMcOXIEaVkgZG4hH5cbR1C04pZY2GPtRMSFQiF27drFnj17ShKjCCUQXiwW49VXX+WVV15BKkDTEBIEEqFAoQO3qCW8oXtsB7gqKVFFy/uqXLrXL1Hn9OFwmP/5B3/Anj17ShKVDSUQXjqd5syZM5iWhS9cR8PmPRhZCw0JKJTy5v4q7PX0ljtHK4hFXKtwfguBZiUQiV7MbCr3qZr8Ow/rZ2SzTMTjxGJxRoaH7ZRvFovnzCUFDW+kidYH/4Ck6UUTjpVzpjiCEreY8BZo5wUglC06hUXY7GaD6mRtJDz5hfxKq3OlbX92tbOTD957n+GRYZQqneigBMKzL0ag0JCeEBMVm8joYfT8Ezl5sVLcspXuvBGAEqCpNBGpsX1dHY/sdmbIqSl/i1Eo+wFHIVB8fOwox/7rv2C09GVeEuEJYT+BEoHUNaSmkSsGxBQT58pubpTzWwmE0gEdZcux4AuzWC7bZCLUZKmXq7xL5E7JmX4Fwu5Z2K4VseCO2C1PTjuT/VmVmwLJPGoLZVs6gUAohaaY9uCXihJuKVXwtBYxZTqfa/PmxRRHit1IFnY1PNcxc36hhJRUeM4T6lg5+68rtIWiZvpPFPQtrnO0yn1Z4VjJm7CNNxVNTX1aXeEtBKcJpxQIu6dAYS92bntWWPJaWXcaKdsQwsow+KsXwQzV7SrCHbtazazizZFc4bmUBVd4LmXBFZ5LWSi58FaIG8mlzCz/Dt2Fr4VACme4zPnUjkpx9XhrsbzCU4XCy4XyFA7uOGM/rvDmxbKVURl6xiWtavNhPS4L5mYrtZIIb5W6mlYUN1sZlkZ4N9vj6nLDlN2d4oZF3Zosr/DmYelcY1gOxJS/pWf5hDeLJSt2ryzb2W86lnBPnXxES262y5KmPl+WvaqdzyUVBG6vKOaewbDasQMjSznBp5CVITx14zd3xuDIJUhLAUrMb9bW9d8rP6IomOo6IcvLSNk7F/Nn+o10tosq/EQ4T3L+/5lTml1Kk2MqAoWYEvg2LdyyqKbKHZtzjK9M6a0MSh6BvGiEyj2d9o+OxK9lUZYkIwJI4czWkOgK/GSRCgzhxZo6k23aqg+q+A0lEAI0AVLm9ohFIVEoIRBK4AEkCqlAFxa6ZpGVXqTTcFACTUi8ZMHSMYQHKSwEOgLQlEIIiU4WCx+m8NxSSl1FEcjOJAG7eoiENZ64r5qndkdoWRNCaPZ3lIDakM7ju6r4+rYAkMJpSM84QQZn5lXutZJE/IrWhiBCgUearAlIbm+pxO/R0CRUBTXuaq0gElBouqKtVvDQHSGEpvIpoRQhPcuGyDib6iy8mkVDhWBDrR8PFprI0BhO8M3tHm5rD9ltrVvISq7gqlYV/dakhVemCWKiCYWuK+prdfZ9vYHWtWF7qiQWHikJamkaIwmqwuMoYSCEQiiFjkITGZAGOiAw0UUanQy6kuhS4bEMWitTPHZXGJ0sftJsiSR4clcV1ZUevBi0VCkevSdATSCOV2So82RoDmeRAmyLK/GTpUZLsqkqxZZ1Gj5vgp1NiifvCOBT4+giwZqKFA/tqOKezVX4VBId45bxL63AqjZXVQmFUgKBIqhbbK73sqMtjFd4uRxTfH6xn8Mn0uxs8CGFQikDgaLSr7h3axiPlSCdNBBaECEVNUGLPVtr8QcNvhqwuHR5jMZwkj071mFYgkwWzn8VJxTy8eTuALs2+4mmqomOJwgmhtjUINjQpLOxWlAlxmmrqaQymOZb7WtorzSJJ5NYePAxwcYqxZ7bmogQJGBpxL0637yrjofaPWyu9zNh1tA9lmFsdJgKYXL7Go3v3hdhaELns6swOp6epr/yOD2Wj+UT3myrZxU0/CejV4q7B/m/AjzSYF0wzpP3bCKWSWJpPupRWEgM6QNpoSuBpjR7BSpNEK6oYNuGenwVaX51aYiqoOCxrSF2taWIZRJsW9vEm/Eobd4Y/+Nruzj2ZZzWBi9rApLPrxkEAiF0TcPr9+PxGRgJL37S3NuqWF8R5uKX3RhmCxMZD95gkIYGQXuwHu+pK7SFUuzb0UBtSy1jfYOETC8JKQh5Q/g1AbpGIBDC6/EiZBRNSHxencbKANubQYT8HPw4xUwyc8Q3WVragsQ4rcNVxnq9JFWtKHoxueCCvQ6IyrkrHHL9RqXZbSxlsMYbp63Gw+vvfcXPPxrio/PjjGsVWEoDy8KjJJrUUFJnLKV49/MROgZTeDUDpbLUhHW+uaOeSCBLyszSXOOlbV0dXjTG4wYfnBxmbCzLHZsq6OhL8MFnw/SMGfzroSEOnZhgJK6TGh9lax00hiRrKyBpavQN6/zy42EOnxpBUwqflaG1QrC5tYlDZ5O8+V+9XO7tYzSe4b0TA3x8YYSu4TT/cugavzqTAuklowRfDJj8v6P9pKLDbG/R0LDmnNgucnMcxQJun7MCgZab15zvVJVp19gV2MabdHToCqTQyXqC+DyStYEJgsY1rIlehMoglYaQFk3eJBFrkICexafShMwofjNLUEgq5ThmNknM9FJRv5YxGeTY+RF6BtKYEgwJWSkxLRMhJBJFBh2FQZ0axKdijI8nudrZTSToI54xWbeumWjKRAeC1igBK4pfmQRlEinsZToa9AmqxBgBQEmBhUZK9+DTLZq8MapkDA37/bQEy46PRUOiCZNic3TzdTlWYBvPxvHOSXTGqCbuCfDtb25gPJVhIKnzy3NxMkaQrlGN+7eG8ItqvpwIEO2O8sSuOrY2BvD4PDx6VzWfdqQ4eiHOQ/f4ERmDRAoGx7LU1flJ6mAKnQnlp0JqSKEzYngZTuo8e38N3THBha/i9MSy3OULEs1abF7fwNCFOE3Vgvtvq2Jrnc6aai8P7mpkZBy6BxN8484A6yNNVPjC9A/omCrNUNoLoQDfub+Jjl7oG1MktUD+URuXOpYlUMru+jglsWKHdm6AFSs8AEuArnQGJzy8+XmS9ro2ghGFRQJUH2NJOHA2y723BVDVzWQTKQy9ggnPWo53K6SQWL4GUtYwxzriyCA0VjYhLImlx7mSgg++GCeW8XDiikFkwMJUPgbGFR98keWOtvVopkVc8/HfUYP06Qz9UTgznOarPpOsJ4wMNNCVUnReTGOFaunpz3DgzAR331kNvhZ+HTO5NJrGsDS+6rc4cN6kNthMtsKgZyDBoS9NYskJxgwvn1zzoAYTKDTUTdWVmM6KFh6AFBrxlOLDUyPouhePBpa0MGUEoQRnuxUX+kaRXj/prEKIKi4fiqKkY0ckmgih0iZvfzyKz2MhlYZp6URTQXpOxhDKw+eXxnOLWHlIZUxO/DrK6U6wpIZheRlIanwxFLUdxEKhCQ2Uh3/5aCS3GAQITceUdpP/wtAoHl3HsiRSCVA6A2Mmbx8bQdcAoWFIjYHTEyihYYkA0SsSIScobgGJsrXDlpMVLzxniEoqDWllMSwdoTTssSyJRJCRXmQ2d3OUPZrgwV7oUaJhCLtRjRKkDA+O0xgEEi8aKjfi4DhxbSd12lCAZS/speWOyo1cIMkLzv6toSwdgQUIlNTJSgG5NZ7JDcZLBFLmzq7s/EshMHOjI1rueotZYuu3AoIgV7zwHOy292S7x5m7IYXTYysen1UI8ssqTytnR3Y2sqgPqfKfF1V3Oe1oOUNa0ALLpySQ+UUonWUnnfOJKekpnK5lbq06qZipJzuT/y6/KpSiqFKesynofCCcnmx5V15ZNcKzb1DhXgyTK51PLWwFWAVqm6141Ryfz3j0NMFNEaeQBcdMGR+eId3CY3UlmY+TQcz4o3J5m+4VLc6DyC/iaD8MrvDKylwVz1xWpBTBUNeTxuTDY5vAYCBARUWFfZxwTL5t/dOZLBMTEyip0MoUh+ewSoU3t60Sc7pfbz6cijMQCLB27RqqIhU5e6ZATK6Dl0xm6B8UjI3Hyl4+K9CBvHTMXC0tjIXcoOW+mY71VTP+Lwj6/dRWV+LVBR5doOsaugYeDbwaVIT9VEUqcdZzLKf4ymLxii5YTW01Of/nXPn5ITSJQKALEw0DS2lY+FBi6rOz8q2dQCGUCYBCJxfTdd0q30EVvHBKSOQX1i78RvFjJnA615PL0ZaL0govNz44WXBTbFA+2NP5cq5vKUx8KklIl9RHFP6gn6FxGE4oLOdQpt+4pRPg0t4hAVSFBHWVBqNjCZJZH4YIItWk9bp+CpPddWfcVYi812Ze3DoWT4CmZM6Y5Z44pZis8SedGJqS6MLExwQRX5It7fUEAz6SaYPxtI7SNHsnoFJkesn9aALd46G+ClrXeNE0Lz2Daa71p8ioMDLn0ZMi9xwqZ5OAnJMmlyXl+BxnZAarJwqvJtcDLpPVK3FVm2vwaiCkhh08PumpEkrgUSYBK0VIJKmtVmze2Iim+0iYYSZUkGtjaYZG0mRMhSxooi7f07v0d0YpGE8oOgd0WtdWUFspWVdr0t5QzURS8uWlPpKqiqzyYwkPltCwwwcUiJyNFyInmqlNlVnO6XxDFP9fLqtX8jaeKHjSNGUXppIGXiRBOUFTyGDdmgoiNVUkTUHGV08sa3DqQpRsNoUQOqXtEy39rVGAKQVDMcVwLI5XlzRW+9jWUkkkkmTXnTUgvXR1xxmKKyZkCEPYIpx8TKfIRjmO4XlekbiVqtrCdht2dRr2ZFhfH6S51kdqYoJYLEPWv5YxXw1d4xm6LkZR2OOdQuhTQh9n8usvnLmDP5bv9jjdgawl6B416B0ZpbJCZ2v7WkJ6Fs0bp746w7aaMNIb5qseg9GkaTcxCrJl518ua16XmpJvsKIpA7+VYE1VJdvbIwSFwkwl0USCcZ9Od7qGRGcayTAWJigdNJXb7VFQPJlRzd5IEZMjG86qfCLnudcK0rDHX53clQZnpIGifCgsAWMJgxNnhxHKg1cPUl/hpU73UB3IsnO9xBOupm8oS1dPItfTz+VcYAfVlvRKFk/JLV6V32Ln9iruaa2ktTnCuAzyZecAA7EUNZVVfL2mEksplCZyQZW5IyfH2WdKdoZn3RaeQKAJYUfd5iyFJguG24SwbUWJPfnK3iFlmlDscWeBpoQdFJr7qfCbbGoK09ZQQ3QkQUe/ZLAvhZ5I2mmI4iG4lU7p23hCEPZDY5XCTwqRyAAGPt2PJnUgbe8cL8gtW5tDs+ehzladKDn1ndyxzhyPXECLPdc6d4Oc0XYlpoTfF+V4MZc5JwrbOkkn+YIOqFD2ztua0uwHBoXARIgspmFhGh7CIUl1pU500MqVSWE+V4f4SryJnsZYNsh7n49xeTBJe4MfzCRZ00DzVtDdn6SjL42hBGj2zIMih6iwpq31YddYKjdFdkrDJ//ark6FyC3gYBWKbK4btXwRHM6+sfn/i4IaNLuHLySRoGD9Gh+NEZNTIwnOdGWIJz109cYRY1G+1Zz3CUymtQoGDUvuTjHxEJdB/vtalnM9aSqCGm2NdTRXeGhsSNOyrp7eUcn5rhFM5UPJXBUrNJSSKDW1R+uIsuA14FS1ShSIR2k5P5gsuE1i2o2bTHoZF9NyfHT2f9iPpULDwqcZNFZ72NJei0elyaQTpJSfLwd1hsdNTEMhlJc1+FFkbKsunauZu4tR3PEtn0Ol5G08pUyUBBMPKamRSsDQ5QyBq3HWRAR3bKpG6BZhn8GGphBrqiuJxxJcutpHSupYKoyJP9eLmyKWImuoF39W0JhX83bHLONNEQpdGHhI4yNLTUinaX0DeL1cuzaGrllIoRPN6HR0pRlLgUElSvkQAnSVtfOXG3idrw2ffkXlEV9ZxmpFLoo33xhWOikryNWo4up/j6ApQcgXxEKg6SZ1VZK6HVWoLFzpjtMdmyAjgpgquPBzz/DerMW+TJG6AvCSpt4/woa1IWoj1SQNyPp1EqZGyvIzGDPoGI7m/G0RnAq0KOBBFXcnVtPa+WVwIBcKb6abLpBoTGQ1zl8xuNiVoqZSY1tbPRHdYm2jl/WbFD2jPi5dTWNOtWyrAL9Hp2VNhLY6ATJEgiquJQy6LidIpZI5geVujXJGb8W0anRKv2RVUXqLl2/YTC/IYne6HY0ipZeRccmxsyMEPDqNdRWsj+hYypji01tFCLCEj8F0Pdd6s8QSY1gcE48AAAekSURBVNgzekGb1gwo7DQUvKtywivzCMRiKUNVO1sY1NTPC9GwJ99A10CCrgELKVVu+Gz1kTFMLveOI5Wes2zzqySv13GYz7dXimUskfCmXK6SOcfpQiqKnGNFAegLCv9Zadjxc47YTIqnHs1+zEyvi9+b6mqaOc18UFAZKbHw7KEIuz866cSYxSW8yLOsdA8WkJeaYnJXt+s/ScXiK4gCVfbxqXSG6FiMioowQtixP6Kg7FOpDGPRMSZLSpRtDeSSV7XOwLjIvXbijJeShbkTyoXIW6nF5MkZuS70DiTTGbr7BqisCNnNZSntjpwQKCVIp7LE4xMI4czeLV8/eAVP9ll4kazWHt6N4PTVVK7qSCbTJJMp2xDKXNBogWXThG5XPJS3nFaw8BbPyrFqpabAY+As4uy8KybjIFdCBMtNKbxbCVtUzlRG5x2Ra05Pl9dKeShd4d0EOOKbzkqR2XRu6nm1LisX1+KtSnI+FDHlb555tuCccLIy4Fq8VUdOaKLAiVf0s6CUcqHdlLy34QrvVmbGKQOlwRWeS1lwhedSFlzhuZQFV3guZWGFCG/lOjpXHqs08nMKJRKeM5zjdPkLC0+xXHMbbl6cKWoz/SwsmXKN2ZZMeEJQMOu6cCkKV3QLJycyNeXvIsVXDlZIVetyq+EKz6UsuMJzKQuu8FzKgis8l7LgCm9VYrul1JSwKDWvCJXc5/nJGsuWyTlxhbdayYnNWQhEzcsfOmU6VBmjU9xA0DIyHxfazerldIVXJhbi6r0ZxecKr0zcjGJaCK7wysjCxLewJXtWOmXvXJRrS6PVzeoX4LJbPKFAU5NdeKGs/P4Mk8tPL2I51AVEVhSsQntD6SwoXZZ6hU415ZUA4UGJgs3hF1CEyknC+afEWi5BVavQlL1sqqYsfGaWrEqjaSI3w0nHvupp+wXMjVTYO0/Pr8Rm/Z69ROnCzj0vBEIudboKIRRKSDwqi6YkylnRHrHg6DJHfOWgBMKTgIZQioBI0q710R1N2vtOAMUrq89fgJNbk8xTeHOYvOVYVVMsi/AAJAgLHQuflkJlI6synHGZhaeQua2gBIqQSLCrIcae9WFkfqueqUsOzn9Jmelrg8x+B2ZbB04VrFG3KGa1uCK3CNtcxy5GmAqFBKWYGM8ik+PTlmMs/5I812eZhSfA2XcV0IWiudbL1m1b7BWOhUAUbckjivelWDAzi8ARXaFlmJS8s/rwIs+o1OQSYI71Fs55r7NU7iyinbPJJUDlyqyjo4OOjo5ZUljZ4lv+zkVun1UlBEJouV2kRX41yiKrsEyrUwqlilfQzOcN23rckPRs/WhCQ8+Pg4IsirheYH6vU/VPFpOaoe26Otwupd29caZls5ZMbNPthFIKv8/Lmob6vHVxVksvPE4uxZabEtLJDNFYPNfLFMi5erxi9l6vUtMyWZTfybzOZhtXtrWDm8aBPNMNUHg9Oo0NtTQ21he1tmZeNe7GhCctRSyWIJnNks4Y2IsjFpx1wcmvfKt1I5Rhg5XJanbpmN6mEUrh8+hUR6rQpn06PVc3iqYL/EE/4XCITHYcpcR1o0VKuc1nPisrZHZk6S3esqxMND1RR+CamK8b98YypQChaWgeD87my2pqg3Kmg5Y+KzMm5ySpVki/4yapamcqydxeryUs5KKFsOH6pmVRDrjV0Xm4HmUfq11OFJOuh5uF1byxTCE3icWbjuNmmO+Q2mplPtdX5KJfIcK9eYWX/1U67GHf5b2zi93oeKUIzuGmFZ49Gaa02lNKYVrWcp9lCY6fy09YGsrexhN507QUsTkF6QjImhbD0RimtINZZvyZcvZF/yhFJmuQTCTtTbNLWsUv9Fx2ruezed9yUXaLZ/fRCgtuMc/CDMIVAtOSDI9EkZZCm6EKdKpGYY/jLeK8zultS5fIpEllsotPZ544nWF7FEYhFizy3CgOINSy+LeuS1kcyJqmIQvGk4QqbIMsxlKoGXuvAoFpmAwOjqDNULjCiYQU4kZ1h1QSQ1po2vwenEW3BW1zOvlS5l445XZdv2VBuedfl158JReeJS06Ojqwcs0MPWepnOpq7sHx2Qpn5irDKU7FdVxmS9QhkFIu4P4tMvTZGXMWgsGBPqIjw3z164vzPrzwUnt7erGkVZbatnTCU4pUMsHJzz4jkzFzw0UKrUBq16sx5tTHXB9ep4u7FCHqquD3Qo9aOPaoTCqdYmIiweEPPyj6bM4jC5zb/QP9KLlU7euFURLhiVyIenR0lLfefCMfpza1AS7yv24VFnmznXZJzmhKxwrCgqx3NpslEY+VZSBk2YUXCATYtWsXn3zyCVJKuru7UUoUBVAWIlZjHPeiWGzkc7GPaMZQs7nmlxSd07ac1dXVNDQ0LCIvi2fZhReJRPi93/s9Nm7caLeBELldjGZq48xt8pfLOVv60Y0bqdpuNEJ7auCCRigY5p577l5kmotDqGUudceyKaVywsuferYjljM7K4gbuc4beQCnnlfkXUrLPepSdNblFp6Ly0yUfeTC5dbEFZ5LWXCF51IWXOG5lAVXeC5lwRWeS1lwhedSFlzhuZQFV3guZcEVnktZcIXnUhZc4bmUBVd4LmXBFZ5LWfj/68mXE7+Q9iEAAAAASUVORK5CYII=;movable=0;resizable=0;rotatable=0;deletable=0;editable=0;connectable=0;" parent="1" vertex="1">
                    <mxGeometry x="18.001064453124997" y="26.993312988281254" width="158" height="178" as="geometry"/>
                </mxCell>
                <mxCell id="4" value="不包含border和滚动条" style="text;html=1;align=center;verticalAlign=middle;resizable=0;points=[];autosize=1;strokeColor=none;fillColor=none;movable=0;rotatable=0;deletable=0;editable=0;connectable=0;" parent="1" vertex="1">
                    <mxGeometry x="26" y="213.99" width="137" height="26" as="geometry"/>
                </mxCell>
                <mxCell id="5" value="" style="shape=image;verticalLabelPosition=bottom;labelBackgroundColor=default;verticalAlign=top;aspect=fixed;imageAspect=0;image=data:image/png,iVBORw0KGgoAAAANSUhEUgAAAQ4AAACmCAYAAAAriWGSAAAgAElEQVR4nO29aZBdR3n//+k+566zaWY0ms0aydJI1mJLliVZi4VswKYIsVm8BMosKUhCVYoKqVSlihf583NY4kqKKgIhpCAJJoVLxmBDAGFicLAd20jeJEu2ZFu7tc5o9vWu53T/X5xl7h3Ndq80Wqz+qEZz596z9Ol7+nuefvrpp4V2tUbgEfw2GAyGKZDhKyMaBoNhhnjCoS9xKQwGwxWFnH4Tg8FgKMYIh8FgKBkjHAaDoWSMcBgMhpKxzWiKwWAoFakFZijWYDCUhOmqGAyGkpHvdmNDaxOkYjBcaOxLXQDwGrfjOEQikQt6TAClFJZlXbDjziZaa3p6enjttdeorq5mw4YNCDEm7aOjo+zfv5/h4WFuvfVWbNv7+k6ePMkLL7zAkiVLWLt2bdE+VysHDhxg165daK1ZtmwZN954I5ZloZTizTffZM+ePUgpaWpqYuXKlTQ2Ns5qefbu3cvZs2dZtWoVTU1Ns3KOjo4O3njjDRYsWMB11103K+cIuCy6KqOjozz55JOcPn36gh0znU6zc+dOHn30UbLZbMn7a63J5/MXrDwz5eTJk/zbv/0bjz/+OFrrIotpYGCAX/3qV/zgBz8Ir0kpxf79+/nKV77CY489Ziwsn4MHD7Jt2za++c1vsn37dpRSaK1D4di2bRvf/va3+f73v8/hw4dLPr7ruriuO+Ptn3rqKb73ve9NeK7x33O5HDhwgO9+97u88MIL532s6ShZOJRSQHEXYPyFB5UavKe1PqeSg+MADA0N8cgjj3Dw4MHws+CYWmtyuRxKKRzHKTpPYVmC4wefp1Iptm/fzre//W1yudw5ZZ4KrTWdnZ08+uijJd0chfsXXl/h+9OVwXVduru76e/vR0qJECI8nlKK0dFR+vr6iq69sbGRD3/4w6xatWpCa0MpNeF1uK5LPp+ftLyTcfLkSX7xi1+wa9euGe8TEJxrqroY/1nhveC6btG1B9dWeL8BLF++nPvuu4/58+czPDyMlBKlFFJKbrzxRv7iL/6C5cuX09nZSTqdLvk6du/ezY4dO8J7azqGh4fp7e0lm81OKDqF11LYbsbXUWH9Bbiui+M4pFIpenp6GB0dnXT7yep9/DGno6SuyvDwMI888giZTIZYLIbrukSjUT73uc+RyWT45S9/SW9vb3jzbt26leuvv56RkREefvhhkskkIyMjaK1pamriox/9KHv37uWZZ57h7bffZvv27Rw+fJhoNMrmzZtpb2+nr6+P//iP/yCZTOK6LjU1Ndxxxx1UVlby2GOPAeA4TtjArr/+epYuXcpjjz3Grl276OnpYdu2bcTjcVpaWrjjjjtmZMqfOHGC7373u9x7770kEolptz979ixPPvkktm0zMDCAZVnU1dXxsY99DCEEx44d49lnnyWTyVBZWcnq1atZs2YNSilOnDjB//zP/6C15vjx4wwODpLP51FKcfr0aZ588kkcxyGdTnP48OHwCz5x4gRPPfUUmUyGxsZGWlpaAO/mOHz4ML/97W+Jx+Nks1lyuRzt7e3ceeeddHR08Pzzz9PV1UU0GiWfz9Pa2soHP/jBaa9Va83Bgwf5zne+wx133MHatWunrRuAffv28dRTT2FZFtFoFCkly5cvZ8uWLXR1dfHyyy9z9OjRsFvZ2trK5s2b6e3t5dlnnwUgFouRyWRQSrF69Wo2b97Mrl272LFjR/j9r1y5kltuuYXFixeTSCTYvXv3Od/3kiVLWLJkCe+88w7vvPPOjMo/vg6efvppenp6WLlyJTU1NVN2h4Pvq7u7myeeeIIDBw7gOA5NTU1s2rSJ5uZmdu7cyWuvvRY27Jtvvpl169Zx4MAB9uzZQyqVwrIstNZkMhlWr17NjTfeyN69e9m1axdSSo4ePUpPT094jK6uLv7whz9w8uRJAOLxOFu2bKGiooK9e/dy6tQpGhoayOVy9PX10draysaNG2ltbZ22DmYsHPl8nh07dvDAAw+wYcMGVq1aRW9vL3/4wx/4zGc+w9GjR3nggQfCkwcX/O///u/09/fzd3/3d7S2tvKe97yH/fv3k0qluP322xkeHqajo4PR0VF6e3s5ffo0lZWVjI6O4jgO+/bt46GHHuLDH/4wIyMjPP3003R1dXHPPffwta99jWg0yh//8R9jWRbbt29n48aN/MM//ANdXV1kMhlyuRwdHR3E43FisdiUopHP5zl27BivvPIKhw4doru7mx//+MdEo1EWLlzIli1bJt33+PHjPPDAA8ybN4/3vOc95PN5Dh06FN4cqVSKM2fOMDQ0xJkzZ9izZw+rV6+mu7ubH/3oR2zbto0PfehDnD59mq6uLnK5HKOjozz33HN873vf44/+6I/o6enh9ddfD/uv2WyWM2fOcOzYMZ588knuvPNObrvtNlzXZffu3Xz5y19m8+bN3HDDDezbt4/nnnuO22+/nVdffZV/+qd/oq2tjZtuuomXX34Zy7J43/veN6VwdHZ2snPnTn7/+99z7NgxXnrpJR5++GHmz5/PqlWrqKurm3C/TCbDM888wze+8Q1uueUWli9fjm3bNDc347our7zyCg8++CBSSjZu3MjJkyeprq4OHzpPPvkke/bsYevWrdTU1LBjxw62bt3Ktddey69//WteeuklVq5cya5du/jd735HVVUVGzduDK20yZ6kUkqklDN+0p45c4ZXXnmFzs5OXnzxRQYHB/nhD39Ic3MzGzZsYPHixZPuK4Sgu7ubI0eOUFVVxZ49e+js7ORv//ZvaWtr4xvf+AaDg4OsW7eOF198kbfffpvW1lZSqRSvvfYav/3tb4nFYqxfv5433niDffv2obXmRz/6EQcPHmT9+vUcPHiQzs5OHMdBKcXvfvc7fvWrX1FXV4fjOLz22mtkMhluu+02jh8/zg9+8AOEENx8881Eo1F27NhBRUXFhRWOdDrNz372MwC++tWvsmrVKvr7+3n88cdxXZc9e/YwNDTEv/7rv/K+972P5557jj/7sz8L93cch8bGRr7+9a/z05/+lH/8x3+kr6+P9773vSxbtowzZ87wqU99ijvuuCM0SQcHB/n973/PzTffzOc+9zl6enrYu3cvTzzxBHfffTe2bdPU1MRXvvIVUqkUnZ2dHDhwgLa2Nv76r/86fEp/6UtfIplMTnuN+XyeAwcO8Oijj9LV1UVvby+PPvootm2zZcuWSYUjKG82m6WhoYGvf/3rDAwM8NBDD7F9+3a2bt3KokWL+MAHPkBnZyfPP/88u3fvZnh4mNOnT/PrX/+aZcuW8bWvfY2XX36ZHTt2oJSiq6uLF154gba2Nr761a+yZ88e9u/fH4rfkiVL+PKXv8zTTz/Ns88+i+M4YV1nMhnq6+u59957+fSnP81jjz3GT37yE4aGhsKn7F/+5V/yvve9j23btvGrX/1qSue01pqOjg4ef/xx/u///o++vj7y+TyDg4PcdNNNzJ07d1LhCLqZsViMpqYmbrrpJlauXMn8+fNRSnH8+HFGRkb40pe+xMc//nEOHjzImTNnaG1tZcmSJXzoQx9icHCQP//zP2fFihU88cQTAGHj+/znP89dd93FD3/4Q7773e/y4osvsmHDBoCirp6U5/bMS/EvnDlzhv/+7//m9ddfp6enh2w2S09PD4sXL2bu3LlTCoeUkoaGBj7+8Y9z//338+STT/Lggw9y/PhxDh8+zO7du/mbv/kbvvCFL/DLX/6SnTt3cuLECW655RZc12X//v20tLTwxS9+kX379tHf38+hQ4c4evQoH/rQh/jCF77Aj3/8Yw4ePIjWmmw2y4svvkgymeQTn/gEjuPQ2dnJoUOH+OhHP8onPvEJXn31VQ4fPswnPvEJ1qxZw69//Wtqa2tnVBczFg7HcTh06BC2bbNq1SoA6urq+PznP8/IyAinTp0iGo3y/ve/H9u2WbJkCUKIsD9qWRYNDQ1UV1czf/78UBiUUgghiMVi4ZcohEAIwejoKH/4wx/QWvP973+ffD6PEIJ4PB4es76+ntraWlzXpb29nTfffDM8TtB/n+mNEYlEWLZsGZ/97Gd58803GRwc5E//9E+JRqPTqrDWmng8zjXXXEMikcC2bTZv3sy2bdvo7Oxk27ZtvPDCC+GTRynFwMAAjuOQzWapr6+nsrKSyspK6uvrARgcHOTQoUPU1tYipaSuro6VK1dy7Nixc84NhKMswXtz5sxh0aJF2LZNIpFACEE6nSaVSjFnzhwWLlyIbduhqAaCFHwHhQghaGlp4Z577mHOnDk89dRTrFixgo997GM0NDRMecMlk0k2bNjApk2b2L17N3v37qW9vZ27776bD3zgAyilaGxsZNmyZdi2zYoVK1ixYkVRGVpbW1m6dCnz5s3j4x//OOl0mp///OeMjIzQ1tZGLBZj7ty5CCHo6+sr+t4Dv8hE3QnHcWbsp2htbeWee+5h69atPPHEEwwNDXHXXXfR3NzMkiVLptxXCEFDQwP19fVorWlra6OxsTG0LC3LYu7cuUSjUdavX09PTw+ZTCb0XyilWLhwIW1tbSxcuBCtNdu2baOvr4+amhqSySTz588PR4dyuRyu63LkyBF+8pOfoJTi7Nmz1NfXMzQ0RFVVFZFIhBtuuIH58+dTU1PDRz7yEaLR6IzqoiQfR0NDA/v37+edd95h4cKF4ftBfz6Xy7F3717WrFnDwMAA8Xh8QpUfj5SSSCTC4OBgeLNIKUNzdv/+/dTW1hKNRpk/fz7z589HCIHruqHgBAJVaHoKIcKnYkVFxbTliEQitLe3s3jxYpqbm/nNb37DvffeSyQSmdF1CCHC8w8PD3PgwIHQJ/DQQw+xfv16Nm3axKFDh9i5c2fom4lGo6Hjt/DpGI1Gqa6uDi2J4LPxDUAIgW3bRCKRsAzBNuMFQEoZ+j2GhoZCkZ4J8+bN4yMf+QixWIzdu3dzww038KlPfSp04k7FzTffzIMPPsirr77K/v37eeaZZ9i+fXvoc+ru7ubgwYOsWbMmvIYArTW2bYffddDtrK2txbIsBgYGwjpPpVKhSFqWhRCCwcFB+vv7zxlytSyLfD5POp0uun8mo7m5mTvvvBPwrI/e3l4+85nPUF1dPe39obUmGo2G13D8+HE6OzuxLCu09IIH45EjRzhx4gTLli0revgmk8nw2qSUVFVVEY1GyWQyOI4TlkEIQSQSIRKJhA/XqqoqFi1aFFpHwb0yZ84cqqqqwuPN9F6YsXAkEgnuu+8+Tp8+zTe+8Q3a29sRQlBVVcVnP/tZNmzYwNq1a3nwwQfZtGkTZ8+e5Z577inyhhe+Booq5Oabb+aXv/wlJ0+exLZtFi9ezG233ca9995LR0cHkUiEZDJJJBKhra0t3L/QQinszyYSCW688Ub+93//l+985zs0NDQwb948PvnJT05bOUIImpubue+++4Cpb6ZClFIcPXqUb33rW/T29nLgwAHuu+8+bNumsbGRqqoq0uk02WyWs2fP8otf/IK1a9fy3ve+l507d/LP//zP9PT0hDdSY2Mj73//+/n5z3/Ot771LUZHR+nq6grLf/ToUX7xi19w5MiRMMbjX/7lX8In0vhrCupl+fLl1NbW8l//9V88//zz7N27F5jZqJNlWbS3t/Mnf/InLF26dEYxMkNDQ+zatYu9e/eilCIajVJfX08sFsOyLFauXMmCBQv46U9/ypkzZ7AsixUrVrBu3Tpef/11nn76aU6cOMFDDz3Exo0bueWWW7Asi9WrV7N7924eeeQR3nrrLV566SWWLl3Ke97znrAhtLW1sX37dr75zW/S1NTE2rVr2bp1K1prmpubicfjbN++nVOnTrF+/fop/VhBPWqt2bBhA+l0mkQiMe39Eexz6tQpHn/8cXbv3s1rr71GfX09N910E1JK9uzZwzPPPMPg4CCvvPIK11xzDfPnz+eFF17gZz/7GadOneKFF15g69atrFu3DoD169ezfv16XnrppfCe6unpASAajbJly5bQmo/H4wghWLhwIUePHmX37t28+eabVFVV8Z//+Z/ceeedrF69etrvMsD6+7//+7+fyYbB07ihoYGzZ8+G3v9sNsvtt99OXV0dCxcu5Pjx4/T29lJRUcEXv/hFKioq0FqTSqXYvHkza9aswXEcEokEW7Zsoaamhmg0SktLC3v27AkdiHPmzGH9+vU0NDQwMDDA2bNn6e/vJ5VKUVdXx3XXXYfruqxbt441a9aEgtTU1MTmzZuJx+O0trZi2zYdHR10dXWhtebWW2+d9ksWQlBTU8OmTZvCp9Z0nDp1ip///OfU1taSSCQYGBhg7dq1fO5znwufkME1xGIxli5dSjQaZc2aNWzZsoXh4WFOnDhBZWUlW7duZfny5WzatImWlhZyuVw44rB27VqWLVvGTTfdRHd3N88++yyRSITVq1fT2NjIyMgINTU1LFu2jNraWtatWxc6x6qrq1m7di0NDQ3U1NRw/Phxurq66OjowLZt7r777lC0Jrrm4L25c+eyadMmli5dOpNbh1Qqxdtvv82rr74afr+tra28//3v57rrrqOxsZFFixaRSqXo6Oigr6+Puro6rr32Wg4ePMjw8DALFy4km83S1NQUdoNramqwbZt33nmH7u5u5s6dyyc/+UluvfXW8AlfVVUVmum9vb20tLSwfPlyACoqKqioqGBwcJChoSHa2tpob2+f0TUtWrQo7FrNtA7y+Tz5fJ6BgQFaWlq4//772bJlC+3t7bS0tNDb2xuOdNx9991cf/317Nu3j9OnT7NkyZKwjS1YsAAhBHV1ddTV1TEwMEBHRwdz585lxYoVbNy4kWuvvZb29nYcx+Gtt96iq6uL4eFhFixYQCqV4sCBAzQ3NzNv3jzS6TSLFy+mra1txhaH0GVEnuTzefr6+kIVq6qqCj8LRkOCvnNgumez2dAsC8arg0oPLIXR0VFc18WyLBKJRNjfCvwVgZke3BSBxVJ4sfl8PjTDwOvfBkPAUkqqq6tLvdxp0Vqzc+dOPv3pT/PBD36Qb33rWwwPD1NRURE2RK016XQ6NKGVUkQiEWzbDkUvnU4Ti8XCOguuP3DyBr6KwvMW+oUCphspyOfz9Pf309/fT2dnJ7/5zW84fvw4Dz/8MNFodEIfx/niui6pVIpMJoNt21RWVhKJRM6Jyyn8ngu//6A8hX4Y8PryQZyPlLLICR48BILuiNa66L4KzpnJZABmZD2USz6fJ5VK4TgO0Wg09IMVksvlSKVSxGIxEolEUd2Mv+7AignaVj6fD9sjED7wlFKk02kcxyEejxe1jcLjz6S7WUhZIee2bdPQ0BCePLgIIQQVFRWhw7OwzxX07QIKTdzgC66uri7yghd+XnjBhRcbnCsoy3gLQUpJZWVluO1sEZwz8DXU1dWd4+ytrKwMtx/fsG3bnlTULMuisrKyqJ6Dc072ZQfbFpYt+PvIkSM88sgjDA0N0dnZyeDgIHfdddeMHWPlEHwPhQ+Z8eW0LOuchjvRNRbWXaHfYHxDC/aLRqNFIlSIZVkkk8nwwTJb2LZddO0TnSvYprDdjKewvgLi8Xg4YDB+n+DeKWSy+6IUyhKOib7Mwpt5on5v4T4T3Rzj/57IATgRhceabL/gvdmasyKEoKmpifvvv/+cfmJhuSf7giYTgPFf8PjXMy1b4evAehsZGcFxHFpbW7njjjv4yEc+UtJxS2Wqcpd6fZM1qNne93yYyTlmKlzjra9y7onJRHbGxyinq2I4F9d1yWQyWJYVqv9kTOa4vFjk83kymUxoFQYeeINhphjhYOInu8FgmJzLYnbspWY2nIEGw7uZq144jMFlMJSO6aoYDIaSueotDoPBUDpGOAwGQ8kY4TAYDCVjhMNgMJSMEQ6DwVAyRjgMBkPJGOEwGAwlY4TDYDCUjBEOg8FQMpfFEpBXJsECN4AWTBt+O9kGAsqdJWOm13hognysbjjj18w9ml2McJRIkK1LCOmrhkCj0XqaJEETCYfwGn8597g3U0Cfk8DmakMIicATbu97EbOakMjgYYSjBLTWnDx5kh//+CdoN4r/rAOhvJ+SDub/J8qbaKe1Rmk1q1nNLjSi4P9iNBoNKCY3zSY5ppBIIf0Mb5qKigo2b97MunXrZjWj19WOEY4ScF2XAwcO8PcPfJV8vrKgCQh0mZaxLz2+9VLivlrDdJbOZUOQZWqixqzQZIE06BIX+hYCIUD69V9RUcFf/dVfceONNxrLYxYxwlECuVyOnp4eckoj57RQ1bYC15ZYIgkiQcneivPqh/tdFHWFdFMECP8fAnRBXVkqRyxzApk6gnYzXrUIf9tp0ViWxM3n6OvtYXQ0FS70ZZg9jHCUgFKKVCqFEpJ46yKab/042YoItlsJJMvWgavHR6GRfldEBYlygYSbZpF9musSHdgi7+fAhOLOzST5WvEWazp88CBP/s+vyWSySGmFmd6Nk3R2MMJRAmHmdiGR0RqiFc1QGUPkoggtQZQpAOelG1eQ6AjPkYzQvkPTT+Wvo1zTmuT2G1aRmCT1qZz0OjW2FNhS8tsnf4MWAq2vJjG+NBjhKAsBKoJQMYSOI1TE63aU428Q5eU6LdcvcsnwL1EL7f2EXRZQ2gbhTn+ISR1Jnv9E4IvGBSu0YTKMcJSFQCNxtYVibL1YIcszi8u+0S9CWv8LiTd2olCC0PIAENpBuxkcR8IE2dY920QjmFiYtRZAsL7PbF6BIcAIR5lowBHej22F4WDlHancm71Ma+XS4QmHDi/YG40SOEidBR33LbeC1cqgwLKaoKKE50Id28SYHBcDIxxl45vcwjO/CeMQSj5K+UUQV2YbCaROIxAaJAJZduhtsT9Da31+dWqYEUY4SsG/H4Uek4nghvccfWXesOUaDVeQEzAcJRESClyj3v+ewzkIv59s/OSKMq7e5RjhCPCix4NfBS8KPvcJTGNXgq29dzRqCufdFPjxDaUX98oQjDFEgVCM2RwgCjouk68Ra7i8MMIxjkmFY6JthRcH6QJahTGgZZ6wPK4kH8eYv6JQ9tTYaJSYwWRBw2WBEY4LgACEFOVZHAaAIjvEcPljhOMCUl48hhkFCLiSrKerHSMcFwAvH8SV6He4TND4YebifFzMhouImXdsuDwQouwAOsPFxwiH4bLA83H4wmG6LJc9RjgMlwWCKyt8/mrHCIfBYCgZIxwGg6FkJGXGLRkMhqsXY3EYDIaSMcJhMBhKxghHCUwa5WkmY50fwpv3Y+rxysEIx0zxE8ToMNOUBq3RSqOulEzjlyHe+jCieKmH8QIiZjClXo+9uNoXqboYGOGYCYV5L8LM2WM3qDBPy7II6lSDJ77aLZroVhiGPu2xAi9/EP8/7jxGSC4s3lwVE3czLWPBSQWBSmHOT1OBJVPQjsOs5BM0bm+JldJSnRmJmH2kuednQFEd+VYGYyHSpgrPAx3+Z7iCMF2VsjA3uuHqxgjHhcDMsTBcZRjhuBAYx5vhKsMIR1kIxmfONBiuJoxwzARd/DL08pthPsNVihGOGXKuQOgpPjMY3t0Y4ZgpU/k/jW4YrjKMcJSCADnZCIqxOgxXEUY4ZkLBamtCmCozGEwrmClBeLkJ2bioCEAYa+6yw6yrcsVzHitWX2boghB+ISRCgEQhwhXoC4e3jIhfSoxwXNGUO8Hu8hKNYMVYXTR50MtrKZXCk5SxSXDa3wY/vYEIPjdcNIxwlIPJ03pBCRp+YHForZFSMKciSVUyPhZsp4IVujWZbJah4RFyrosUwnRnLjJGOMriclGOy6EMF5Ix66kiGaelsYFkMuG9oTVjKVE02VwWgaKnrx+EjVnv++JihOOK590mHh7xWMwTjfDyCrOAae/zRBKh+8PPDRcPIxzgx5GPe09M8pHWKA0Sa9z25sa90EwaMoMYs0BMF+WSYIRjGsYLhwaU1ngj2cK/u80a67PGBOIhJskZbbh4mDiO88QbOrzUpbiKCJW8YIFqU/8XHSMchiuH0NIQwWhs8NclLNTViemqXOG8e8K/JidwYwTGRSAehkuHEY4CdMFvMcHflxvvjvCvaQhGvgtcScajdOkxXRWfQpHwIhOL3yt8EUYuGgxXKcbi8JnMqpj4/cvDBjFPXcOlwgjHFY4RD8OlwHRVDFcEpmd4eWGEw3BpCJIjTSUIvkN0ItEwOnJpMV0Vw0WkePq7FsFCmsUy4L2rx/4o/F28EUIUTjgURecI1vgVxly54BjhuECIWR0j9LKPednUdfH7/tqrWopxwz/TOXCLCzyWRKcg54XfpIX0s59pVTRDFYqb7LlnGJsqH2wjxsat0F7GjQn2nGL28QT1LIT266Fwf8NsYoTjAjFb0YsCkEJjSS8QylH+B1ojdRZb5MiJCoSw/aVexp7UQo816GI5UAghUf5kseAcGuELg/AybwkFWiC0C0i0sHyBVKD9zFwqj9IO0o77toNAYflnUkg3i9IaYcUAgRYFNWUCMq5YjHBcUjQIPfZ014BQaF+GIsqlhjSLWy2uXzqfkx05duwfABSNFYqbls9hJKbZ/U6Eru4UQrgIBQqLoPFHlIsS4EgJIo+lFAl7hHgkwmC2AoWiRrpUylF60pK8PYeIsKmPZBEyy3Dapq0px7xrFvDaMUXfQAotXAQOUWBBY4Q51RavHx0hGYkjpaYnFUVbEaIyx/K5ikhFgtePZFDCRskoEEWLPOCCLzK6DOGd1kdimDWMc/QCcT6h31qArbMk9QBRPYLEQWqXuBqmvbaf226qoS4J8UgMqRX1lXDrmjlsuKGWnBVDuYq4TlOl+6lkiIRKI4WDa7lEdJZKJ03CyRLVLnPUCDc2ZPng6mrmJbLEybC4wea2lXFqdS/VapDGWIZNSxNsXpakSqW5Jq65rqWaingMiZdty9JpYnKQZddY3LKiigrZx5Jmh03Lk1SIYSI6TVQMcn2zw+brqqnUI1SQJqpz/uxWSeCPCJL/lTxFXsyepfidTjoAABd0SURBVGeYGmNxXFIEUkhs5dASTbGoWZBVFkdPu4zmodIaYsHcHLW11fxg+wn60rXkydBcD0uWzGXfiWO8tFtCWnFNtIfrGm1iNfX0ORFePdSLkxO017gsaqgkI+BI1wBVIscHljeycHELjtvL6cEMSxprWFyb5sCbJ6mst4nGYFn7XJSVpXswS0O9zdnuboYHXeIqR11FjkWt1VTH0ixtdKmIuDTVCjasnMuieTGc3CBnBjR9fS5JmWZRk2DzmgT9AzlOdmXoy9qMep0h38qaIGtoYR9LnPu3UhoVpBI06b8uOkY4LiFCCCwEzYkIH7ihkfbFMUbSLtfV59mxt5u2lgTXNlVQaUNdtYuy08yN51g5L0JTRHEk69KcjJJzB9l4XYIbF9ZypC9FNq2JMkJ7bYw7b24hKi20lCxqyPPyoS6SFXEi0SjJmlqibhpXJhBOlpva61hy3TX0D+dJxiSdI5pkdYzGhih9jiCXyZJQKZY0Ztm8qoXMSIolzZV09Q0St+Iko9XYlkPlnBgVboSRAZsokoqoxcL5tdywLMYbbw3zwt5RhFWJFnbo5xi/gHcul2c0nSEej3k5RcNK8wyTTDZLKpMBKdFGOy46RjguJVpjAa11CW5aUcmR06fRacH1y+bx8uEzVFgOth1HKQX5NAnt4MohHDdJkggREUOpYSyRpqqqnvrWFkbi3fR15JC2ZMnCOWxaNZ8zAxksyyJekeC/d/Xz1tkBYvOuYe+JNEd7cozUwfIVUW5es4imeVUMpBSn+jO8/c4gR06maY66zF0wDyFyxKWiMpajs3eAtw+OUCFtLEvS1yd5pyOFjNq8etihP2MRyWlcbdEzoHjj7QFuWdNCW2sF7p5+tLDQWAhcJAqpVcEavIKRVJZTHV3EYxGkkOckU8rmcoyOplBCFo3UGC4O9uUx6+LqRCNwFYiISzSu6D3ZjUhrrll0DcPRGg6cOUlV1Qix5naOdAjAIkecd6pj9OdcjnT0c3JAUu1avLa/n8ERh6YGmF+RoKU2ghSaXDbF8WMnGUjnODng0psRdA6nSOdyDPT3MTSo6Y9auNFK5jXNIavSVFQnoC/Lqa6z9A3lGByM0igWkrQ1Vl6hc5Ke7mHeOTVER1OSxpYqhnNRBkYVrqsZ6HcZyGrmSJusgMGc4uiZIRY2xUnOqcbBtxL8O8/SnniM1QvkHJeBoeGplz3Qwcp6CnMXX1yMcFxSNEooulNpOgcr2bi6nZGRPL1pyWA2zohbwaCbJk2EUWpRrk1exBgVCYaEYFBp8qKSSIWmoSlJZUWOhICYgJjK0NOX5HSfIhqLkk9JcsrF1S5D6SwWWe5aW8uxfkHOyTCcy+ICnSMuFUmNVHlqooqbNi7ghqYINXMj3LFhDqeOZ4haLuuWtlKfrKe9rYaeXJaMtMhpyfzqBPdubuVQt83JDkHGSpPFJk2EnAtVMo5lV/iuioLhYa3G1Y1AIacWDn/tFabeyjALmK7KRaQ4poLwr54Bxe9f6ef6VkHOgb1vniUzOkpcaE71wOhrp8m4ERQSJQRnB11e3j9I14CNtiSulYJolGhVjCFl0XUmzTv9CZJ2nP99pZ+WJo1MRLCGEwhLcKw7z3Ovn2bBvBrmJOMc63J5+a0Ug/2ddA2ksWxJenSQwYxEC8nJ3hyHBo4ympP0S8lAv6al20FLwdvHz3I27ZCVkne6Bth7oIdkRRVVVZW43TZHu9L05PpIqTiHTg7S1QOCmO8ULehiBEtsjquxqYZpBcqkOLhE2EapZxeB9gOxxoYe3YKFqzUWwznBy0ez7DuZRwroT1s42iIjKjnYHYPuDEpU+c/WCGcH4NnXcwznK9CWRX9KsvPgEHtOWihtM5KWDOTnYjuSvoOjJE9kSCQkmWycvIjSMVrDU/vz1BwbRNoZBlMCnYc3To6Szzm42sUVAiUq6dgzjK1dHOGS14JRnUTmk5x9eQCki5PPoK0ILjFO9uX5xa4REnGXtMgxlFb0qihWd4asG+etThdLpcjqKr+LocNGL/AWYYLiEPEgRkxrPe59kyT6UmIsjpkyzUNtsts3CObSQaBXcPMXJAVykIwoyWg24r3ntwmXGNmgiWjtz8uwyCnoVZa3fKqCvK6iJ6sgGzyhPYHKaxiSCYbzCcj7YRICHJI4DqSGvRJoLQCbETd46mtvYy3IZAqv0JM+dISO4H0RR+e9MioidOcSkAuatE2GOQjH23SUmjC7cxB+Hjg2pRDIUEQKqkiIsYIXfBVeMbVXL1N/NYZZwAhHuQgHLVw0CkLHnhdyrYXyR0wUEe0SU1mk5RKvqCASr6YvoxkZTZ1zyMnFh3OES4/bYWzOR3HjA8Iw8vFn0ROMYeqiIKzJPGBj3gm0DsWq8PxjexbOfhn7DCiaXyKEwJLSW8qxQFzHT3YTxil3WWCEoxyECzIFIocgBlr61gAECybbyiFOirpYmvnN1TQ01jOaiXK6V9KbypVwslJN8SnlZ5r3pttm4u3FJNtMVhIx0SshiMXjVCdi5B2HbDaLcpVnOwVxXtMczXDxMMJRJkKDpUFoiSaKRGPLHBGVJqJHmFshWTx/LjKhyegKutIwMAxnBjKkMvlLXfzLCE8OXOXiOHmEiJOIJ0gkEuRzObK5HPlcHuWPuoRGkumiXFJsU/lloAUiHyHiaiIqhRRgqzxzEhkWz6tkXt08RrKCtIjSNazoHcjR059F6yha22iMcACe+vqpArTSZNJZhoUgEo0Qj8eJRCLEYjEc1yWTTpPOZsOulADjF72EGIujBLT/j2CSFwMkbcGcurk0zq2lMp4gnbHpchN0Dmc50zfIcCaPFFHQEYTSCO3iShjnhZj6vJNM/po0Qc0lGmyYyWkLS6z8dzQCISRCShzXIZ9yyGSzoXDYtk1FZSUVlZXk8nky6Qz5fG5snCqsH+15iw2zjhGOUtCgXIUlNfXVitXL62honkMqX0XaTXBmZISTnWnS2TSuchEIJBZaKVB50DlAI7SFKJqYXOglLPD+6bGxjJkQCkmBOT/DHcddZ/HMkSKJE4KJku8EIz8URISO/xwdzFfzR2cQuFLhSoG2LYSUaO27m10XVymyuRy2ZRGPx4jHYkQsSaQyidZJsvksmXQaJ5vBcZygFBi/x+xjhGOmaLAjNqtXr+b//b//j34aWHBDO8nqCrr7LboHc0CM5dfGCAYGxrJlBaMg3grryvWzeQnQKlh13bMsXNdBaY0u+BlbmV2hXUXeUSjXO4e0vHgIrQKLKDiPRitVMPriHUMrjdIapQMLoWhopiCzl3/OcNzYO5bSFnkiE1aRQPvbWZNUokJr5YuIP1NFuNjuCCgXrV0UIozZ0P5155RL3skxOjqCZdlEo1FsOwJakIjHkMk4zS3XMLdhHmc6To+V2TBrGOGYCV4EErZl0bZgAR/92MfYdyrL62fPMnh4CORcHC2QUmNLOfYAF2OioYOnuHAhki0SDuUqgptdW4SvhQiO5aXzkkojHI1SXuCYbVkkkjGEkJ4A+aeV0kJastgP4A+bescUYaSmlBLLEkh/Y6nA0srL+iUEliWxZBDaDUoJHGUXZxoL1mYUXrdBqeIhEOEHXuS1wlFuuJ8rBXmhqXIqWFGlmNdQTcQSBXNQJkYIgZACSwiiEQs7EmHjpk0kEzF27niehQvaJu3eGS4MRjhKIJ93eH3vXn748KMkrllHzebbqKmv4nSn4NSpIbLKxbIsVIGlHDy5Q6ee0EjLn5Sl8a0L5ef0FAgpw2nkQga9CO2vm+oZ+V67V1iWIJJxKExm432mkZbGkuMbn+cDsCzLO4cQCAlSevsINJZ2scghtdfApRTe5wiEFkgtvW5XAVJKL+pTaFyl8HctKJMnUEprnGA0RGhcS6CkS8TJko0plOsihOV3dc71VYQWHIASfpfGIQbE43Hi8TjpTJZ02uu6jI82NVw4jHDMBP+p7yqXEydO8NPHfkbDGpcNC99D0zUxEtVxVi2vYXg0x7EzQ/Rl8rhKIO0ojusGB/DQAoEFyLGuSvgZiKLGrrzZGFqNBUCFLsXJXZGeSLleztDiT/xulAguaaw7ogGh0cJBi5zvhdD+RxqhBUJLpJbjPBy+APkh5K52xyUO9i0nZOjfCDtVQiNEnkqnH5qytCUhGbO9Y2k9FgcWRox5YiulJBaPeSMujsIZHmHv63v5/vf+jZdffJFP3v+JUDCMeMwORjhKIHxyCsFgVnDgeJbjvcPMnRNhYXUVFXHJjcsqcGWEY6fSnO5Oe/k/hYUqyDURJAUOQtHD0NAg3Ntv8Fr7TkS/GxDGoiP919ONxkz+/vjI07HPJBrbi371iwXe6bzyCFRRJGrBa6HRYcbxCT5HIJUvmJ7HBK1tIjqDqx1cP6uXlL5LuKCbJYQgGo2RiMexLAvQKKVw8nky2TSHDh3irTffJJVKed0ry/OzGNGYHYxwlIuUCFlFJqs51ZvlbF+KqgqbaxoqSEQBR9NcI2lvr2dgKMeJ010MjmTJaxsl4gjhJRQOLA9PCGQ48kDB8xmCz4P3vQYKIIL3xdjWfmQE5TkJPctiqpRaerKRCz3V535guvBtmWD0SHgzcLWQFK6wEjT+aCSKbdvk8zlc13Oguq4mm82QzebQygv7d5WLCpIBGbGYdYxwlIX3tIQIghgOFTg4ZFMweCyLVCmQirpqm+FUnpgtuXFpPZbtcPys4tDpLLl8HiFtv+EXziPxBaSgnz9OQooYayNjwhIMdk42LBmOvkxKuUOa0+3ni5m/WcHAM77/FCkl8YQXOYoGpTwxcJUim8+RzXvh+sH7wu9OjdWgntzUMlwwjHCUi+/kE0JgaxE6P7VWKK3Ja0nnkKLnzSGqklFa5yaorbKIRBTxpE1uMAXaH0rVvjCEvY+xGz+MTJi2Heui11NtLgq7ASUyvejM6CBBQYqwpCQejxOLRnHyDo4z9qO0DrJvjO0sPHHVgaWhvB+jG7OPEY5SmKDvLnznoOfpx4+hCIxugaOgf9RhYHSYiFDE4wJHW6D93FUi8L2OD7kqt6sx033Ka13Te1bKxRMCpTWZbJZcNutnMfc4p+oL9xTjl5E0yjHbGOHwEeN+T/Ze8V9e/EWYvk5rQBYvSVgQy5HTFrmUQpDH39LzJRT1VPS4VhJYMpM3hqKFiXTg55id0OsL0iQn7NF4zs5cLocQgQO28KzTmFyi8KDGxzHbGOEAEOObKX4Q0tgt68eAecOpWvgRkgqNUzAqEkRdiom7FgUjK2NZKoLREt/C0OeUZFqCYdPZtAfOn3EWQcFw65g4glIgLX+0iUIBnkg8/G2C4WBRet0ZysMIx0wpDD5Cg3K9bglqLFag4L4OB0oofFtM8jAc3yiKfRwlF/Kyo/jaCkVT+PEcnjAXl39MCycWxEKnsRCBWLteqL1xdMwqZlp9OYTuB290RekgX6Yee3uiij1nBGTCD9+1eEIQiMAko0TjXo312iarH3/RbBQSF7TXfTTCMbsY4bgAnDPOMGmljneAXnmcX2egQAyCF6EoiDA031uftmBDMdn5/K4KILzpcWWVylA6pqtSLuPafblPuCtxxfWyojF1QceiaH9vNGWsqyKCdwv2ZVLxCIerjWhcVIxwlMMEowIiGCEp51gX+54XnMdJvess+UoLeidFFpoYsxmCWLgJSzbVwIrRjIuOEY7zJgjwLlMBLsFNP6XLYFp02ZcptPLqSfviUdDvCUasDFcGRjjKQbvYzgC1znFskSCjNI6MX4iYyouCmHDVtBnuqx2EKiVLe/F5EdbYyBQghCbuppCOP7EPhcC6Qmry6sUIR4kIICJc2pK9vHfBEEJkySiLtHAvgaui3OjSYOhy4hJrrcOs4ufg5iCfLuOMeL4MGczDAfCSFKtchrnxxARpAGaKkZmLjRGOUtFga80c4dIay7Fo0UIcbBy0PxR4MeVjNqJDCwLTJvxYg1teKLzXPSmoI6FxlcPoyAi2ENiWC0IVpxMo4ty61UG3x4jHRcUIRzkISc7RDA8NMGdOBYiIF0GqxlZ0uzD9dV0cADU+Q875HHeKhlbkhzxn/NVPRFTqKFLokC10jHqJg0aSFpl0Bkt4q+JNtMLcFTf09C7HCEeJaMBFkRMuSuZxRB5LehNShAwa3YV8+gUhq94TWyg9Np28zECnc4dEzz2nlsEZiodQhR8tW0479qcEjnvTS5fohYyXfszyu2uG88EIRxkEWciRQYI9b1hA+6nDi7KDT8WMQzi8Y1lCUFmZJBGPI8Pzlt5dCdeSnaCIGk0un2M0lSLrOmhpFQ3fFk0dKYUpo2ZnuHtR/FzgXBUXzhAzzBgjHGVROCkleBL7HocSbuIwG+B0aE3Etpk3t545VUnisVgYg1l2aPVko6pak3ccMukMQyOjdPcPFiypzdirMkNWzgcx/i8BqAntGMMsY4SjVHz3RZgez58WL4RCaFl6N2WScMjg+S6FBiWJ2hHqa+eQjNtFT9jyxlSYsBUHGhSNRalIJpHSoq9/MJwvMpZL9FJErZ1LKBeXvihXHUY4SsCbAOvdpSroWqswIsGbbh82sPIZm9gVnBikEFjSKm70Ew08nAdi3B+iPMPCcBVghGOmiILfQqCDRYf8ldbQli8qEzn5Soy29H0kQoDQ0kvCi0b4DstwfumFbtWFx9OFb042S8RwtWKEY8bo4ld63ASrcdM5ixq1HksfPBNCjSoYFw2WV5hNq7zo2MLPbzbb+uCHmgdrr1y4oWzDbGKEowxCwdBjf0utvftdja3KVkxpTT5wnE6216y35/KmpJSEEAXdPBFElE4wg9Bw2WGEo2xEaG2IYFnDoIsxoXlf5swwP5+e1GOZy6eaKHo+FJY60L1gjdtLzXhrqOCX4RJghKMUAnUIeiVhMKcOfQ4X8ikdDLkGP0q5aG0VnWe2BERoxhbKDooxfrvzudggGJaZX4MOndOFyz+YIZVLweRLghumJFh/NYzgnCqE+7zS2AkQEsd1GB4ZHltP9TyOOM3Z0Bpy+TypVHrSzkNgZZX9o32bTY/L9jVpuTT+MtP+74KdTATYRcdYHGUgCpuSHhOR0MzHk5Jy7+fx7hGNIO8ourt6yaYzWJYVStW5T+tC58Qk2dYnYGzhaFDKJZVKMzQ86h9yTBanmlVbMjqoqUk+Dk+lfeEIsp6IMDpXhAJixONiYoSjTLzkxIyNehTcuAJ1Xs7FQHAKm5TWMJpKk8lkkJbfcMYLTNB98ksx8ziMIIjN7xxpjZN3cJXy1sgtjMwsCqfXxccolYkssaJo2oLzhF1C7U+CCyrp8vDBXG0Y4SgH/0bNZDP0D/QjpRXOjA3ngZQeQ+ofeiyqbJpn8aRHkIGlIWYWih3OrdHj359pozyPlisglU6TyWZx8y6WbSOkFYqYQI35W7TrF8z7L7D0UA6jo6NFwmeYXYxwlEC4PqxS9PX18fxzz/PGG2+gtMYWhKb++Z1jTHLKySgWrjOCF2064/OGT/CST3leCClwlIvWEIslQEqklMWNX+ux9WG1QGiNl9fDC/G3BJzpOE06XXqCIUN5GOEoASEE0WgEJ5+nq7ODwf4+lPJuaikE0rr0vmat8RvWlTLxS4T+FSG9Ob9CnGs16GBoetxQt0D7QuMyOjpafOQLHlprCDDCMY5JA6yFIBqN0tDQQDKRBCFxHdd/CmocNMK92KUdR+gKCMKqrgDGPKDhGxOF05/7nRT6WTwrJWJHaWiYx8KFC4lGo7NSXIOH0KZDeA4KkP7DzTOIPbTWnD17lt/+9nfefBXfA6q0wnVcXPdSKwehI/Pd5zPU/nqyHt56NN61SksiLc8vUllZyQ03XM9111136Yp6FWCEYxzBwF4gFoXCMek+GpRSKDU7K8SXwpXSQSmdMSUUhf/7GduFfLde9+WJEY5xjI/InDK8ezbDN8+Hq+Ebvdzq/CrDCIfBYCiZSz8MYDAYrjiMcBgMhpIxwmEwGErGCIfBYCgZIxwGg6FkjHAYDIaSMcJhMBhKxgiHwWAoGSMcBoOhZIxwGAyGkjHCYTAYSub/B0gE8hL/HCsLAAAAAElFTkSuQmCC;movable=0;resizable=0;rotatable=0;deletable=0;editable=0;connectable=0;" parent="1" vertex="1">
                    <mxGeometry x="191.001064453125" y="-8.996687011718748" width="270" height="166" as="geometry"/>
                </mxCell>
                <mxCell id="6" value="没有border和滚动条的话,&lt;br&gt;和clientWidth尺寸一样" style="text;html=1;align=center;verticalAlign=middle;resizable=0;points=[];autosize=1;strokeColor=none;fillColor=none;movable=0;rotatable=0;deletable=0;editable=0;connectable=0;" parent="1" vertex="1">
                    <mxGeometry x="241.5" y="181" width="152" height="41" as="geometry"/>
                </mxCell>
                <mxCell id="7" value="clientWidth" style="text;whiteSpace=wrap;html=1;movable=0;resizable=0;rotatable=0;deletable=0;editable=0;connectable=0;" parent="1" vertex="1">
                    <mxGeometry x="58.001064453125" y="-3.0033740234375017" width="87" height="36" as="geometry"/>
                </mxCell>
                <mxCell id="8" value="offsetWidth" style="text;whiteSpace=wrap;html=1;movable=0;resizable=0;rotatable=0;deletable=0;editable=0;connectable=0;" parent="1" vertex="1">
                    <mxGeometry x="259.001064453125" y="-86.0033740234375" width="88" height="36" as="geometry"/>
                </mxCell>
                <mxCell id="9" value="" style="shape=image;verticalLabelPosition=bottom;labelBackgroundColor=default;verticalAlign=top;aspect=fixed;imageAspect=0;image=data:image/png,iVBORw0KGgoAAAANSUhEUgAAAOYAAADwCAYAAAAU5Rg9AAAgAElEQVR4nO2dWZAk1Xnvfyeztq7uru7qbZbunpXZmPGAGNCAdSWEjHS1ogUpjO3wJgdhvTn8ZIflsAi/OOBBEYRwQIQUKLxhYWyLQJZBcEEgiRlgALHNImD27ul9X2rJynPuQ2ZWZVVX9TpdlT11fkQzVVm5njz/833nO5tQSik0Gk2gMGp9AxqNZiFamBpNANHC1GgCiBamRhNAtDA1mgCihanRBBAtTI0mgGhhajQBRAtTowkgWpgaTQDRwtRoAogWpkYTQLQwNZoAooWp0QQQLUxNzVFKoUcfFnPNC1MphZRyVceVZpalMlAQM9hqn38551zNs1ZKo9Lt5b7XE6Fa38B6Mjc3x6uvvsrY2Bh33303hrH8cmhoaIiXX36Zz3zmMzQ3NyOlZGBggNOnT3PnnXfm91NKMTIywvPPP4+UEsMw6Onp4eMf//h6PNKKsCyL06dPc/LkSW6++Wb27NlzVc579uxZXnnlFQ4cOMCRI0eWfdzU1BRvv/02qVSK2267jUQiwejoKO+++y5NTU0cOXIEIUR+/4sXL/LWW28xNzdHb28vH/nIR2hubr4qzxB0rmmLOTExwaOPPsoDDzxANptd9nFKKc6ePcs//MM/MDw8DICUkpMnT/K9732vaF8hBKOjozz55JP88Ic/5K/+6q/4l3/5l6v6HKsllUrxwgsv8Hd/93e8+OKLV+28J06c4G/+5m/4yU9+sqLjBgcH+ad/+icefvhhrly5AsD58+d5+OGHeeKJJ4osuxCC/v5+nn76af7xH/+RRx99lJGRkav2DEFnQ1pMpRTz8/MMDg6ye/duALLZLFeuXMGyLLZt20Z/fz+XL18mmUxy4403Fh1v2zZjY2NcunSJVCpFPB5nx44dtLe3Mzc3x9mzZxkeHubw4cPEYjHAEeb8/DzDw8OcPXuWgYEBurq62LlzJz09PfzlX/4lb7zxBn/7t3/L3Nzcgnuen5/n0qVLjIyM0NHRwf79+4usw2JcunSJEydOcNttt7F169Zlpc/U1BTvv/8+ADfccAOtra3536anp5mamiISiXDhwgWSySR79+4lnU4zODiIaZr09vYihGBycpIrV67Q3t5Oa2srIyMjpFIpbrjhBnp6elBKIYTIv5O+vj6Gh4eRUpJMJunt7SUWizEyMsKFCxdIJBIkk0nC4TDgWPWpqSlGRkY4ffo0lmWxc+dOkskk+/bt49577+Xxxx/n0qVL2La94FlHRkY4d+4cANu3b2fTpk3LTtcgsyGFCU7p+8gjj/Cd73yHpqYmRkZGePjhh2lqauLP//zP+a//+i/ef/99LMti69athELOo1qWxZkzZ3jsscc4c+YMUkq6u7v5wz/8Q2699Vb6+vp46KGHkFKyefNmGhsb89dUSnHlyhUefPBB+vr6SCaTfOlLX+Kuu+7i6NGjWJZFKBRaUB8aGxvjZz/7Gc899xxDQ0Ns376dP/7jP+bo0aPLykTvvfce999/Pw888MCyhCml5PTp0/zwhz/Esix6enro7OzM//bOO+/w5JNP0tbWxokTJ9i2bRv33nsvXV1dPPfcc4yOjvJnf/ZntLe38/rrr/PTn/6Ur3zlK+zdu5dnn32WY8eO0d3dTWdnZ16U6XSa48eP89hjjzE0NEQoFOLQoUPcc889JJNJfvazn/HGG2+QTqc5cOBAvsDz0vXdd9/le9/7HqlUiqNHj/KFL3yB7du309HRwYkTJ7h06dKCtBoeHubHP/4xTz/9NEIIrr/+er761a9y8803L5lGQWdDurJCCObm5vjv//5vXnvttXz974knnshnira2Ntra2hgYGOC5557Li2V0dJQf/OAHPProo2zevJnDhw+zZ88eEokEAJFIhC1btiCl5NlnnyWVShVdO5PJkM1muf766/nggw948MEHGRoaqigw27Y5deoUDz30EGNjYxw6dIipqSm+//3vk8lkFn3OK1eu8KMf/YiXXnqJ8fFxXnjhBR577DFeeumlJdOooaGBTZs2MTk5yU9/+tO8VbFtm7Nnz/Lv//7vvPvuu+zcuZOBgQGeeuopGhoamJmZ4T//8z95/fXXGR8f56WXXuLtt98mkUgQCoVoaWlhZmaGZ555hlOnTuWvNzQ0xPPPP8+FCxc4fPgwN998M9dddx2JRIJwOEwymaStrY2+vj5+9atfMTMzU3S/09PThEIhLMvikUce4emnny4bfPN/fu2113jxxRfp6elh69atvPDCCzz++ONlPZaNxoa1mKFQCCklTz75JEePHuX06dOEw2G+8pWv0NbWxje/+U0mJib4wQ9+wBNPPJEP/GSzWQYHB4nH4xw4cIA9e/Zwxx135EvwnTt3ct9993Hs2DH+4i/+oigzCCHYvn079913H4lEgv3793P//fdz8uRJtmzZkt/PiygKIUin07z//vsMDw/zB3/wB9x0000cP36cp556ilQqVWQ5Sunr6+PRRx9leHiYkZERnn76aY4dO8att97K7bffXvE40zS58cYbOXToED/60Y947733iu7L8xK++c1v8vGPf5zHH3+cV155haamJvbu3Ytt2xw/fpzW1lZeeeUVdu7cyb59+4jH43zta18DyJ/TS5d0Ok06nWbz5s0cPHiQAwcOsH//fhoaGhBC8PWvf53PfOYzPPTQQxw7dqwoXaWUHDlyhG9/+9ucPn2a73znO/zmN79ZkPb+wk9KyYcffoht29x9991ks1lmZ2c5e/YsFy9e5Prrr188AwWcDSvMRCLBkSNHePPNN+nr6+Opp56io6OD3/7t3wYKL9JztbyX2tXVxbe+9S0AHnnkETZv3kxfXx+f/vSn2bFjR/785SygEIJYLEZXVxdCCHp6erAsi+Hh4YqZKJ1OMzIywuzsLL/4xS/49a9/zejoKG1tbUs2Y/T29nLvvffy+uuv88QTT/CFL3yBgwcPFhUCS+FPBz+bNm3ihhtuIBqN0tDQgGVZGIbBvn37OHLkCKdPn6a7u5v+/n7uuusuGhoaitKlNMLteR/f//73eeCBB9i3bx9f+tKX+NSnPkV3d3f+WMMwFtyLEIJEIkF7ezu9vb3s2bOHXC4HVG4msW2bTCbDmTNn+Nd//VeklFy+fJn29vYF1ngjsmGF2dHRwe///u/z13/91/zbv/0b7733Hn/0R39EQ0MDSilyuRy2beczv2VZmKaZF9S3v/1tXnzxRU6cOMHf//3fY5omf/qnf5o/JpfLoZTCsqyioIN37sHBQX7+858TiUTyGc80TSKRCDMzM4yNjQEQjUbp7OwklUpx7tw5Pvaxj7Fjxw6SySTxeHzRZ9yyZQvf+MY3aGpq4pe//CWf+tSn+MQnPrGs9PGewWtvtG2bXC6XF6lpmoTD4Xyh5Yll27ZtfPKTn+TRRx/lueeeY/fu3dx5550IIfLn9NJDSollWQghiEQi3HbbbSSTSV577TWeeeYZ7r//fkzT5J577kFKSTabxbKs/HHeeTyx5nI5zp8/z6VLl4rq3/F4nEwmkw8eSSlpa2vLp/XMzAyHDh3KB+J6enqWm40Ci3nffffdV+ubWA2hUIhYLMbLL7/MT37yEzo6Ovjud79LY2MjY2Nj/PM//zOvvfYax48f59y5c8RiMcbGxmhsbOTBBx/kwoULhEIhZmZmGBwc5POf/zw7duzgtdde43/+5384duwYb775JqZpMjQ0RE9PD319ffz4xz8G4Omnn+bZZ5/ls5/9LPfccw/RaJS5uTneeecdzpw5w+zsLJcvX+bo0aM0NDRw7tw5+vv72bZtG62trcRiMY4ePbqsttVcLkc0GuWWW26hra1tyf2HhoZ45plneOGFF3j55Zc5deoUQgji8Ti7du3i5MmTnDlzhi9/+cvEYjFOnz7N2bNnueuuu/JVhBMnTvD666/zxS9+kbvvvhulFGfOnOHxxx/n2LFjvPvuu/no9uzsLEIInn/+eYaGhrAsi4GBAQzD4PbbbycUCvHkk09y/Phxjh8/zsWLF/MFZSgU4sUXX6S/v5/Z2VleeOEFstks99xzD7t378YwDLLZLG+99RavvvoqH3zwAVNTUxw+fBgpJefOnWN+fp4dO3ZgGAa7du3ipptu2vCR2Q0rTHACNZs2bSIej3P77bdzxx13IIRgYmKC//3f/2VqaoqWlhb279/PzMwM8XicPXv28Otf/5rJyUkmJiYIh8N87nOf4+6770ZKyZkzZ3jjjTdQSrF//35SqRRKKQ4fPkwkEmF6epqxsTGUUtxxxx38yZ/8ST7iGYvF2Lx5M+C0ISaTSW655Rba29s5ePBg3tpOT0/T0dHBLbfcsixhdnZ2cuutty5LlOAEuDwBRKNRDh48SDwep7m5mRtuuIFcLkdLSws33XQT4XCYbDZLU1MThw8fBpzAUUtLC93d3dx5551s27YNpRTnz5/nF7/4BeFwmAMHDtDa2srExES+WeTUqVOcO3eOVCpFb28v3/jGN/j85z9Pf38/x48fZ2xsjGQyyc6dO8lms3R0dLB3714AwuEwk5OTdHZ28nu/93vccccdmKYJQDKZpLGxkcHBQbLZLLt27eLAgQP09vbS1dXF2NgY09PTzM3NsW3bNvbt27eiziRBRNTjEgneI3v/Lvcl+ru3efWlxfbzMtZyf9voSCmRUuZd4+WkqxeQ8v4Mw1g0XUtdb++6pds3usWsS2FqNEFnY9t7jeYaRQtTowkgWpgaTQDRwtRoAogWpkYTQLQwNZoAooWp0QQQLUyNJoBoYWo0AUQLU6MJIFqYGk0A2bDjMWvHarsWb+xO1ZrqsqGFqVYtktUj1nzNagt0vdJoAxQ0pY++xC2rpXepGtUX5goTayWnqg61enWrfdr1SKXlpMFarnuV0niFp/EKehEAeVZdmDnvmd3iyQAMBWoViXh1J/6vFkES2GpZ6l7UMvapRC1EIQDlXlnkLWct5VlVYeYUnJ2yeOdUP1IIhMD5k4BQqKJYlFrUbVSAqsFg2CDJo3ast8WsJgKUgalsdm9p4sC2NiJGnVnMrIS3h3N872eXyQkTDBMpQCnypZUfsahNFCixwYLKYqNk1qUQK3dxVkQ108l5lrBM87XbNrOzp51oALJVVYWpFMwrk8lQB1KYSGG6Lm0lr35xZ1VutNYesUoXb11FsAoESxcya7rnaj6vQAhJRMyTFrH826l1ile3jinAFgIpTBQmnj+/weS1etYU9qt1VvFRcHEqUOsa2spREKhbrmlziVBLhQkClFJXi6BZv1UhNk4VclkEryCpoTAL5qN+hHktPc+18SyOJJ3/ryWWfLXZ0B0MNJq1EhQhlqKFqalzgilNLUxNnRNMl1wLU1PnaIup0QSQYFrMumlCvBqokn+ry8oyUBA6YmtWTw2F6XQc3kgoodw+utW+svC1tC2dZmKN7Yz1J2m3Q2iAsmONhOllswClxDLxRLm+d158dq8H3PIFo5bR/c8/zKeecYdKBCwZtCu7IgrSuNpWU5T8FaNWIE6fKCvu7HPKhX+rAqkC2A+m/tDBnxXg2XiBQigTQynXvXXH8inhfneGtDl9Sm2EMlEYCKUQSJQwkMJGYSKUwEASVha9zZLf2t3JxEyKExcnSckmWuMm1/fEaTIlH44qzg/PElMZmkPzzJtNzFsRTJmjxZzGCEmmrASdrTF2dEV5+1KKmZRCCccqRA3F9vYQrY2CN8/PERGCuJEmZUdIizhRkaa3RdLa3s67l7NkLCv/zEEa3V8PaIu5TDx3xxEShIRNlHka1CwxOY+BxCBHWKWJMEeIFAYKgywRlSKs0oRJE1MpDCxMLMIqRUjMg7AwsGlrsPnEvghfvjFCizmOQBEJGxzojvKlGyMc2JlACEF7xOL/7LS48boIETVHWzTD0V0Gt+5WRMUM21ptbtufoCkew8AZPhcSaRKheT66zeBzh6I0MM72FotP7g6zo2mOEFkajDk+smWe/3s4Tks4Q4QUJrZjgDf4QrAbDW0xl4kSjsUwFISkpKNhkv2bDZrCISZTBieuZGi0J9nSmGXz5mZyhDk/KpDSYne7iZVNg4CGqODDwWkyGdjRBfFEI/0zgrPDcHYqzKvvj/Gx6xsR2CgkYzM275wb47qEIhzeDAii0RD7drRxoKuNzMQoTZEohw5sJ6tSvHOln63tMDI+z3xaYUqbVmOa7tYU3V1xehNpEpEw3c0Wdxxs4KM72+h4/zKh/gwjYxaNYZPtzVmO9EwxMQtnBlLMyiRIcW30v98gbBhhFtzI2tbTDWw6GxVfvDHJ9VtjDE/nOD8O71wZY39ygo8f2UaktYOQgrPDGd47m+bOQ50k4zlG0woVNrluYJjB/kluvqEHJeJYZpin3prn9Lk5hiez5GjMW+icLZmeTZPJhJzZHmxIWznmZrIcPRij9aZOJqazxEOCi9M5GpsS7NzchpVKk83OE1Zz7E3O8ju3bCKWbGVrg8nELDQ3NbFtc5KWlhDdm1rozhlMT2YJKehsjXLkQCvpqQwNkRTHz6WRxIMWH7mm0a7sClCAFJKW1jC3fvQ62lsTXOgf4vylMRrDBjfubWfTddfzq/Nhjl00GUk1MDEXZXY+TFfXJt4fb+DMeAs79uzi6OEt5Jp7eeucTUej4P/8VicmuIPGJYIcoFDCwgBMZYAAKRRpK8vMzAxd0Rg39W5mX3cLZi7Dxf5ZrkxF6B8z2NLeQjhkEhEZtneG6ezZycn+KHOyESkFQ5MGp/oEQ7OK0305TvYZZNIglWA8F+PUQJRUSnFoTyeILFLLsqpsGItZ28b9QhuiwmBkDn5+coK9HRF6NjcTCeWYzEq6u3oZnMhw7M0hpIgikSRDJsMzs4xMh/l/Jy5DYxfSivLp69r55WWLd84Msq1ZkdhxiIiQCNvGlIIoYCrpuI/KQCkw3ECTbUssK0tYWYQaBJuiCYYujDEymmJ2JsLg6AyHu5MIpYiFwsRjYUansvzqrSHazFZ2tIeYSuW4NJbihlQDQ6Mz9I9YtNg5cirM0KTF62emuKkrzY5kEikE0glf1Sj1648NI8xaI/JD3E2UrcjM2eQ64xw+eD1Tk9M8/8FphkamOXhDF1+9pZ10LsJoJoU1meVAb4L2xjAHtzdy/OwUvz5p8FuNEQ53JWi6sZOtnTlOz1jYhsJSIZqbmvjcTbv4zXiMd/rmyVoWuXSOG7eESd3UyshEmow1Sy5jMZXOEoonaIiahFSOwz0mH93VSG+Lye8cbGV4TKKYZ0cywmc/0sb+LVHSmSwKxYwlsc0Ytx7owoobXLycISdsJJ53YAAGQqg1d1rQrAwtzBVhAopwKEd7Y5ZwZpgPzmU4PzDLaCbEi++PE2q+zK5OgRkNcWbIZmh6mtHJDBNT0NyQRZhZBqbi/OztPj5xY47OrY18MCX41cUp5mWYy9Nw4sI03VsbyYXmeH9whsn5EG+fn+LG5j4O9DYzlRFcuBLipyfOM56xicWamUtNMJmS9CTmyKVTnDkraI9GGAllONmfZvOFK2xKKPpGp7g0miUnw/SNZzh+ZoJDm3Ps6W7g0lCIC6PzpH8zwHwG+ics0hfGgJDb9yj4yvRmVlQb3LoLpVTVUnvOhh+dtfjuf1xw5/yRy5xQy8kUTvCnlj1WnGuHzSybmlJsThjMzqcZGreYpguDLA1imtY4JFpbGRjPkkllaDDnkFKQESbztIAdJyImaYmmiDc1MTIpmc81oVQYgxyJaIotSUEqY3FlykDKBhqZIpkAsyFB33gaMyeJiBRZTExhILDI2gnCRoaoMYuQBjnDJEMMOxcmEZ4nFoOZjI0ixnS22W3bTNHZmCPclKB/JEfYTqFMg7TdQFTMYYgcKdWKTSiQ06IUT1MsEcpwRCmWO0+/k/8ico57bm3lW5/qJhmqfZttwC2mV067whROO2LhZVRbnM71LDtM/5TBwCQoGtz8amDTgKUamJkFNStQREE0MZPrKOrrqjBIqzbSaSDt6/EjQBFiKtvM1JDvsgKm6GRyRsCMAiIIYF4l3dty49UC0qqRGbvdyai2OzevgNFco3tPIn9OgLQKc3kWmAUIkSEGtnOf86plAxhJZzo3pxbsPKtQAqW8CYs3JgEWpjddPW4dRxFGYhhpwqYga5lka3j7ChN7QbFa0s1cuEIQ7tZ8PXVlub3Q67UwueLC3rTlPrvHi8JEoMvvqO0TccUz1x4DhaEkErCF4esJUuMbWyO1ydn5/l0Cn/krRihAIoRNOGTTm4yxbXMLc6kprgyMMJprJqtWf/uV8ufa3mdJRi57kQozlxZtLndgpRlPK9+xcm9iNe2/paNoKt5WjWmOwK6uMOGGGJdHMoxN57DsxY4o37kwaDqu7oTP7v+UAIREuS6YEiEMqQiJFDE5T4OYozHZSnLLZqSwuXRxAsO0MSImKhtnLhvFUuGyiVkp75S+jkrVJU9MotwOSwQmF8+35S64nIFcBc+heLPnki5mPZXj5fq9jwVnrzDkaUklr02llYSgfPdU7tfip3Vm4zciIaIRk3jYJtIuSLY1oaw5hgaGmZo3ydCIEoZ7ZGlMo+Q5ROUisJpUfSZ2pxSXCCFQysZQYCiLqMiyJT7Jrm2biBiCyWwjNIXIZA2sXJwPr+Q4MzAJSqFIYCzRqlaabZz66bLvtPy5i/qMlmSQslctpliG/qJCLCMXlB/67K9nL9RWecsrfHss/OR+V5ULr+Ww+ICzxaVX8bKlZlsJpjKC189nMFWaiCFpT0aIRBSNDQYdsSaUMBgczjIwMsucHccyooDpe48L3QKnAKutDa3BMnxejSlHCIsmI01XUtG7pQMpQ9jRTqZUFx+O2oxdmSSXAWGHQEWckRr+Uy12nTLWrUQKlY9fdCyjV+L69xGICjLw3U6Z45YqKcpknqJ7LKBKopD5PFy6X76u6+3lCwb5lKh8m8tT+d4r2PhlHOkVJkud2/2cf08KWwgytsGVUYsrY2ma4lF2dG+iMyHZ0jVNb2eY2ZTN+eFZRueiWETzV6x9R8+FVF2YYSlpYYLOhGR7RxOxWJwsacIxkwsTjVw8cxllCywMTGFhKgNDGigBXsuOApCVAh6uXSpx8fIZTal8pvUyULENUUWxg0JeFfkvviCo/ygqLRKVj0f4fldur/jFnVkvmxq+Z/Rn+/LFlFqwvVTE7tlVyV5F97+YzXDq//59S++74mHemRf61L7SZEER47tJEKLwAAqBUEZJepjMzud478MJTAO62qPs7m4lEp5hTyzMDjtC/1iGsck0GdtAEsVAFEX8a01VhWkCvXHB796cZFubQTLZxIRq4vzYBP1D0/REDHr2hpCYzmtXhqsCNysoA+XWm4RU+dJfKS8DK6SUKAVSFtw8pRQ55dRplcL9t3CsVKCkdPd1RaNAKknOdw6kQEn3WLxzOb9JJZ2AvatCf91OKZCuVZWuZVKuSRci/4jkM5Yq/OM8penLzKVOs7cmmleH8lwF1wqUrjOiDN+VimudsugeXIeuKKd6klco/BGWgsURvgOKhZ9v9PL1oiroUXi37S8UfYWhEMJ99zJ/kJIFH6joPlUh7bBhfBjGhyXRiMnOzY10t+RobJ/DbDdJWyYXhueYmM5g0ETtnViHqi8qFG4IsX13Lzu3NtA3OMXF8wPMZCzC0Sgy0pCPIkrhJpHyZW7lZD6lFEKWiEPY4ApT5sXnic0VrPvGpKtcR5wCw/fCnfMbbp4u5BJvX0/QzrU9kXoCIv8ZvMziZn4hii2F+10U1XWc78KXaUFgCMOxmcInATcje2uM4i1J6F1TCaeZSRRqbc5uhRpU4f7cqxV9L6xf6ty/yh8jRPGywX5RCOF4Dn4/pOBWex9UIa299+xHieK0wzvEtdS+AqroWVTRKfIFnnJLCCUESIFpSnZ0trCjI06TEaJvLM2b50ZpjOUC04eiqsKUwOU5yZPHx9i2NcH81CQTV/ppbG6mqauJC302wzM2mZzz4kXJC0CY+Zdp+ETrnT2/v5ujHBfQyZiGM3bD/V78Ug3hZGLvMo6Fco4LGQU30pWScw6jkBMMIRxduLlDuAoSefEZzj3kXTDPShhF4hDeMX6r4woTRCGe6Om7oPkS17pQMBiGKj6fu18hNimcKUuE8m10RWX4nGLhF2oB7559t5Yfu1qwZ757c99RIRBY0FmhiuCzggLwPB1U3gyXxm4MpfKRdM/65gUJeS8njEVzxKI5mcCONzI2Pcs8NkQakUYov3+t9Vn15pKUDafOpzl1wcY0UsRDSXqaWkgYUbZ3zLGru43ROZuzV2YYn7UwpHBKOuUM1HWqltIRjjIo+DXOsn5+X8jv9IkFd+JtFUUvwrF8hu9XSlwv5Qs6+M/lfS73Wv2z3JUU7ctKtYJL5zvlgqcpt0XlLWZh0qnCM5Xej8/mi+Lz+O3awo4Hpd8XnK2w3Xs3ZYRZ9nxCgfK61Stk6W++9Bb5a3kFs3JiCkoSIkdXIsz2TWEyxjxDY2lkpIXh0Qx9Q7OksxZbE80rnPRs/ah+OyYgDScBcypGxooy1Zfjw4EJdnZJdnXP09GQIbrFJtSQZGjM5nzfBJYKkTPCKJEDpDOPTpG74y9CizMUJVvKulTeWVwXUPozs+/sxYIQRcvNL/ZSfWX30glVxAJzuMxj3E++IJko8vfKndBNqwVtow6qzL4Lt/vTwZsTyf3snJyFLmrxWUuLOsfjcHY08oUxTp1eeJZSIPPzLwmEBFPkSEQV2zbF6WgKIeQ8hAzGZhNcvjzD9Pw4NhEUMcLSDSJJKIq11YiaNJcUt/oJJCFSdogzAzYfDI2TCKXZ1hGjtylDuDXLjmQro/OS8wMWE6kMtjJRKuTM85E/kyetZWR8f6OmcOuKSEBgui2khu8O/af1hAvkh0d5LCXMtdVfViro4uKq4nlEwaItPHoxFumHmq9llPMqvO/lz+/8Ioq+SWHki8nSwkEo5504ZZdEKJu4Ab2dcbo7G5FyhpA5jxFu5LIaQDAAABEPSURBVPKwzaXheeatGFJEKLRYBm8sSqD6ytqEkCrBuBVn+orNyYExNjXlOLQnTrLJonUn2GaS/pEMl0dzzOWW6MWxXJSNmhslMz3mZgVzwS4Fd8tTqUIWt3+Uz+D5Y0Q+PlOZxe3t0ttLXEpV7NqX33cdhgI4lbrCxxJfdTERFApFBxsDaUSINbcQb05iq1DhDMKpW5rKxiRHslHQuylGa6OBqSwIKUan4eJgism0RVZGUDQChlOsCAlKum/7qqfCmqiqMJcqlRxXUqGE00FdijB9Mzb9vx6nNWaze2uMzrYI7QlFyrKZG1vDzCj5ZgMbJgcZf+U/yIyfc6fQMH1lqBved4MSylffWXDKipbHqwNVsuiV3Mu1luOlvon/viu7ss7Hxdzu8rbYQ/mEWdit+E4q9cISotDw49pApBmlbfdHab7hc8hIa+FXBWFDsaklxNaOKA1mhnBEkjPCfDAwy+WRaXIqDiRAeJF+7968dsug2UqHQFnMQj3E+WZIgcJEqQYmUorXz2UJX5ygqcEsRDhXjStqmUNOXWHy9R8j7ElkuA2irZC3mrbP8/KCMCWZNl/XLcltKn8gZaMchR0r3GO5OuFyg0crtb6LHbNSFOBYI6wZhDWJkLabaouL2nErle+bk4Y500Dt/QQq2lL0BFKAbYbIhRoYmZf0X5hjJmthqyiKWGHfEsfByHsyzrjgYNnLGglT+f4qvaLS8INCoFSUtA3pWWeb4dVzVlV588UM7QzIDGY4TvOO3ya852MgwvkyXngmUwnyghaFwJF3x0UWqaiO5T6R8NVtV3yfqxCmWlgrW7wQKP4sFqtHVjiN57YKITFz8/RGJjjQkSIsbTfu46Rh+cMd2Xp+kLRtTp16jxOvvYqws2BbC27BkoK+sSz9Yzl3W7zET9iYrLswKzl3q0m0hQZHlPy7EgoCElKhZA4RipPs2Uvzkc+SM3zubLmQbP40vtJd4FiJCndfXadJ+Kt63iYWTXnlS0+h3GBK5fOXO9xfmEWzkxzdkuZ3P9pJFNsNNAnffmXOqgqOci5n8cSPHuPEq8dxRm/bLCzO8/Ff/E8XTAd1+dRGmPk628oRi3xbPW5RoZzGfQMTrzPD0oeWNBuIhYGjWrLQ418kzYoKIDcOusIk9nZ3GjVMhCEImaGiEmJRZ1Z4sQacHk+GKD5WFTtIlcJfG9laQo3aMRcrMatO3r1a+zQUG72ULrC2t1OwuwsDSMtJI+H/U4WQWWDyTBXQEz5rAk89CdIjYFHZGlMpuqpZEaXdCtaSmkVV5Dpa2EhbzCKcCk71JvS8dlElf2s9lzMgoH7Qwsyj1agJDlUXZh15I3XNwgaNtaGDP+tNadOg5ppDlPxpVk7NXNkgv7B6KpmrwVredb2KW9cxy1GPOWEduJrdP+otVq6FqdEEEC1MjSaAaGGWoZ5cpqtPvcVP14fqN5e4/w/Wq1NFnxZORKWpJlraNbGY7qiFmkdY/Nf3dR4T5YqNtQwvqze8oc4ShVy1wkpHkPinrlxXAvKKqy5MZ/xwEILg5ZrA/cOKy/1e63veKKjCCCK1Mm36rWWhS5/v0zq+giBZ6upbzPyUDpprncKivStEZw8d/NGsL0GxQBsNLUyNJoBoYWo0AUQLU7NhCMpKXNVAC1MTKJacyK9aN1JjtDA1gaOODGNFtDA1mgCihanRBBAtTI0mgGhhajQBRAtTs67oQM7q0MLUrBtXc/Sccs9YL0Kv45nYi1ZZLO5cv+DtX405xesJ4UvPlUvJG90l/F8w8BYbrge0MFHO1Os+YS6UnxbmyvHWE12ZOIv3dgdi5ZeuqB/qWJia2rFYAVdfAqyEFqam6iw1EcFiK43XC1qYmhrgd1iFbyoX5fwnCguoLlyqvj7QwtRUlcJKh26cVfgm9FA+W1nnJlMLU1NFnECbKSAUMlzxSXdeIIGUYMvitdwLDST1ZTm1MDXrgNfeUbxKplCSxoYYbW2thEzDNZwSzzxKBdOzc0xOzpY5X5Cmylp/tDA164JCUiRKFOGQQWtrM5s3dQILvVVvz/GJKQxhUCREUaXpKwNC/bTYamqMIhwOEYtFF23ZVEjXihZvrTeLqYWpqRpCGBjGUlmuvgRYCS1MzbrjeaGC5XijhZn6VR0vP66FqakKK+rQLupblKCFqakSegL+laGFWYQXF9S1nLVjrDgN80EhRb4DgtekWXgz9YFuLlmAQhS3cWtWjDdKx/0338Nu6Q52hfE95VZcqx87Uj9Pqtng1FdJqYWp0QQQLUyNJoBoYWo0AUQLU6MJIDoqq7nqiJJ/V3706ibxupbQFlOzLgjfh/yISrV0+7AzVNrA65bntLUY1JtYtcXUXHU88ZWVkaoszcIv/jZLr4eBqKteH9piataF1du3+rKMldDC1NQctYgVrVe0MDXrQlGnOnfYVzZrkU5nHG/WPzmBbySJAIQ7F5B/REq92VFdx9SsH34BKkHOshmbmEQiCIfDzkwFnvCEQEnF7OwcQoASzsRd/givFmZdokfOrydKgIEgnc4wODyCYYZ8gSDhiFEppC0rBI/q693UqTC9+UtL/5zpEkWdZYL1QeanK1BCoDCQrk8rpSJnW3iCXEDRqGr/u/AXnte2/axPYebHdZU6Ss72a/uVVwNvRrviAs6ZlcAtAH2JLNxy0j8fu/97PXozOviTp/5efhDI+ytqOTawft6PFqYmONSP7pZEC1OjCSBamBpNANHC1GgCiBampqbokFt56lOYypug0p8l3PhgHS1cUz0WX3vEGziynJkJiweZXLsNW/UpzLwA/Y3VvrZMzTqweLoud7pQVScDqetUmBpNsNHC1GgCiBamRhNAtDA1mgBSfWEub5HEmlJPi9dogklVR5cUsnsAWq/yYcDiUL5yB32JogVw/EJVXOsRwbWztqjpwrU0C5FYsWD7gp2vCWrgyi7eplU9SsVW5tf8kIfSMUqaJVFXQZz401/4tl/71KiOGeTM7VlKfxaol+ygCQo6+KPRBBAtTI0mgGhhajQBRAtzMZS7dgaSYNeLg8lyO6ZrFqKF6V/1pqL4fLlL57QVk4+w6sJt2WhhQpEwVVHmKTfiRAtzOSgoamYsbXXSLI4W5pK4uUm3X64MBUoJlNDTga4GLUygaDym8ltJn/tVh2s0rh0nPb3eVMVmVLMYWphlcGSpytSNtDCXhwAh3KVnJUo4qenMyK49j+VQnzOxl8VzWaUbTZQUyi1vKeTS6KwWanmcgJoU7trQyut97CxBoYNAS6OFmcfti6kkhrIISUXOMBHKQPiiGE7Zb7j7alFWQikwvdW8lNDRnxWihYkqNIEoiZGZpH3qXfbs3UHOEAgpEN7iGh7O0lRs3LDG4h34rxZ2epYtcQvIsPpaU1AGPVQXLUy8RWwkYGNYk2w1LvD5fdchMRw3TJAXrygak1Soha75HtZJ46XBZJV/FtelrBBtXt5aIgtR+Ysq0qkwYc+dza8StERq5a2r74yiXB2/3Gpg1w5amED+5SsFwiYehS2tUSSmb0k+X31zfe7gquOMSS9YeyWUuyCswcIMXv741eCNbE3HBLaVQwhzmefzIuOUWS2s3H1em6IELUygdDE+gVCmsxxfxXUar951hQDTFCSamwmZJsLAWV1ZrfF6C6yTIJ3JMDk15WZ6g/UKynsjJ8Uax2QWuHYFWAktzLJUo+6oUEoRi0bZsqmTpngMwzQRpZ7ckmdZ7EeVbzoUQDpjgYKJqSmEYSx19FXAqR4sf9aHpSxk/aCFWSsUICWRkEl7shVjPYxXiR5CZpiWRDPjE+MYRshtU1yvQsh1RYVXTVjmdQT4l4CvV3QHgxoihMA0jPXLfiUnFobANN1Y8lpd5apRn+LUwiyL8gUf1ikDC6cOa9Sij8JG0eSKuLaaVLQwPdx36ujR8DUpCMDwjc28WtfzYpdeE8w64+ZbpQqzGgWTMu00ddiRQwsTSgpbUWhOKMoQ65E5qtR3VJV8CbIugYV9k6vTISJIaGFqgk2+cKyvPrZamLWmmlUj4QScvOYTcY3Vy64ldHNJjfA680m1zo0W/uirEm4k2HR/W8cLX1UWm0Xi2ixYtDBrhJe1UpkMQ8OjJFtbVnce4Q2lWojyAinuCtrzqTSjYxMIw0AqVaWo01op1z/W215q8TfC8ywPLcwFJa7TVOIM6sUZ4uWr51yt8lm5XeKsnGJwZIKZuXT+l5VcwxlNVSlDerMvOL5rNptlbm4eJZzglhKLt9Ws7WlLotnK66/L8qZpWRCjWuReV9KBYTkEQN9amHiWxcuGipwSWCIGKucM+RI+cV6lrp/Sdx4rB/PTqfxvK5Gm8CqMZa7hzcKg/PsZUe9Ad7cyB7vu76oMqtdHV4A0IkhDYBEC130GVVFDhTeAGxS3kPntTluPVwXwNTYVDlgFXv/oQKjRhxamAsOrbAkJuXkGR8Z56rlfYtsZdyymOzAakR8kXfZUQXq3a+nVdlWOVeRyNjnLwjBDSPwjWiocKoRPKCDsNO+eft/VnjNFycILrfZGg03dC1NgYIowGFHs7BzDF04zO9bPu78ykFIhi/YVi1qR9RXmBgpyuJ0zlFJI6XTWR7m2b9H0ExgITOUVfhap6RH3N8N1vavQjzYAQbG6FybCQIWbINSKnbOYGh1lenTQHZ4Z9uIm7r7gjJbYCCw93nJ9r+33LKQrTJbM8K40Ab9Ln0CYzRhGiBwbqohaNXUvTCUMSGwifsvXSY31IWQOKZSzXRlufcufFWSlU60zG91dW57rqYpELVFKgggjem6ChqT7+0ZPi6Wpe2GCQai5i66jd5NJzSCURArpRmPVggHLomZNDBvITiwawDKc6sAig6i9OqZyx3MqINrUih1urHjMtYYWpgBCYWKtHUSTHRheNLPcxAWCkgCEphwKVXBdfVudAJs3zM3rk1yM8P0/33TlBn5kHSV93QtToVBCorypMKRRsIplMoKqmSu7GtYSxVjjscIvOn99VxTq7eUKOeVMFF18aa9KUR/WErQwgeK2PCdq6I0BK9lRlNt4de5g6fNuJHPhNY14z1XSS6fCowhwm6cKFI6qH1GCFiZQEKbTTl2rjt1LXXM1GXMtmXmtx5a2OS6dpv7gd7maRD2hhbmAes0KVxO/EFeWnvUuSA8tzA1D/WTV+nnSyujxmBpNANHC1GgCiBamRhNAdB1Tsz6stiPGGoZwXUtoYWrWh1VHcLQoQQtTs25oga0FXcfUaAKIFqZGE0C0MDWaAKKFqdEEkHUP/oiSz3o4o0azNNUX5npfUKO5BtCu7DVNLYd9adZCANox1zIyfaNlgLXObF6NY9ZyXOmxwa+3BPUOayBMgVIhDAQCSW41Njs/88RGEuZaRVlrkVXz2OrKRZXODh+AbFV1YTpJbuSnKTTU6uZpdYJIG2WOVxex2vmCCmt/aCqwhpknCkcFJ42rKkwDaLQtzMkzYEQR2AishbOluXPrLDrFjgK1SGYNpIuyJiNSH+EAJdQKl1VaOwIwZQ4zZWCoLVW9diWEKp04dR2xJfRPWbz5m0sYwkSgEEouunpNpXlclVp86uX1aJap1WxAVFo4KKDkHe9VJFZh3qUq4k5ZunNLC/t72wgbhblta0VVhQnkV7ry0n7VE88tsfLaegmz+gGctR9aCzZSe7WikJeMaqyNsgyqL8wNT42EqakrAtBcstHQ4tKsP/URUdBoNhhamBpNANHC1GgCiBamRhNAtDA1mgCihanRBBAtTI0mgGhhajQBRAtTowkgWpgaTQDRwtRoAogWpkYTQLQwNZoAooWp0QQQLUyNJoBoYWo0AUQLU6MJIFqYGk0A0cLUaALI/wdrfANO8QQcbwAAAABJRU5ErkJggg==;movable=0;resizable=0;rotatable=0;deletable=0;editable=0;connectable=0;" parent="1" vertex="1">
                    <mxGeometry x="480.00106445312497" y="9.996625976562495" width="230" height="240" as="geometry"/>
                </mxCell>
                <mxCell id="10" value="scrollWidth" style="text;whiteSpace=wrap;html=1;movable=0;resizable=0;rotatable=0;deletable=0;editable=0;connectable=0;" parent="1" vertex="1">
                    <mxGeometry x="559.001064453125" y="-21.003374023437505" width="87" height="36" as="geometry"/>
                </mxCell>
                <mxCell id="11" value="内容在不需要滚动条时还能适合,&lt;br&gt;和clientWidth尺寸一样" style="text;html=1;align=center;verticalAlign=middle;resizable=0;points=[];autosize=1;strokeColor=none;fillColor=none;movable=0;rotatable=0;deletable=0;editable=0;connectable=0;" parent="1" vertex="1">
                    <mxGeometry x="487" y="295" width="189" height="41" as="geometry"/>
                </mxCell>
                <mxCell id="12" value="出现滚动条, 可滚动区域的尺寸" style="text;html=1;align=center;verticalAlign=middle;resizable=0;points=[];autosize=1;strokeColor=none;fillColor=none;movable=0;rotatable=0;deletable=0;editable=0;connectable=0;" parent="1" vertex="1">
                    <mxGeometry x="498" y="250" width="181" height="26" as="geometry"/>
                </mxCell>
                <mxCell id="13" value="" style="shape=image;verticalLabelPosition=bottom;labelBackgroundColor=default;verticalAlign=top;aspect=fixed;imageAspect=0;image=data:image/png,iVBORw0KGgoAAAANSUhEUgAAANAAAADzCAYAAAD3nJjsAAAgAElEQVR4nOy9WZBdx3nn+fvynLvf2qtQQFVhBwgQ4L5JIkUttizbUtuanvC0HbYsz1gRnrDHevGDH6wIh58cMX5weMIah0IT3THjdkxb8iJ72t22KVqiJFIUSXEBCQLEjgIKtW93v/csmfNwzt1qR1UBqALPH1G4VfecXE6e/Of35ZdffinGGEOECBE2BXWvKxAhwm5GRKAIEbaAiEARImwBEYEiRNgCIgJFiLAFRASKEGELiAgUIcIWEBEoQoQtICJQhAhbQESgCBG2APteV2C3wxiDiGCMYSWvKBFBRNruX5p+rftXK7NYLFKpVBgYGFj3/gh3DhGBCDrk5OQkL7zwAlrrNe8VEYaGhvjsZz9LrVbjwoULvPHGG2itG2Sod+h9+/bxMz/zMyQSCQB83+fq1at8//vfb5TbSiDbtjl69Cif+MQn1iSF67qcOXOGc+fO8eUvfxnLsrb0/BE2j4hABB15YmKCv/qrv8LzvBU7bz6fZ3x8nBMnTvDMM8/w2c9+llKpxIsvvshf/MVf8PTTT+P7PlprbNtmcnIS27Z59tlnGwTyPI+f/OQn/PEf/zHPPPMMQEN6ua7LxMQEp06d4pOf/GSjXq2o3+t5HufPn+eFF17gy1/+ckMKRrj7iAhE0DGPHDnCH/7hHy7rjPVO/P777/O3f/u3/MEf/AGDg4ON67FYjKeeeoqvfe1rjI6OcubMGT7/+c/z4osv8o1vfGOZRLMsiyeeeIKvfe1rbd/n83m+/e1vc+7cOYwxzM3N8cYbbzA1NbWsPrVajR//+MeMjo7yl3/5lySTSR588EEee+yxO9E8EdZARCACAnV3d/Pggw/y8ssvU6vV0FqjlGJgYIBPfvKT2LbNSy+91Pi9ns6yLJLJJL29vbz11lv8zd/8DV/60pfo7u5GRBqqXSsJLMuiu7u7rQ6WZZHNZhtqXaFQ4MyZM1y6dKlxT53Mvu9z+fJl5ubmePnll8lms6RSqYhA9wARgVpw/fp1/uRP/oSTJ082OnEikWioVOuh3vnrUqdOnKUS5Nq1a3zjG99oS1utVnn77beJxWIADA8P8zu/8ztUq1UqlQqdnZ1AQNparca3vvUtvvvd7/Knf/qnAMTj8S0/f4TbR0SgFriuSzKZ5Pd+7/dIp9OcPXuWb3/72xuapHueR7VaRWu95nzEGMPi4iLvvPMOnuexuLjI7OwsJ0+epLOzk6effhoRIR6PE4/HKZVKvP766ySTST72sY/R399PtVolnU5j2zZdXV3b2QQRbhMRgVpgjEEpRW9vL93d3UxPTxOLxVY0T9ehlMKyLMrlMuPj4/i+z8TEBJZlNVS9Omq1GsVikWeffZavf/3r+L7P66+/zne+8x2++tWvYtv2iure9PQ0L730EpOTk/zKr/zKsnwj3DtEb2IJ5ubm+Pu//3vS6XSDEKshkUhw+vTpxr2vvvoqfX19nD9/ngMHDvALv/ALJJPJxv0TExO8+eabjIyMICLYto3rurzzzju89tprPPvssyjVvrY9MDDAL//yLxOPx3nllVc4ffo0TzzxxB17/gi3h4hALairahMTEyilEBGee+65xvWlkiidTvPcc89x7Ngx/vqv/5rR0VF+4zd+AxHh5MmTPPDAA0xPT/Pmm2/y/PPPMz4+zqVLl/ilX/qlhpTZv38/x44d4+tf/zq2bfORj3ykTQKJCH19fXz+859n7969a0rDCHcfEYFaMDg4yG//9m/z67/+61iWhWVZjbUXYNn8xnVdrl27xt/93d/x0ksv8Yu/+Is8/vjj3Lp1CwDHcXj55Zf5h3/4Bx599FEuX75MIpHgySefbORx6NAhvvSlL/Hnf/7n/Nmf/Rlf/OIXefbZZ+nt7W3cIyLs3buXz33ucyilqFQq6y74Rrg7iAjUgkOHDvFbv/Vbbd9NTU3xwgsvcPny5bZF1snJSf7pn/6JCxcucOXKFX72Z3+W3/zN3+TcuXP88z//M1NTUxSLRd555x36+vq4ceMGP/jBD3j++efbJv6WZXH69Gm+8pWv8I1vfIP/+B//Izdu3OALX/gCw8PDjfuUUhQKBc6ePcvZs2d5/fXXicfj0SLqPUZEoHVQKpV4//338TyPn/7pn27MUYrFIhcvXqSzs5Pf//3f58knn8S2bXp6erAsi3fffRdjDCMjI3z6058mFovxxBNP8Gu/9mvLOrxlWTz00EN89atf5Tvf+Q6Tk5Pk8/k2AkEg0epqYFdXF5/4xCfuWjtEWBkSxYW7O2ht5tUkRiRNdh+i7Qx3GWsRJCLP7kOkwt0lROS4PxFJoAgRtoCIQBEibAERgSJE2AIiAkWIsAVEBIoQYQuICBQhwhawrhl7rXXWyDS7PVgajCTC2lgpVkTzYuuFO1+XNT0RopXxCLsSd5FEK0qgUqnEv/7rv5LL5RoEMttcF5G1tMeVY6y1p5flNTIGw8Y8k5aVH6Zdu16rYa3WWf4sbWXcRp23ika529BOa2JZc0iLV/vGn3Utl6dWZLMdPProIxw/frxeXLOY7e64S7BMAvm+z7lz5/jCF77A3OwcImFdBDD1TtvaELdfO0HW6KgGg2Yt/oiAoJaVbTAYs76bv4iE6dvTgln2/XpYO50J69TuB9d6b/v1O0ek1nK32k5rpRUEMYIRMFLvJ/V89IbKbZS9BoGabSb09PTwu7/7v/GVr3ylEUKspcJ3lEDLJJDv+4yOjnL9+nUwYItClAQdRcA0RrF6rdbucKs0wZLP5dcN1hrpV8tDMGGKdWJ7rlD2ChJtzbJarxqgGTdh/fe1dHhcL8VKdV0rz/o9ssr1ZjutltvKebIs7UppVJhCyxLJuyyvtbBCGab1l+YerXw+x6VLlyiVSssJdLdVuHrcMWOgI9vJb3zpi2g7hjYazwLd6Ciy5LMd9ba7uwQCLWqdsutpVip7dam4UllLy62XKev2kXtPIB2O7mJun0B6iWSo5yGAjSaGDlU9tX0duK2eQX0mJsZ57bXXuHHjxjYVcvtYcQ4UiE/o7u3hj/73P+G/vnuNmurGFQsxrTEC1ml62fh4szS1GLnt9PXOu5my60+ymfpKvb71PG6j7M32r60oe60kv922WmmAMARqddor0VOZJuaXEV8DCiMb6y8bKrulzoJhbOwms7OzO49Adf3SoFms+fyff/9jyplH8Imh2FiD1DVds6k2a3bI202vTMu4eZtpW+eeG0eg0Kh6fes/t1H2+hKrfmNTZm2VQPV22gyBVMvNzTwMPdVbPMxlDvXaiNHhlLk557ndnWetTdg2QKEpFPLUKqV7biVeex3IgK/BNQmIdaFQ6NucZG/18W43/VYtmJut79Kp8Z16rWsrzhvHVuq7mhnAxEoMDR3nMx85jhGNXpJpIKlvoyBapwLSHDzEMDp6jXNn30NE3VMSRfuBImw7Vp3ZGbltyRlq8o2MW6XmhqaPdxgRgSJsK5pLHu0mmc2otrB03rPzsCMJtFMbazXstvreUYTzKQUNfbpuZNhaO5klv9/eouydws4kkNzGxPoeo3XE/TCjdQVOTGgNlXapI7DJdlpKFsNOIVHkjR1he/EhG0giAkWIsAVEBIoQYQuICBQhwhYQESjC9kJC40GLuW23GIQ2gxUJVF/ZbV3AupvYTQ2+ecvS/YQWa5hp/Ne2oLod79QsWzg1GMO6e8fuJDZEoLtdwd22prLb6ru9CG3WDTcBE/yItDXMtpFoA9/cTUQqXIQ7jvtZQO/IhdQIuxHL5XCbp/d9yqJIAkXYNgRTlHammNaL9yEiAkWIsAVEBIoQYQu4o3Ogre6a3Ez6etwZLYIYgzR0B9Uwrm4mjNR9qoFsM0zLb3rZlcC4e3+15J0l0Bbaqu7Ne1tpICCNaTrOS9253qgwzBKNz9utT4S1sMQz2iyPVrJ2NJ/diftQhQtikNlaEDTgI2JoidJwD+t2P2MHbA+9B7gPCQRiNBYOCSkgyoD4YXALTUSgO4kPH4G2oMIZlNHYaDxstIBVD3kV+rdYBnwUIhbgoEzo5aBBSxBfLIgz175XURlDXHsgoPHRKHxlo4xCaR8sD22CKGQGhRGPmHbCx7FRUqMnXuTYkPDWrVmqfieGGEi8sXBuRDAiWMbF0k44V1IYETSCFiuk2oevU0TYODZNIMEna1d5+mg348Ukl8bnGUoscOr4ft64MMdTpwboSQgLVcP7Vwt47gyffvQIvu8zObnInpFBxiuaV84WG0EUg3yhJyX87MksnoZKpUy6M8O5RZi6XuKJI51093gslD3evVQiX4KuLsNPnUhjJMlY2Wd2fJ5PPdrNk/u7OHJ5iulKhjPXS4znEjQ0caMBh6G0yzPHu0haAsrG1cKVeZcz1xz8TcXJjvBhwqYJZERIxSo8cyiDm93H//WPU5zsXOTJw/t5+2KVvR2Go91VUqk0I11pXnq9wEMDOR5/8Bg/OucSs0s8sneYV88u4mPTEs2NpOXxxLDm8LFDvHd1mkysyv5je/jB3AT/49P7mV68QSLbSU/S8MO3Znj26CBPPGBTrdU4mu7jB4VxBtLQa1vs7YkhtksmrhFsDG5YjkZRIx33OTakyMQsEMHxFAXfbNlqcDfjJEQxGe4d1j8fCFZ8OwZFxYFLF67x+V8YYbjbY/+eDl49P0ZVx7g2XiGJw/F0kuceGuCbP+jkX149z8MPnOByKc27b1/m5GOpUBr40BJzO190+NHb4wwf3s+L52bxc5McO6EZyJToTni8PZ3jVDbFs6d7ee/SBA+f6OWvXrlCrrzIwWGLi3Npiq+MYT/l8J9/dJ6Ctx9Pd2GLi2Pq012FIsFiyeHH5+eISRzR4GphouSgdDKQQJuIObbZOAlLibDe31spK8L2YG0C1fd20P4TvERFzUtxdcbBrxT5+PE0B/f2851/uc7B7h5+/slhpvPTuI4iIQqPDJ6folAzvH3ZMFoa4Mar82ix2kNWChhj4ZgU+arH+1dyuHRyfXGaJ/sDg0Cqu5upnEN+ap54PElXp83liQR5p5er0/NYKkVfdy+OVhgvRdXvR4yFlhpGkuH6EMR8TVfG59jBIRJKYWlFxfUx0xVGp8qIHcMgbWbxjYRulNDNfvV7lvZ2aSFCfbVKlvxNM7RNSx4tt2wAKz1D/e/NyrClebbFEw3bLrxju8RkS5+817gtCVQnUz3+tC9JZt0al6+O8VOPHmFKYhTKYxzvF07uE86+P0v3/j0kLTjerzgykCZpG4Y7EsyXUuQWaogFqPbYsomYcGAgTTKmOLCngwsLSRZrVXK1Ag6aXKHKWMkwkbfIVVNMTZX43GO9XJ4uk6tZ3Jh1KGkouz7PnRrh6pxFvqK4stAaGTMwFBTQjBfLJC1BfAutNSXfBWUHhoXlyxkbwsbSNEVHOxEkiMRpltxpVibAxstaSVSZrUsw05pBM3Zq/V9jCWETa3trl9ta3r3B+nMgWbltxYCvhHkvxkvvz9HXP8DbOUXZSjFRdDkzlmNvfw9e3HDh1gL7exw6+hNcGhtjsEsxWlDkFkDM0gj+Bts2JLIwdmuKocE41woJKjXDWM3w1s0Kvelu0kmP6XKJmUKZH749wc8/0U1/h+JGLs74fJHZmuL98RpPnt5Df2eF8+Mu1xelJe43eGIzW8zwnZ8UwRKUBtsAotBWBoxuqdpKrbCRXrfaPUuVs+VdYcm2xl07zzGNwLz3H7ZghTMYoyibNGdmXRZfmmG2lsSVFKM5zf/7ygK9KWG+tEAslqVctbhUMcQuz+LpJPOVFL5locPhT8JmFiMUXXjhksa6NE/exKg5Gk8UN8sJvvXyLHs7EiTTiptzHlXf4syEofJ6jngqwXzNwfUVFZ3mjTFh1isRj9W4Oe+hpSMIqi4SOvQoMAmMJDDagNF4RoEJlmCXEhtonBoRXA+9HAg8IIyEuZotWu9WWMVvb3kVtL9oCNus/kSrZtlKR9GN0VuHO91Uy2gudVEhhB4cuvH9emcDtbvz0L6dYbeOAGtgi648ghabiu7jg5nmqmwFuDIFl0UDPeG3nehFC4zGMsGJbkZZ4UvXIIE0UvjUPJvz0/1hCaCNwWDjiM10IcZkOVizgU4QQ9FXvDUZqhGiwcQAYcHpJD+qMUrQxLC0CkgDiATeWo2gf0YwWPiNl9zqy1VfPCJUSQwiPlpCR6GwA+vG2Spbg6G5q3OZ0aBFjW6pHWvpYfXhqQkLER3m0Tr/UiAeoBETQxkfMQavoYWsNM9pL2lpHRq21fuQPHAXN9SJEWIaPMugjOAZC7RBWR7aaIyo8FU2R/WNZQytL04aAcyDTi/GDzqCGIKF1zhinICYsvSwsPXL0uigOxqNQgE1EtpFjMYnhm9S4akEQdkWGsTgEadOv1asyrfQgCNaGmwJnjL4X4sJKWNCYSEtR6ysJSfqdQjkiVXnvPGJmSoJVcUoG+37JKWAZXkUdYaaSge53p+a2KaxZQkkLYqDER/Rwdml7Ra7QMWxjYMtBTRdaHxi4pIkjzJFLF/hG4UrKRzVGUgooO5+0zjfs82j1wQT65besnT8S8U1B/uFqlvl2kwKEZ/OpE9/b4ZLkw4tma79nEYTo0bClLFNDcHHQ0ikO3hoJEsal5mi5sxEDYcUgiatSox0+qS7e3n3pofvx0JDmoQq38oWOhHBiME2VRK6Sk11YMRCoYmbIjGdB7FxVZKKZPAlhmVMoG41atyi0oUEVEawTQVLl0HiOJIJFWdNzDgc7q5y+lgX4yW4cKnIyUGfU4d6uDGjeP2GIe+odVS4zaEeQmE3YvMLqQgWErrv1DACPoIlScQXtNIYU8M2dqAZiMugXeKxh7r40RXw8g5xHI73VHnyeDfGB62FiQWfl66V0DqLMj4GH0/iGCOI76LQaImhjItGY4iR8INRXqPQJNDKRxkPZXx6k5qPn+hjcj7HtVlNUtXY2yU8cKKXK5O3ACGOi2eC9EZiaFFYRhBxUb6PFgslLn1mkZO9BY4dH8IxPiXHsOB0cerwMMNZn/mFPO9NjSOSxtI+vfEaTx3poHO4nw9uTVLzCSWXjzEaHytY/jImiMFhgrmeMhZJ43G0H4a74OXLCzh0kIgZTu8RTg6ngRi5aoKf3LK4vggx7aO0hxZCKSvh/EOjqGKwUBo6rQWO7hFUsoN3rtVwxELjsSfj8enT3QwcHubGu4vULJdKLE1v/15ODAkSz/PiuQqtXiO33WdCA44Kz/RpHrBsQhLtPhZtXgKJYBuXPpNjX1eNZCbJfKHMvN9BsZQgbRUZ6dXYWMwvlNC+4uP7bf6H50bQeprRqQplY3O4L8mnnzjGyxemGO7p4MmTih9ffZNOigz3JfFVjBtFIVfxSEqerrTFbDVBX7yCSgpzpQTHOjWWLmHsDsbyhpzr0E2BgSwc6U8zkjHUynHSsQpH+jSD3UKxWMUyHp1WhaMdNRw0yooxW1RMVDtIKY8DmTyZuMVc2adid3JQXH7mmcPowaNcHi+RFbhxvcprF4o8dVAx0pcIpLBy6Y4VOLZH0ZNUzOcLaD8YbLrsRfZ3+Ehcky9qFqtCT8rQmQmkU8EkmFnQ9MUr/PzJIY6N9FEuv89c1VDyLIYG+und04FxKjzcHSfVBfM/GmMwVmJvT5yFqsvkQpIiXSSlymDKYU8WcmVDrlrleHeNnzo1QqyrH1O6zlQVJsqG40NpHjzYxb+cn+EnZyuAxTs3YG5+gl/5SCePHknw0rl5XNMRCuzb0+XqJnljDCiwLIXv+8H81tTV0d1Hos1b4Ywhoyo8t7/K4ZEBrk9Mc6rD4b1KkWtG8+8eS1HJzeDVbD56qJN/fXOOdFxIW4aOtE8mZfA8C8sYLF9jFR1qsRrXC2U6EzF+4XQHJhYjN5vn4RMD/OBCkUS5yENHh/neuQqPD9p0Dab50cUyP/PRXq5cniMpHseP7eeVMws8s0czPNxNfsGjv8Pi2oyHWIaYHSMlDlWjEXyGUmU+/1gPc65heq7AM0eT/Mu7C+zvz/LMsM10ocJQ/wBnF1KkctMMHjjC//GdWS6NVUgmhULZI2E0QzHFcH9feDKBi6WqWMZQWyxjD2QxKPo6hecfyNLhzbJYcdl7qI+ZoktWF9k71M2FsWm60pqJwU5u3FwgHfNJ2IZk0sPyPJQH+aLH2+eL2G6OA0/3cXgwzvHOMo8OKYqlBYZ7Ehzdk+JH14ucGk5yss9nsVhluC/BtRmLrDJkLYjFDZ1JTd4XEspiT08Wz/c5f2WKwPAT9PiZQoVLY/Mc258hKTVcsqw8Z5RVvg+vChgNruPw/oWLXLt2lYceeYQTDzyA57rB0fWb7Yz3EJu2two+mViNjz3cR613L2/edMESBrtj9KU1/9PzD3D8yF6OHRrmo089yKTJ8N5UmXk3ztkZi7fHLW7O+WhLkYxZ9HaAbbl4PhwbGuHZj53iRinDrQXNx0/38vjDvXQlDIeHehHbYm9fN0eHe+mIKw6NDPDBTIK5QpWPPjLAnk6f0yf6sfYd5Mw8uPEUjvEoecKFcc2tnObgSAdaNJmE4tiRETLDhxivdvDY6QMM97ucOthP/9Awo/kYx0aGGBlMolSFcsXjymiBigfzJRc3GDYx2sISFQy1WjFX6eP8TZ9KMc/xA/1YMWFff5yfe/4ID506yJHD+/nY0yf4+FP72TPQQXzfEOdmICUujzw0zGyti8uLmglH85Obmg9mOqjoDH1dMT77eD8//9EDJLIZzl2c4Giv4hPPHGf4wDCPP3SUjz82wpEBw/OPH2D4wDCvTllcriSZ1X1cLSS4Ua5ww4GfjCuu5xK4ksRYUHVccuUqxgQbEDEq8AqpabxqCaXW6+RrS4+aU2N+fp7XX3+NF198kVqtRjwex+hgMWO3SR/YAoG0GMTyiccS3MgLOTfDzNwitmWwxCelhMHuJNneBO9dm8GXTmpig1gYnaTmG1zjU7Vsrk0X+E//doUXz8zwzIlDPHRAUdOa0ekK804c33HZ0xND8IhZmpiqEY/ZiLExRqj6wrWZOJVqkrgYEgkfbVvMlxVFHSdfMRiJYflC1UBBx8EK5taeaKpiKBih6MQw2hCL+VgCpbLNbDHGxOwcDhY1SZJOxTi0rxPLaJTRiPgYAa2s8DsXX9s4JkXNi+FpPzjZXFeJWS7ZuNCXTdLfEWdsepbx6QU841HwbOYKSWo1g20EV8epEcfXCpw06AxiFJ7nU6lWsPwSJU/xwfUSlgj96TQH9/QgCKPjOVKJDF2daRwTZyKf5ewojM8LJR2j6hscY5H3bSpaAQrtC3FbkbVtBBX6EChsbUgphYrHcLe4mHPx4kVeeOEFpqenSSaTzM/P893vfY/zH5xH69VOXl0Za8u7u4ctLKQKvpdgejHPUyP7cR/Yw+luxQUHCp5wPVejVNFcmfFYKBmMieF7FhiHj53sJJVUlGo1lF6kM5HhkeOnObgngcHg+zV0sczzj/RRnAUvbnHx+ixKbA4MpPnoiU4ePNqFoy060xZaBE/Zwf4esaj5aco5l5NHbUqHOxnsiHFRhK645siBPka6hJFOm4cP95B2DK7YOOHaom/AcT3Kjs9DB3t46sgeBgcyvD9pMV5K4hTn+fcf6eaNizaLFZfRxRK5nI9jNHuyMR493M/5uTQxKfF43x6ODsToT8V4YG+ScqXClYkKXbjcmHBYcBSLuTIP7Q0WdzGCG+6TAoXvC3s6M3zq1H7GyllK1QLjCz7nJ+YZic/y0588zgMn9zE3McXNyQIziy7TJcONeWF03uf6eI6TQymef6CPoivcnKlRKvhUqj4HOuI8eayf2aLHxGyFSsUmm0xwcl83Y1cCOWNRoyeWZ7A7iyS6qOkyiA+bNCSMjo7yzpkzZNNpZmamuXr1KrZtMzI0hDmxnn2v1Y0ppI/hdhwB7wisP/qjP/qj1i983+fSpUt861vfoquriy/+r7/D3/zwA0xqJFzBD5cSBSwD2llkX8ZhXzbBQFpxpexzYVKouJCxFZadpeYpzt6ooAQs8vRkhP7ODI7nk5ueoicmxJVLJuVyZSrHjy8sUs1V6MsosgmLM7NVfvDuApZRHNiTJBYXtF9hdrHMzalZakZx7kaVtF0DBe9e05hKme6URpRHvjDPB7cK5CvCQ4MJeqSMcQrUtE8+X0PcChfnfCanKyRUlQvjRYqVBH0Zw8G+LP29Cd4cM5y9soAuz7M3q+nrEGxdZjZfIl8OVK99naASSSbmS/TIAg/sSZDGp1CqkS97jE6VWKxA0lIolcT1hcsTC/iOz2wlwfWxIknlkdcpLk2UUaLpSir2daZIxH0mCzkKNcNc1WaxXMF4ZVwSXLxZxnXK9HZ3o2JZJooeF26VKZdr9KU0Q10xYimLiZxPvugSw2UgJfRnbVynwq35KlorDvTG2X+gixlHU8qXONLv85nHsozszXBhPsG5m26LGbu9uwuQ8goc7ahybKQ39Hhod1fyPI+BgT1YloVvDF/84q9x5MhhEvEEfb19oFZTiISlMie/mGNmeorR69e4du0aTz75JJ/5zGdIpVJBacbcFZVwwxJoJZ7X0Hww7eBWL/HY4SE6BzqYLPhUnCQvvp3jXMqlp6dK0fEwpJhxsvz96zn2dnhkusuM5zXFnDC5OIUyUMNQkSSlaobLUzX6r0yRzma4XvAoV5N4VoK/fnkG4opiqUxcpSiUhHOFBVxJMlYWpl4rslhLUapqrswvoLI+hZpHxU3huRY/OjeDTQ0bKNkJyq7m5uwMBVvjuYp/ebtI2emkUKzyQ2+Bj54aIt3bx/iCJu91853LFd4aG6cz20mxXGO6bIAurs27/JcfzRJLxphb9Cih+f75PBYOxlSpSpxFJ8YblypcvpFjIJtAa5erix43FmLosSJV0rw7qTALJcqe4oMJh+ncFMNdcSq+z+hCCY8sju+jTAfff7+KUWVKTorvXqhyaXqORDbG9cUaDjEuTBkWCnPs7Y6Rdy1mFw2eyvD+tLsvIx0AACAASURBVGbutRk6O9NMFhzEJBibq/Lf3qry+OluhvoMkzcqDGRtst0Z3rzl8pNrRTDSdAhfawV4lYv79+9noH8P5VKJyakpRATbtslms2Enuz1pshMCvWycQA2Xl/oX4Ing21kW7R7ezyeZj3dzZaKIb+J4Bq5XOrhS8cEoRCk8iVOTQQp5Hz/voSUGZg9FFzAW2ggiFoKmLC75qkZVw2g6oigZ4XIujgcYk0aMYFsZahUQURRMEuNaGIFFEydfVfiuG6yBYOH7PgWdQNGFbQy+q9DikzcdaD9oiulaHGUMdswnLzZvjXtcqjhcnargEsMhRb6aRCpxhCyIRmFR04piTsGiwVcpyibLXM3CiBcsAtf91nxFqZzgVilofl+lUMZgPBslMRyTxDgKIxY1YKKimawCWmHoQaMQFJoYizqF8QKfuAWTIT+n8BccPEmjxKZq4GYpzngxeGl+6O1RoJNiCUwJtCSwJKjemYkaVxdmSSSSlN04F6YMV+fmmS1qHJMOfQdXXvwl9IhoLt623heopDE7Tk25jAyPBDuTJybZu3cvfb29jVMWdpshYd39QNDO9FbfYNckmPcSlIsWV3Ia93IeV3cGl1Xgw1b3KNCiw5FL44kAsTAbC7+xfG4AL1h4xQKxmh5p4cin6/p36OrimqYlxDMm8OUKK6mVBhPcr/HDPXtBfVypj5QK3bJ12zcKXwx538Yrprm84FC9uBA6vQrgAfGwswgQ1tHYTQdUE14T3SiP0MHUhHuL6rOMhl8nBGWoeguHMRmMtWxbAzTna0FHtcI2NmBioWNoU9nyWzrlMr84A34j4xSLNaAGkKZaXl7mctT9BIO3Uw8Z1u6jEnyTzmRIJlNk0xlOnDyBbdukUilU+Bg7QKDcNrbgyhM4X1Z9Q63cdGcMurMAftOht5FiaQ47EcGbdD1Y9D3EqIbvWIStwRiDKCHTkSVDMN8WgiAyu3ERFbZkhasL7tbRrS65m+bO3TiqNCSE2c3PsHNRN1lLi7f56jOnnY0thbVaWbXbjc2wMnbfeLj7sN5WjNa76mgMa2tYEe6WNNuSN/b93MHu52fbaWj3sF/heuhw2iSFoXWH671U/aLAZxEibAEbItD9upswQoStYmMEutO1iBBhlyJS4SJE2AIiAkVYF5EGsjoiAkXYECISrYzomPsIOx6BmbrFicwQWrbu/a6giEBbwtJxOTJX3hksJU89ONe9b+81CbRRjm9tn+IuRf1N1vEhs/U3fQd2qRfoNmGNOVDTq3Yn7LvYUViRPB8eAi1/0vWfXdgZ+3e2G6tKoNvZ2/Th6TohDLQ/9YeuBSKEiOZAm0JEmAgBIjN2hF2Anav7RRIowm1judFoyZxwjTSyiSg6O9k+ExEowqZgWn9rbOlemxzKEpLxBHYshlpnC4IxhlqtRq1WAyM7lkQRgSJsK1ZbnxEM2Uyagf4+YhsgkDaGaqXKwuIihWK5GTdjhyEiUIRtQut6kDTVPAOIJp1OMTDQR3dnRyNgz1oUMkA6lcC2FY7rUqo4OzJmQmREiLCtEGMQUY1pUXAYmSGdStDV2YGSjS3OC2ApIZ1Okc2k73kE0tUQSaAI24slzBATxlEPosrd9gJAPGYTj8e3q3bbjohAEe4cJIx1t0XsUOEDRCpchDuIutP0Zs5WrZ8XdCeOlNxORASKcOcha6/lmFVETN0wvlNN2LANBNrB0jXCLsFGrGs70AAHrDMH0hE7IqyCNbczLPl7M94HSHNFaWXu7AxGrSmBNvLYO+MxItxVLCNE0M0NEpy23eLaUw+AKGvsZ1hJhWsjj9m5hoRoDhTh9nGX9amVi9sZjIoIFOG2cU+0jh2q6kQEinDXIJtkwc6QNSsjIlCECFtARKAI9xzrmbF3qPYGRASKsMPR5JYmOIE12H9kWix99xKRL1yEHQ+DaZwRVD/MuBkZ6d6SKJJAESJsARGBIkTYAiICRYiwBUQEirBFLHV8WyViuCGc+N9fiIwIEbaAVXzbWmIe1N3ftmKKDnziWv7fQaczRBIowm2j5Xzslm9MKH2CEFQmdNcWs3lbWatLatuPkR1zOkNEoAibQhshlpiUxYDS4ZaHFpVute6+kje2WfKzUxERKMK2QgBlgh9ZypydzIRNIiJQhG2HmNtTrnZivLeNIiJQhG3FavvmhN1NlNUQESjC9sI0P9qCgWwiqMhuQESgCBG2gIhAEbYf95+mtiqihdQIW8SSoPICvrSdq00jMNwqp1GvNDfaLYa7iEARtgFNAjSjkQbfq/A82fp6zu0Kp3qEUgj2Bkl9hXaHIFLhImw7VvIR0Frje/5t5+U4DrVqdYUcdwYiAkW4ozAEUqNaqpLP529LeGjfp5DPUygUdmdk0p2LpjIQ/CaNAH7LgmQukfj19yBGQHTjW4MKbhbdTGA0SsBgY+rnDITHDS71LF5+Zmjr7wojJvThCsrWymAZw2Cn4qnjaWbLFm9cLOL5ui2noPqGvq4Ejx1OkytWeeNyOThnxwiCRotqe9CkrTgyGGegy+b8aIHpUv1wkZVaaHtRV98U9TYKwsPXqg7T0/NUqg6iQl82kRZi1P3pmnZwz/PJ5Ys4jguyM7vqzqzVBmAk2CUvCBLqyU1KQTNaJo2XIm1ECrwcjQQRNQWDkXoagzJCZybGqaMdlB3DuxdyYbkmTNOaV0uxGBCNGBXOB8JyCHV4XY/hCYLmYG+M/+W5Ht6c9Dl7o0Sh1BY0F0GDGIa6Y/z7Z7q5PlHgjSslUsrhgb0xDuzv490xjxtjpWDrs0A6Dk8eTPDEQZvC4jzTpXjYPs1ooXfy1ANTbwYxSMvzl8oVSpUqUj+xQS0lUPPTAEYbfG0wqB2qwO1CAomRoAOLxkKjdOgFbFQQg1lBnUpiglHXQgckM6DrBiGpz3Q1ShkwGmNsQCEiiIHujM3zD/UyVajw3oWF0JhkwFir1w+DwsOIjQ59hlWLR6RIcGIbWoH4FMtFLly7xVg+jfb8Rt0VBmV8tGgUkLIMAxlFLmFjGUNGSjy+J8mzT/VR9ouMjeUxYvBFoZShKyEMJjVpu4aNha7LUCGMk3uHu2SLGa3NITR8D0YMWi9NsMLsqXEe5M6k0I4l0GqKRr0Zu9MWn3mom31JjaddCsUafZ2dOL7h3Tmft96fYU9a8+nTe+nuimGMoVqtcWlsntdHy2gVY28iz1PH+hnaO4jGUHOF0YkC715d4PCRfTz/YJrH+yHfGSPxU71o4Pqix7+9VUQvqVe9S9rG5XhHhacfHuJG3mH65hTPPHyYWzlNLlfhxF6bVy7nKTopPnaij6O9NRK2AwhVN1BhLONxoMvnEye6yWZtfKPoT9tktUuaKo/2lfnkI/t4eDDGwTT8/ANxjmV7mciVefVSDkhjIXTammcOWDxxrJeaq3j3VpU3rhbxlYVZ+gDb9baMaTYGzdO1N1bcilvxdip3gJ1MoFUarR7WSGHRnYnxkcMWB/stzs0Uyc9VeOzoEEPjVa5euMrpriK/+rGTzGphbKrIif19jO/zWCzOM1uo8NmDNT73/B6cbB8TM4aulOH0fouCUyEeM3QkNXELknHozlhoFNlqGEBd2idX9d+U0exJunz+VJqLOY93Fqb51ece591Jl2vXNJ84FufC5DSlfIps2mb/ngRP7BXKcYVSOXzfkDQlHuqu8h+ePcZk2ePGTJmTBzroiGuUMcRihs50gkxcsAVSCaEzo8hVwRaN7xvE+PR0pjky3EvJFU4PZzmwL81EBW5MVbbwZpaakds3/bQGhK+TaK332ZbPLsSOJdBqCFQoRalseOm9PHvsJN0dXfzXDzSjl+ZY8BL0DncwMpDmRH+Rilvl29+/xK1Zh08+sodPPTLMx07mefP8HJ968iTVeDf/+eUFbk36DPZaDPbHmXIyzE6VqdY0iY5uJioe33x5EcFQ9RVGqaZK1jJfAfBFMV8VJqcX6UxpklSIWza9SY+ZVIyS4zOdLzJb6OSFMznmF4UHsimUygSavhHStseBrM9c2eX/eXmM8Vn4bCXGf3iiC1fiXJhPUnt1Eu+ERbxvgB+MOvzwrXlqrqZYSdOTtAKV1Y5xtZjgu6/f4pcfS3Lg1AMcPNTB6FSZzalw66cJnEbZBB92sJhZA7uMQKFVxwi+b8gVPUoVzWJJ8713CrjVJOXXZjk44mFLjOMjw8S0ZiQDe1MZuo1LJhnj+FAn16/MM7x/iNdnXL735jy1muGDW0JXJsH8Yg1thLkC1BzI1Qy3Fj0sYzBKsMI5Rau5ov67FouSJ8zN5zlyqJv+zgwl32B5PumEoehpFooG1zMs5DUzC5qqE0cjGFEoDNlEgj2dMSZnKrx+IY/jd3DmcoF/93AXCkW1ppjxqhQqMTwNuYphIle38gnGCBibfMHlyq0iY5Mlrt6Y49Ajx0kn6nax20VdtuxOSXGnsKsIJAaUaLRojA4kkZFgvaBa1hgTY3ROc3O2xPFOl0xHL5muDh559hRVpUhiuI5i3k5io7CUBPlUfbRSVD2Du1hBY6FENza22IAlBqMVWmuUNI/OFQwWNXwRDEkMFlVjU3JcBjs7OHz4KONlDykX6LQ1ZW3j6TgiGoyF+ApbVKNrihFsyyYRB+1oxFP4YnC0T82tx+dU4cnXfrBxzTeB9V0UBoMnPkYM1bJDbr4MJmgzCKSDuRtGhA8JdheBkKDTYYgZn7h2sfwEYgxJqeKaJL6x8YCcp7k6tUD/vm5ePXONG04KTBxfC7mcR4o0juMxYPmMZAuMFS08EURieCbQ630Bz0A3Hmm/gNYxaqJwrQSCoIwmq4ocSC1S04rr1V5cSVHTFmXHoSubZnB4iDPTRbrnxjk0sp/zRR8XQYnGMmVsXyGkiRmfpK7ioKi5PguOz4F4jQGZZc70kMEnYQXk8UXhiYVHjKQN/QmXrJ/DkwSOZSESA9F4BnzfDf3TpN6CROTZPuwqAgVQCJr+Dotfeq6HxwcT9HfE+PVP9XN2WvHj9wsYgYWq4rWrDg8+oDmeidNtxdESY77scH0mx1TV4sU3LvHkiT38z58ZZL4geMBE0eO/vz1FQWeZL7pcuTrLFx7t4Hd+agDPWIxVLF68BLPzRRDNSI/iVz82wtR8hf/7jSKLfhrHg0K5irEtqiK8894UJ+MFHj2ZZm5sBq1t9vcrPvdINwfTQrojw6FUjN/8VB+3ior3rha5sljgmYc7+fJnDpJ30/RmFTgVfGPQIlR9ixsLNcoL83zmaJK91h4q2Lw/63DhioOvLWoKjAIUuMrCb2zSCZY5I2wdu5BAgQ5vlAu6ygcT85y/BTHiGIkHS4RGcHSCd2cs/u7NRY73J8gkPFAOjuuDcZgupvnmG4vczPscHMjSlQRDjIVyEWN54FsUSj6vvz/Lofgcnak4vnjM+wqFHXRBUdQkzayXZt54eNhYBmpG+GDG4f979TI38/De1RJul4V5+zo/vlZFk8TGJ6tqFGs1Xjy3CAZioohZcWq+zTvjMXrfX2BfZ4KUchlb9Lj1Rp6pWhxBUTEJ3p6qkH35Mg/s76QzCeIr4sZQ9XzO3ZqjUq0yVfJwiXNttsp337zKjfFUY+E5wtaxLoGCaYCEXrCrO6zcbcyXNX/zoxxQAQO+xMnrZMNlxRBjphbjv50p0510SFgalMbzFHPlJI4kuF7pZeq9Gj2JPDEbwKbkulT9LoQYBhjNK/7Tj3IkEjFECSVtMV9JIMEyLrcWNX/9yiKe8aj6GcSAoxJcyHUz/mqBmo5RcFOUZ23OLlbI1Sw0CcYXPP7LKzlEHPygwiCCY2KUqmk8bfHN13N0pQwYQ9Ex2KLwlYchg5YEE9Uu/vvlMj8cy5OICY4WCk6cspvgJzcd3htzyXkJfCzOTisu5goUdX3+ExkEtgMbk0CrxOG6k82/ynm0DduXo+NMVgBSK9bHIGgEXyeZKseX5yPgY1HUcUptyyKpRl4iUMNmwu0Ft6WMllX2mq+YLCaARPOasSmYLgrVZq6OnwC/WbeqH+NWJQZkVmkAm5ybJe+u1AZBQZoUeZMkXwHankFYdGLNthHImQRUm9cjbA92rAq33itezxRr2v7fyL2rf78sfWMNaPW6rF/mRjqxrDFINex2a1xfuwYRto4tEUgkcEuM3sXdxnrkWGlHTiuiF7ZdWH8OBIiqey8HDa9FsIxH3FSwVZVE0mOov5u+fUNcnSgxNlFG+3a7E2GEuwZjzI72H4MmxS3bQkRwXXedvrIzH2h9Akm4+CZg0CR8D6RK2ipwbG+CkX17KIhHqWpTdX1cz2XzG3gjbA/CE91ks+di3w0ESqylhHQ6ExhoymWq1eoK9+7cp1iXQAawjEtCF1BK05OC4T0WXYNDlCuKOb+T+ZLP2GyNQiGP9jUmzHblcyxlyWdYTuumGrPei196VS/5vvX6dsnAtfK5ey94I08mSOAzKKup1yu/g2a+ZtmdKznOLs2qNQ72qjD1XVuCxuC6mprjkkjESSZTpNNpPM+jUqnged6Ojxm3IoHqlRYxCB5dqsKeQcOBw3vxtWExV2Gm3MHolEO+kEO7gXnJYBHuvqG5s3OJ5259Z2Sre259n024RQ4IzeYrY7kt0LRsyLy9ztxaO1lVaJrVzYJspNesjdubrWzg+Rpba1Y1Za6dT8tg1vD3W/UZZcnvquExv/a9oVeFhnK5SqVaJR6PkUjEERGy2SzGGMrlMq7j0tYSjTNTgge9lxxblUBKKTLZFKmkzUc/8jhz0sds2VB0ktwYr5IvLAa+V9I6RukWF/bVJE/9z9Y9JBLSqjn5XaubyLLdJUsbsY0WS75vJbVq43GwT3OFkhvPuNKbCvzlZA0imaWdqaXQsAusnG5ZXaTlu/pvq5NkrT4fVGnlO8Q0ByXTkqb+R9v+0JCMEi5gB5sdW19vq8stS95788NoQ7VaoVqtYFkWyWSSWCxGJpNBZQTPc6lVa7iuG8zFpcGfe4plBFJKMTQ0xO/+7u9ilI82mlyxwkQhx+R8Dt9KIQY6wo1Tza4s+KLCjVqhEiDNDVUY1bgPCDyGw78D+rS6Z0rbtmmz1ozYAFiNzhTwd5UOaQIHUWlJ17wWSrHWN9JWbJN8zf1Arbe1DhrteegW/gXvXrWltWhXm5qabDu1gt9V+JxmTSN3fa2o8fvSAcbIsnhs0qhHmNo01bJmu8oqzWsQ0cFOWl2PeWAa9Qg2AC9htSx/OgDf9ymVSijLIplIEI/FUKLIZIK5UrVSbq+3sOxZ7haWEciyLI4cOcLP/dzP8sabb+C7mlu3RpEOxVAfGCkTOPQ3w1SICCIWRlmN0VhEQIUjrCiUCmWM1MnSHD6UKCxVr4ogohCrPo8CoyTYPx/eEezaFiylwtGwGTBDRKEsQQVBxBBphlIyGFSYj5J2SRZ0MkWr+artnYQvu6nehmW03mhMy0ez8wRd3WC0QZsWNRYQo1Bh/ITW/E1INr/Fc9rQHHgMoLUJJU3LZz1t8LTh3xrtt7SDEbQJ4yK0uvUYg8YEZeogB7Mk/8ALvtkw2hi0DrzTM26Cvl5NKhkPZzghARtH1Lc+Y3tdV1OFHcfBdRxsZZFIJLDERlkW+/btIx6PUSgUuHLlCvF4/J6QaBmBtNbcunWLb37zW5x66CS2xMh2dDJt0qDj+CbYd2+hURKMpUaFZNAKJIgpoIwEI5GYgGC6HkCiVdoEEBFs1RzBBYXyadxX9yIKyNhMrVS9KzaNCCImNLsTEqitJFRYjqr3+dbLRq/+EkLJ1SpjJJy3iRgQ3SROG4HCrOtqEfW5Xj0f0wxEY1pG+6A6tMcvMIGaHObnm2ZZy6CDOaiY8Ef7bXVXZkl9wyKUMVgEVjwJayON/00wcFkqbKdgoFQEal8q4dCRjRGP20E0I1XXNoJyWptWWtq/Psi2znsbx0SGlsS6im8wpJJJOkZGOHz4EN3dnZRKBYaGh+6JOreMQL7vMzo6yj/+4z/ieFW+hDCYTTIycoixec3FK9OUvBha2RjqBCLUe1sVqSCyTTN0VB0rPWW9Y9Rfsd/QrdfH9rSaaXTulbIPR8zwbTd9A4M0dSIh9Q69YgGh3m6gIRVDpawlUStdGp+t8wnxGr8uLUpaVNBA7ukgCcHUfunzLn3Ouk6gGoVK41PCTyUSSm8QFUhyJYJlhA7P5aCtqVZ9RDQmHDxbS11R3QpJ2Dq3aqiOLeUZY4L5UTpDrVLh2rWr/Pi1Vzl//jy9vT33xGK3qhEhl1vklZdfxdGGsYUK+/aU6Yw7fORUFolnePW9eapuCg+NL6ZBJqh3glBBWn8zPEBjRKunv/tN0TpBb4GBxhGG0ry3MacT05Acq7OnOdyuKDFMi1hdcnVpt2+WsbLK0yixOdELU7Z0zvZatX0pLf/roNc2VLH6lbapSyiYlDF01nIsdhaouQ6C11TNVhk0V6h1S92b91lKkUomSCYT+L5PsVjg1s0x3n7nbV741xf43r99l+PHjt6DPrMKgUSk0Skcbbg4VeOKXyBt+xwYzNBjl3n6wSzpeJYPRhe4vlDBMXGCWUXdG7p1ir4+VlVF7qJcXrUks+SiaQ7Q9cvr5LDRkpYV294iSzrjGtm0R35bMjiY8JtV1FXT9mDS0C0lDAW2pCloKKeiwrBhukX1rP8sk5dtg2sQaqyuwgfz4kQ8TiqVQsSgfR/f93Fdl1q1ysLiIqVSCW3qKu0KRdwFLCOQMaYpCkMSGYGymyLvGmavu6RiNY4Md5NJVHC0T0/SZnBPJ73dwtWLN5iu2Dgmw+1Q6F6MHhvH8tE+WKjcJvXxjowRa9joJCh0LW1z6e2BQDNt12UJmQPVVhEsBqg21XPlZ2yyUQQSiTiZdAYRqFaraF8HO2qNplat4XluMDdrWifqE8VV5dydxpoLqfV6+gI6tPG7JPFczdnrFbQOrFqZeJyK41OtCF3dPZgOxdi0G5psVxp9VsO9aIKNor1ubZ4TW8SdGzxWb8+1Sbt8frTyXablsmnyoW5vWDm35rcSrDem02lSySSe72G0H0gzrXGcGtXq0hBcTQtmw5q3kuZtVpew24lNeGOHXA+tasYYijVN6VaFm2LIdGZRMcLFuAgRVkPdXCFoDa7nU6vVqNVqLab8pZOt+ufO6VsbIlDDc6Kl3u0jWBDQ1jEaJ19BWkajaPNwhJVRD8EFlUqVcrlCe/zSpdKjXV1szLDu0dynjvUJ1JwOLZs8BpBlN5pld0eIsBThskFb51+DNG0p79S88faxjecDmebn6p6HESLcV9ixW7oj3GlsZQhfY4A0rLEedv9hVQmkaFmRbjOyb2CtZqfI1wh3Fy225KDH1B2D6zdsx4SldSJ+74m6qgQKHELrmmqolq16wOvS7yMC7Xzcmc7XXA+vL97eiXLuseWgBdEZqREibAERgSJE2AIiAkWIsAVEBIoQYQuICBThDmA1I9L9Z1yKCBThDqHuZr2Sb/f9g4hAEe4gdoap+U4iIlCECFtARKAIEbaAiEARImwBEYEiRNgCIgJF2GbsHD+1u4ENHG8iiG6Gqbq/jJDbh83GJJN6QLb7AvUYBXXH4521/fpOYFUCNQOLB0EEgyMzZJVYB/dLI23+OWRLmwjvFwYZlgfSvL+xgQ11QbxkQxAOduWTe7afQPeCkkpk05JkY2ee3u8QlLEREwTA/zA0yer7gUJJbHs+WXce7dzE+DYK7+7U7B4wSLagcew4GbyOZrj6OLG5MDCCIeXNI1rCUMU6DP5xf7NoTRUOIGl8DrjjfOTUo2gDoteI/7yNuNsdcquB+Xba1Hm9Iz/WkrSbeb8CVIpCbzoIAL/Tz2jdLqxOIAAEG+iWMs8e60XXo13eBQbdCwJtBTuJPEBboPnbxWbUWAFmZoIT5T5MUZnWnwMJIOExFnK/W73vFQ3uj86mlArPipK7Fhn0XmNNRgQBVoLYXbo1ZnaECGvi/idOHbcV1mrpiLIbBHWr2V2vMwDcuwGzJUylrHLMyq7Ch0P6wDoECrQ3Wdeis3NhAB9LKeLxOJalsKzbOXRl41iPnBuBMQbX9ag5LvUzg3YbmT5sWsqWAivuhlebiNsMDu4hEY9jW82zWlfFJt5/YIHbJgJ5PqVShVw+T7XqtJ1/EGHn4b6OTJqIxxke6qe7qwtL1K4wrRqgI5vBthS3xieDw5vvdaUirIr7mkC2bdPb3R1YEe91ZTYMQ8y2SCYTTXVo91T+Q4f7mkD1xcQNj+CbW4LfNjQPOg7MwFob1J2ZskXYJtx3BGq3DAZxvVstQmtaDu/VSF8nrrR/pY2O9pv8/+3dzW7aQBQF4DNTV7RuEbtUrNhHyitU7Rtmnz5GHqR5BqQKiQ3FjcDGM9MFtrHB5u8abMz5JASJHAPxHP/OXB+roWVXuXycq7jte4tt3zcm6yDtbGGa1sndYkkl3XWVc7zL37Ea3MXt3BZow8Fldzy7gYOI7L6iKvuxpXFvnwY7InZ8D+F+LuhRMzoeIKLLYoCIBBggIgEGiEig0wFSJV/vVk4ptG2EK5Xr1GlsBeRaXXkPhMI0LUtTesbQIumM3fkBjLevUwECipkoHQqQDBDcTHNgfg2cBlcAtNLQFxp6QfXp9CrOxAbz+XwTApd05FHJAyobglz1aII1BvFqxWtYN6BzW6C8aBVj/GcK/+87PM+D53n4cE7vTIXD44iq/lSlPQsOh8FYgyiMsFwusAhDgEMZWq/TAbLO4d8ixPsygtbr0ajnrNUVFJSWbQ2OeV9rLeI4Rhyntfe4BWq702oiXHF16GpsO845GGNgjKlvpnesqh0otz4mqGwnqs4zi+1YuRwdoHWpi1O+flrm88wvyn2XCxPUAa9YpukZzsolLu5dnuwOKyS3Omi+kXgAKmt4pWP9nYlhTQzP263KU/1PUVvPp2nH+qV5+4qKnLZC253zefZUO7UWztq9QVE4vfj8pi7E+pVzWYlPWLs7v2sWNjlYlcf3P+Hnj+9YRQvYOCqMXck9dnjD5wAAAS5JREFUVej0ST7a0vuoob9+RhwtSht2XWtF6wz6X3w8fHuAPvO4ti57AxQEAX69vGA2m+Ht7TeAYroPf3BuR+5J2ja01hfdCrhkgOR0OsV4PG60lFb13RmUQhAEeH5+ztYmacnWsmmJri0Mw+J1vgbsBMjzPIxGI/T7fSyXS0wmk/Xw7uQ4iQGithkMBhgOh/B9/+o1uZVbK7xpEAR4fX1FFEXZ7/LBSV8zOHSqS7SZXq+Hp6cnPD4+Xr1NlgaobGtzbyVbqX6Xatyt2oUDct1Pch+MWxuiXRpgOIjOxQs1RAIMEJEAA0QkwAARCTBARAIMEJEAA0QkwAARCTBARAIMEJEAA0QkwAARCTBARAIMEJEAA0QkwAARCTBARAIMEJEAA0QkwAARCTBARAL/AbWYuuywk1bxAAAAAElFTkSuQmCC;movable=0;resizable=0;rotatable=0;deletable=0;editable=0;connectable=0;" parent="1" vertex="1">
                    <mxGeometry x="50.997812499999995" y="321.00325195312496" width="208" height="243" as="geometry"/>
                </mxCell>
                <mxCell id="14" value="" style="shape=image;verticalLabelPosition=bottom;labelBackgroundColor=default;verticalAlign=top;aspect=fixed;imageAspect=0;image=data:image/png,iVBORw0KGgoAAAANSUhEUgAAAN0AAAENCAYAAACLjWCBAAAgAElEQVR4nOy9eZRc1X3v+9nnnJqnru7qedQAGhg0IIEYZYOxsbGNB+zEyU1uvJKbvJtkhbfec9576yU3zzc3ubaDEYMHHLgBEtsYjO2AAY/BFgiE0IAGJLXU8zzXPFedc/b7o7pK3UJCU9GtluqzltRS9alz9hm+Z+/9279B5HI5qSgKQghM06RChbNFCHHG3xe3OdO2lxNaUXAVFobzudZSyvehJWfHe7X3bH9Xeb7mo1UuzsJyPtdYCLFowjvf9laepdNTEd0SoXJvLh2UxW5AhQqXG9rc/1TephcvizmvO1cqz9F7I+RSupsVKlwCVIaXFSosMBXRVaiwwFREV6HCAlMRXYUKC0xFdJcomUyGYDBIMpk87Tb5fJ50On1Gy6iu68TjcVKpVLmbeVlSEd0iks1mGRkZYWRkpKz7NQyDzs5OvvOd77B9+/bTbtfV1cX27dtLPrfRaJTu7m5mZmbmbTc2Nsbzzz/Pjh07ytrOy5WK6M4BKeW8P6f6/bkwNTXFc889x3PPPVeuJpba0d/fz49+9CP27dt32m327t3L97//fQzDQErJoUOHePDBB3nttdfmbdvd3c03vvENnn/++bK283JFO/MmlzdSSlKpFBMTEzgcDpxOJyMjI9jtdtrb27FYLGSzWSYmJpiensbn89HW1obVai2JMBaLMTw8jBCCZcuW4XQ6icfjHD58mF/+8pcIIbjnnnvQNA2fz4fP5ztte9LpNIlEorQPRVFwuVyEQiHsdjsOh4PJyUl8Ph9/+Id/yObNm+edSzQaZWRkBE3TSKVSCCFIp9NMT0+zZ88enn/+eaxWK+vXr8dut1NdXQ0UFrxjsRidnZ2oqkpzczMul+v9vfiXKOqXv/zlLy92Iy5mTNPk6NGjfPvb3+bo0aOMjY3x9NNPs2/fPtxuNzU1NezYsYOnn36an/zkJxw8eBCr1crKlSvJZrP09vbyzDPP8Mwzz/Dmm2+SzWax2+0MDQ3x1FNPcfDgQSKRCNFolK6uLpxOJ62traf16ujt7eX1118nkUjw4x//mKmpKRwOB9/97ndJJBIAPPHEExw9epRwOExtbS1r164FYGRkhB/+8Ic888wzHDhwgK6uLjRNY9OmTfziF7/g5Zdfpq+vD8MwGB8fZ2pqiubmZkKhEK+88grj4+P09/ezc+dOAJqamrDZbBUPlHOk0tOdASklyWSSvXv3Mjo6yp133omiKLzzzjvk83mqqqp45JFHAGhsbGRkZITHH3+cW265henpaR566CFeffVVNm/ejNVq5c033yQQCODxeNB1HdM0kVKSy+UwDAM4vRuVlJJYLMaRI0c4evQojz32GB//+MdxOp389Kc/xe/3s3LlSvL5PN3d3bz11lvY7XY++9nPEovFeOGFF3j88cfZsGEDmqYxNDRER0dHqUcuzu1M0ySfz5faV2yTruuoqkpXVxfHjh3D6/Vy5513vt+34JKjIrozoGkaV155JR/72Md48cUXue+++1i2bBl79uxheHiY/v5+ent7+eM//mM6Ojo4duwYe/bsob+/n/HxcV544QX+5E/+hL//+79H13VyuRxOpxNFUaiuruZv/uZvUBSFRx555KyCQuvr61m5ciVvvPEGDocDt9vNkSNHCAQC3HbbbVx33XVs2rSJ5557jgMHDqCqKgBDQ0Ps3LmTNWvW8NBDD+Hz+Xjqqaf4zW9+Q2trK3/2Z3+Gx+Ph+PHjfPSjH+Vv//ZvS8ft7+9HCMHNN9/Mo48+ypNPPsk//uM/cujQoYrozoOK6M4Bp9NJe3s7Xq+X22+/nXQ6zXPPPUckEmH79u0EAgHy+TyrVq1CVVWklGiahsvlQgiBxWLBYrEAJ4wuxVg5KeVZDdNcLhcej4dQKER1dTU+n4+9e/fidDppaWl5136klJimia7rZLPZUhsURUHTtHmxb8Vti71bsY1z23ryfitDy3OnIrqzoPjQFv+dz+fRNA2bzUZtbS2BQICPfOQjfPzjH6eqqgohBB6Ph+npaSwWC4cOHeLo0aO0trZimiYul6v08BeNINFoFJvNBhTEDRAMBjl8+DBVVVWsW7cOAKvVimEYjIyMUFdXh9/v5/jx42zevJnq6mry+XypjVJKDMNA13Xcbje1tbX09/fT399Pe3s7oVCoNLwFsNlsWK1W4vE46XQaIUTp5VEUc/FnKeOABAlUtHf2VAwpZyCZTLJ7925efPFFhoaGSlbDZcuWoaoq6XSat956i+3bt5NKpRgdHSUYDLJmzRqklIyNjfH666/T09PD5OQk/f391NfXlyyUY2Nj7Nu3j1wuR1dXF7FYjBUrVgCwZ88e/vqv/5qpqSnuuuuuUh6bgwcP8tJLL3HLLbfQ3NzMCy+8wNq1a7nrrrvYv38/v/71r3nzzTc5cOAADoeD+vp62traSKfTvPLKKwwPDzMyMsIrr7yCw+HgnnvuQVVVstksXV1d9Pb2ks/nGRgYKFk5f/vb39LQ0MBHP/pRDh06xI4dO9i0aRM333QzAKL0V4UzURHdGYjFYuzatYvBwUHq6+sZGRlBURRuvPFGAKqqqli1ahUzMzNMTEzQ29uLoihs3bqVqqoqrrjiCtLpNNFolOHhYaSUrFmzhkAggNPpxO/3Mzk5yfHjxxkfH6eqqoqNGzcChZ6ur6+P1atXc8MNNwCgKAqxWAyAT37yk1RXV5NMJrn55ptZtWoVO3fu5Je//CXpdJply5bhcDiQUrJu3ToaGhrI5/OMjIwwMTGBy+Vi8+bNXH/99aiqSk1NDbW1tQwMDNDb20s8HqelpYW6ujpSqRRr165l48aNRCIRstks119/PatXry70chXBnTWVeLqzQNd1MpkMQGluVlyHKw638vk82Wy2NI8rDhGLQ71cLocQojQsnTuPyufzZDIZVFXFarWW5lqGYZDNZlEUBZvNhpQSRVHQdZ18Po/Vai3tX1EU7HZ7yVhTnHMV527FoWvxWIqioKoqQojS7+a2N5/Po6pqaf6n63rp3IvH1zStNEetcPZURFehwgJTcQOrUGGBqYiuQoUFpiK6ChUWmIroKlRYYCqiq1BhgamIrkKFBaYiugoVFpiK6CpUWGAqoqtQYYGpiK5ChQVm0UN7il5ouVwOXdexWq2oqoqiVN4HFU5N0T+06Au61GL6FkV0RaHl83nGx8c5evQoPp+PlpYWamtrK4Kr8J6Ypkk4HGZgYIB0Ok1dXR2tra14PJ4lIcAFFV3R8z0YDJbyK2azWY4fP84111zDmjVrcDgcC9mkCksQTdNQVZXJyUl6e3uprq6mu7sbt9vNqlWraG5uvqhf3AsSZVBMY9fZ2cnU1BS5XI6hoSGSySS33XYbN91005J4Q1W4+NB1nYGBAV599VVmZmZoa2vD7/fT2trK8uXLS2FUF9PzVXbRzc3RURwGdHZ2MjY2RiKRYGZmhquvvpotW7bg9/sLjZhTU/tiujgVlhaZTIadO3eya9eu0lRFVVVWrlxJS0sLVqt1sZsIvA+i03WdRCLBwMAAg4ODCCEYGhoinU7zxS9+kUAgUBHYJcrcR2kx761pmgwODvLKK68QDAZZtmwZtbW1NDQ00NLSgtvtXtT2lUV0UkoikQg7duwgGo2SSqU4dOgQ+/fvZ9OmTdxxxx2ljFilA8/5dzH71MXK2d6gU53f6b578udnc4zTXb/TbXemNpzLvk613dm2B5g3xzqXc32vc3iv6z3XKn748GGOHj1KQ0MDq1atQkqJrussW7aMK664Arvdfsb2lJOyiM40TYaHh/na177Gjh078Pl884aPxQt+ugtfTLJ6Kk5u3tk+IKf67oVwcvq5U/1+7o2f++9TncO5COPkOcnZCHrunzOd07luc7rzPJm5560oSun+n5za773O4b3ad7aiLx47nU7T1dXFa6+9hq7r/NEf/RGf//znS6njF4qyDS8Nw2BiYoJf/epXjI2N0d7ejt1up7W1lY6ODrxe77suOpz5rXeqXvBse573y0Z0rvs9XcGRcxninEn073XsC+F8v1+0VJ/P7+Ye83QCPXkfc7c7ed/FLGf9/f1ks1kikQh+v5/bb7+dtWvXLvhcr+xzuqLx5De/+Q3Hjh2jpaWFQCCA1WrlhhtuoKqqqpyHq3CZcLaPafHlZBgGY2NjdHV1kcvlmJycZGZmhk2bNrFx40bcbveiLSu8r9bLfD7P8PAwu3btoqenh02bNmGaJs3NzVx55ZW4XK5SxqoKFc6F0z22sViMrq4ugsEg0WiUnp4e6uvrufPOO2lra7sojHfv+zpdMctwKpXi1VdfZf/+/Vx11VXccMMNhMNhRkdHWbt2LQ0NDReNSbfC0iGdTjM8PMzw8DButxu3280777zD+Pg469evZ8OGDfOmNhcDi5KCT0pJOBzmzTff5ODBg6xatQq73Y7X6+XKK6+kvr5+oZtUYYE53WN3tj3R2NgYnZ2dpFIpEokEIyMjNDY2snXrVlpaWi6KHu10LGreSykl6XSagwcPsmfPHux2O1u3bmXVqlWL1aQKS4SjR4/yH//xH9hsNm699VZWrFiB1Wq9qMVWpJJstkKFBebiGehWqHCZUBFdhQoLTEV0FSosMBXRVaiwwFREV6HCArPoOVIqXF5cLOE/i0lFdBUWlMtVaHOpDC8rVFhgKqK7iCimljNN830LS6qw+JRleCmlJJfLkclkcDgcpVyEhmEQj8ex2WylLF/5fJ5kMonVasXpdJYcohOJBJqm4Xa7gUJoRiwWQ9M0PB5P6Vi6rpNOp+d9ls/nS58Vhy/FtBEWiwWXy1X6LB6Po6oqXq+3VO87lUqhKErp+8X2KIpSing3TZNMJoNpmjidTlRVRUpJNpslm81it9vn1fVOpVLYbLZSVHKx3RaLpfSZaZqk02mklKiqyjvvvMPevXtpa2vjpptuwuVylWqNF49js9lKyXZyuRzpdBqr1Vq6vrlcrnR9i+d9qs+K+zQMA6fTWQq2zeVyGIaBw+EoXctcLkcqlSrdMyjEqBU/c7lcpe8Wz3HuNS/WOC9+t3gtABwOB5qmlVwCdV0vPUNQyHsy9/oW71k2m0VV1VI7DcMoHad4LYqfmaaJ3W7HYrEgpSSTyaDreumzhUb98pe//OUL3Ukul+PgwYO89dZbBAIBvF4vAOFwmB07dqAoSik3yszMDDt37iSfz9PQ0ABAJBLh1VdfJR6P09raihCCeDzO9u3bCYfDpZCMoqP0gQMH6OjoKIlhamqKQ4cO0dbWVvImD4VC7Nixg3Q6TVNTEwDRaJTXX3+dSCRCe3t76dhvvvkmU1NTtLa2oqoq8Xic/fv3MzY2RmNjI5qmkU6nOXbsGP39/dTX12O1WsnlcgwMDHDkyBHsdnspVnB6epo9e/agqio1NTWla3Ho0CGy2Sy1tbUAJJNJOjs76e/vZ2xsjK9+9as88sgjHDx4ELvdjt/vJxAIYBgGw8PDHDhwAE3TqK6uRgjB+Pg4+/btQ1EUampqEEIwNjbGrl270HW9dH0nJibYtWsXqVSKpqYmhBClLFqjo6M0NjaWruXQ0BBDQ0Pz8o+OjIywe/duDMOgoaEBKSWjo6O89dZb845TbE82m6WxsRGAYDDIgQMHiMfj1NXVoSgKkUiEI0eOMDU1RVVVFXa7nUwmQ1dXFwMDA3g8npJo+/v7OXz4cOn6SikJBoMcOXKEbDZLIBBACEEikeDo0aMkEgnq6uqQUpJMJjl27BgDAwM4nU48Hg+GYXDw4EH27duH0+lc8KhxKFNPZxgG09PTBINBTNMsCcQ0TXRdn/dZMT+FruvzUhlks1ny+XwpHq/4fcMw5g21DMNA1/V3ZR0rZvyFE9HDxbd2kZOjkoUQKIqCYRjzhnTF489tT/E4uq7P21+xPSd/Vvzuydcpn8+X/l9s9/Hjx/nlL3/Jyy+/jJSSo0ePcv/996Presn5u7jtyRHSxWtx8vFPdey52xa3K96buW0qnk/x3E8+n+L1MQzjXak25l7L4ndzudy72m4YBoqivOvanry/k8+x+J2T72Xx+pyqPSdfj2KcXVtbGytWrGChKVuOlHQ6Pa9rP1vmPtSXE0XRTE1N8dhjj/E//uEfcMy+zROJBIlEkttuu5Vt27Zx7bXXXpbX6P1ASkkikSAYDOJ2uwkEAgvehrJFGVTS6p0bUkqmpqZ49tlnefiRR5icnGT1qlWsXr2aiYkJ9u57G0Uo3H33x7jvvvvYsGE9qqoudrOXPBfDOmHZhpehUAghxKK8OZYa+Xyenp4efvCDH/DMM88wNTXFdZs284HbttLa1komlaa6ppbXXnuNF198iXg8zhe/+EVuvvmmyvW9QIrzWcMwSunZF5qyGFIymQz79u1jZmaG9vb2Sm/3HuTzeY4ePcq2B7bxrW9/i1QqzfoNG/jC736BG7ZsobWtnZaWdjqWLSeby9HVdZxD7xziwNv78XjcdHR0lIwMFc6PyclJOjs7MU1zURJllW2dbu7ku8KpyefzdHZ28sgj3+AHzzyDxWJlxcpV3HjTLVx77TqcLjcIDRSNhqYW7vzwR7j+hhvw+Xwc7+rioYce4plnnmFycnKxT2VJE4vFOH78OGNjY4vyvJalp1NVlUAgQGNjI3a7vdLTnQIpJX19fTy47UG+//TTSClZtmwlN998K5uvv4GGxiZAQSJACFAETocTr9dLNpMmODPN+PgYPT09+P1+1q9ff1El21lKWCwWampqaGxsLK0LLyRlmdMpioLf779sLZFnQkpJNBrhZz/7Gd/93vcAQUtLOxs2bOamW25l1eq1s2Kj8BMAgdPpZt26DVgtGlaLlddf30F3dw9PPfUUa9as4eabb64YV84Dn8+Hz+dbtOOXpaeDy9f0fzbEojF+8Ytf8PjjjzExOUVrWzvXbb6eW7d+kGvWrUMoClII4N3Xz2K1UhsIEKgJkNfzTE9PMTIywsjoCK0trbS0tFR6vCVG2TxSjh8/TiwWW5QV/osV0zQZHhrm6aef5sknnuLo0U6uuvpqbvvAVm699TbWrVuPoiqcSmxAYZgJaJqFKn81jc3NWG02JiYmOHL0KN09PTjsdtxud6luRIUzMzMzQ1dXF7qul7ynFpKyWS/3799PIpFg+fLl5WjXksc0JUNDwzz6ne+wbdsDDA0OsvLKVdz7+c/xgQ/ezrJlKxBCpSi40w4SRGGOp2oWagK1dHQsQwhBb08PnUc7S65YHe3tlRfeWdLX18cbb7yBxWIpuQMuJGUzpPj9fhoaGirmbApD7eHhYb7zne/w2GP/TCqZJFBbz/U33siH77qLmtp6pFCQAiSUfp7N4NzpdBKoqSGXyzE9PWtc6e0ml8vS0dFR8sus8N643W6am5sXZW5XFtEVvfFPrkF3uTIxPsljj/8vvvWtb5JMJqirq2fT9Tdwx4c+xIqVV1K0UsriNG7WYHlWV04InE4XjY1NSAGjoyPMTE7R29tbKtKyGJ7zSwmXy0VTU9OiGVPKZkiBigsYQCqV5le/+jX/+D//gWg0TF1dHTdsuYmP3X036zdsRAiNkrzmXK5Tm1FOjZgNQ6qtrUXXDaamp5ianCISCdPU1ER7e3ulLsRFTFlEV6zOE4vFFtUUu9ikMxl2797Do//8HQ4efAdfdQObb7iZT37qs1x1zXqEakGcrLQ5/zxr0QmBqml4vT7q6xsLjtOTUwwODNDb20NdXR0dHR0V4Z2GdDpNKBTCMIxSbOJCUhbRZbNZ9u/fTzgcviwNKVLC9PQULzz/Ak8+9RS/fXUHjVdspnr1baza+EE2bFyPx2kFJEqxuujsXyWxybMXHZyoVOr1emluasZmsxEOBzl+/Bjd3d1IKbFardTX11dGIHOQUjI+Ps7BgwcBFqVYTdmGl5qm4ff7L0vT9czMND94+lm+8tWvsGffAXytV7H6w19EdmwlaWvEkDo1TgW3w4LgRJXQ4mLBhUhCVRSqfFUsX74cq91Kf38/PT09vPHGG6Ui98Ug04r4CqRSKVKpFNXV1Yti8S2r9fJyE1whEj7ID599jm9+85v0DY7iqFtJw/WfRrZuIWWrJyUtTMdymLpOtVPDbZUUbZVCniS6M2jiVL8uft/hsFNdXY2u60xNThKcmWFoaJBQKERHR0cpOvxyRwiBx+Ohra1t0ZZYympIudwIhUL88IfP8Y1vfJPungFcdVewYuvv4b3mLuKKHxMNQ9HIohGMJdHIs7LWOmupFPPsKYLC0sHpEICQc/4z93cCBBKnw0l9QwNIyeTkJMGZIP39fRiGwZYtW0o5SiosLmURna7rTExMkEwmF8WBdDHI5/Ps3r2bv/u7/4+u7n4cgZWs3Pr7+Dd8kmndAUIrLAvMbp9BIZPJUWdNUe11oIgT87oiJ///tJxiGwkIoeDxemlqasQ0TMYmxolGo0SiEdxuN23tbTidlWWdYrKkYkKohaas8XThcJiOjo5ytOuipOhfGomEeeU3r/D9p5/htV2Hca/YQu2me6i97hNM6zYQJ25koRcTSGElmTUJhqIomgVNEbjtFkoWFAHidF3ZnJ2dXi+FXxaGT14aGhux2x1IYHBwgMOHD5NMJrE77DQ3NV3W/pqTk5McPnwYwzAWxZmgLKIzTZNsNovb7aaurq4c7bpoiUYjvPzyy3zlK1/hldf24lvzURq2/hH2lTeTkLZ5UQICObtEUPjMUCwEDSeDUylyWZMql4bHoSEwZ/vEubFd5/sgCKQQeLxerrjySurrG4jHohzYf4Ddu3czOjpKc3Mzzc3Nl22EQjQaZXJyspQjZUmKTtM06urqLnnBxWIxfv6Ln/PgQw+xf/872BtX03DHn6LVr8IQViSSEzbJ+UgkUgikopI3NcKJHOlsGp/ThnfWqnnCsik4X9tm0a0MwGqxEKipQVVVBgYGCIeCDAwMMDw8TEtLSynl4OWGx+Nh+fLl1NbWLspQu+KRclZIEokkr7zyCg8+uI09u/fh9DfTcsOnsa66HR0r84VS+M5cxNx/KRpZVILpNOlUlmqHFZ/TgsCY7fEUkHP2dQ6X9cT6X6GPtVgseNze2WFxhEgkzODgICMjI7S3t1+W6TWKa5yLRdmGl5FIhGQyOS8z8KWBJB6PsX37qzz08MO88cYu7P5Glm35NIFNnyEmvAh5CqvIKZjbb0mhomMlljYxDYPWOh8WxUSRIIQ6u6088cVz4MRxBEIouFxuGhubsFishMMRgsEgg4ODJBIJ1q9fVzKdX1r37fQUc6JeEoaUycnJUublSwXDNDnaeYy//+//nVdf24GzuomVN92Lf8M9hNQapLDOsW4ITu7hTo8ArOjSTjKvoGhQ47FjV9VCfynM+ZteIE6nk4b6ejRNIxwKEQwGmZ6ZJp/P0dHRUcoQfTlQNKToul7KwL2QlEV0xQzPdrud5ubmS+bmpVIp9u17myefeIrnX3gJf/0Klm35JIGNn2aGALrl3BLrnkzBqqkQzxlMRVJIFCxmFo9TQxEmBctmea6lIgROp5P6+gZ8VVUoisLo8AhHjhxmenq6IMqGBjRNu2Tu36mQUhKJRBgbG8Plci2KHaJsyWZNs/BmvlRM0ZlMhjffepP77/86v/rVb6hpuoIrb/0c9ivuYBofOcUxx6HrwlGlgdOMs8qT4INrq7iy3o4F/YQtdE4K+gtBSNDzOXp7+/j3Hz/Hr371M3LZNJs2beJLX/oSd9111yU4RXg3i/m8lt2QcincrEwmw+49u3lw2zZ+/rNf4Pa3sfYDn8N25e1MyQB51V5WwQFIoWAIK7GsJBqL4XUo+N1WVE5kzi7XtVVVFX9VFQ6nk/GxUcKhIENDQwwODlJXV0dbW9slH6GwmM9q2QwpiUSiVNJoKZPNZtizdw8PbHuAF3/6M+yuOpZd/zH8Gz/BBFXoqgNzfoBOmRAF48qs8CLROH6HQp1nNmGbEIVwhgs5wpxIBlVVcbmc2O02EskkwWCIocFB+vp6aWlpYfXq1Rd2OhcxxSI2sIR7ukwmw4EDBwgGg7S2tpajXYtCoeTXAbY9cD8/feFFbK5aWjd+hMD1n2JGayCveACVuYnyykUpbYMQmMJKIgf5dJyOGgWbVUOdXQQQ82yg54YQhWMUX/B2u526+npcTiepZJJQKMTg4CCRSIRrrrlmUcJeFoLp6WmOHj2KruuL4qRftiDW/v5+pJRL2g1scGCAr371K/z4J89jcdbQuvEjVG/6FAnXMnJaUXBzTPllZK6MJAJdWNF1A2suiN9pxWWxzhEdZbFoCiGw2xwEamvxeb1kshlCwRCjoyMEgzO0traWavtdSvT19bFz507sdvuiPK9lC+2pqamhrq7unEtlXQzouk53dzff+ed/5omnnkXzL6P91nupWv9JEu52dIun5NClvA+CKzJvHQ9BxoBoMksyrSMkeD3OglXzHBIZnfZYxR2IQo9XW1tLXV09msXK8PAw77zzDkNDQ7icTvzV/kvKuCKlxO1209LSsii1DMpaKmvp3RRJPq9z7NgxHnzoQb77/R+hVV9Fx9bP41v/YSI5O4ZaGPMrJrO+lGe/EndhLSsMBVUMHPkYbfY4d1xVzTUtTqxCR0hZas/57F3IYmTC7DK6BMMwGRsb5vnnf8JLP32BaCTM6tWr+a//9c/47Gc/S0NDwxK8x6dmMUu7laWnK05MTdNcQr58hWqgPT29PPjgg3zve0+jeZpZ9qH/gvea24nmbUilYMQoOGQtbKGJE4+CgqlYiOdNpsNRnDYLAZ8dTZgIcT6ikyedi4mQs0G1QsHj8eL1ekkkYkSisVnjSh8OR2EodimEbhWruC6WBbNsGZ47OzuZmZlZMpNvw9Dp6e3lG9/4Bk899W+YipO6a26ndut/JpKzgGItOQ4XepWFZ+5Q01A0EjmYCUdw263UeV0o0jjnl0HRvUwANpsFX5UHi8WCYRqzD6KKw+GiJhBA13XGx8cZGR6mt7ePurpa1q1bt/JnQIQAACAASURBVOTXYqenp+nu7sYwjKWd4Xnfvn3E4/FSjeyLndGxUR544AH+5V+exFQcBFbdSPWmT5BwdCAUyxzBlcVmcYEIJBpStZLQJbF4lvrqarx2gUr+nNqnABITi0UlUBugqbEel8uJaRrk9TyGXkho5PN5cXs85HI5ZqanGR0dnU08tYzm5uZ59cKXEsXqSa+//joWi2XpGlKEEAXzc13dksiTkkgk+NnLL/OP//Mr5KWFqpWbab7lc4imDRhKIUP1iR7hYqi3V2iNicBUrGRNK8mUiduh4ncpqNI44x5KSInFohEI1FBbU42maWiait1uQ0rIZXOYponFYqXKX42/2k8um5t1kh5gZHiE5ubmJRsWVPTssdvtNDU1Le3ERNXV1fh8vov67WeaJqOjozz55JM88+wPmQomWH3T3diu3Iq1Yws5ccJKeaFZusrNCaOJQt5UCScNIvE0FsXE71CxKmd201QQOB026uoCBGpqsFq0UmS7RdOwWW2oqoJpGuRyOSxWG35/NQ0NDVitFkZHR+ns7GRgoB9lNuHtUqyf4Ha7aW1tXfqJiUzTxDCMi/btZ5omo2NjPProt/mnr93P+FSUa7Z+irZbfoeYayUZiw9DKCeS/1zMCIGBSjieZ2ImgsUiCLjtWNXTCE/KWYdnB431tQRq/GjKu71qNE3F5XSiKoJkKoFhmGhWK7W1BdcwwzAYGBigs7OTvXv3FgqXdHTg9/sv6pftqVjy1stiqazp6emL0pBiyoLgHv9fj/PtR/+ZRNKgdvkmVtz++wwZNWSsfnRFnU1XsjQenkIUuoWErjATjmPVBDVuC3Zt9mFifk9tt9toaKjDX+VFPZGIbN5PAbPZoxWEkORzeXSzEOng8XipDdSSTqeZmJhkamqS/r4+8vk87e3tixIicz4U0ibOcPz4cfL5/KKMzsoiulQqxRtvvEEoFGLt2rXlaFfZKGT0neCxxx/n0UcfIxLL4m66iqbr7yFVs5a0Vo0hNISc5++xBJgtQKJYSOoKwWgCtxVaqy2FQvJijtOYAK/XTUNDLYo4eS8nfs71y7Tb7SiKQi6bR9f1QpEYt5vaQA25bI7JyQmmpqbp7+vD6/Vy3XXXYbFYlsR6bXd3N6+++mrJkLIkRQcFx9GLMU/K9PQ0jz/+GN/61qMEwxmcDWtYftvncK3+AAnhxRTaRTmHO1skhR4vpaukEzEaHTrVbtuJDGOzWzkcNqr9vnnneKrzLs7xNFXFZisE6OayOQxdRymWRKuvJ5vNMTk5yfT0NOFwiPr6etrb27FYLBe16IQQmKaJzWajtbV16QaxXqyJiTKZDK+99hr/7b/9HcFwElfTFSy/9XfwrLmDMC4MRTvp4VyaSASGqpLN5slGp6hyqvhctlIGCWmaqKrA6XJgnVNG60wvGlVVsdlshR4vl0XXDYSqUVVVRV1dLfl8numZGfp6e+nt7aW2tpb29nZsNtv7fMbnj5QSj8dTquW3GJS15jhcHHk2pJQEg0F+9KMf84MfPMs7xyeovfZOvNd+hNprPkzYcGEoasmla6n2ckWK4jLQiOVgMprFEAKbVcFpUVGQmIZBPp9DCAWrxYKinF28gqoq2GxWbFYrhqGTzeZQFAVfVRXNzS047E5i8RjHOjvp6ekll8vicrku2sIlF0PMZ9kMKceOHSMUClFbW1uOdp03RcF9//tP87Wv3c/+IwPUb7yX2lv+E0rzdSSxI4UyL0jm4ns0zp1C6geNjOJmOmNlMJgqJFN1WXBZFZCSTDpLOp1F0zRsNmtJeGdCVRWcDjuappFKpQtzPFXDX13NihUrEYpKf1+hcMmePbuJRCJ0dHSUCpdcbBRDmAzDWJRCpmUzpOzYsYNgMMhVV11VjnadF1LKQn2BZ5/j4YcfoX9wHEfjWpo+8ufkXE1IrZgqr/hnKawPnCsCFI2MrjITT2EYOfwuC06biiJA1w2y2SyqqmGzWlAV5axDFjRNQ9U0ctkseT0PCGx2Oz5fFYZhMjMzw8zMNP39fWiaxqZNmy7KqJPe3l7eeOMNNE2jtbV1aYoOCoaU+vr6RZ3XRSIRfvzjn/DQQw/T3TuAI7CMlhs/DW1bkIqFE3kpL0WxnUDORqFnDJVwLINVU2mp9WLFQKWYyz+LxaLhctjPuqtXFAWbzYamaeSyOXS9kMPF7XJT39gACGZmpgnOBAmHw7hcLtra2i66OvS5XA6AxsbGpW1IaWhoWFTBRaNR/v3fn+ehhx7meFcvjpp2rtj6Bfwb7iaJk5Oj1S55hABhISs1ElmJ02aj2m3DohSyjOmGjqEbOOy2WYvj2e1WUQQ2mxWL1UoulyefyyOEgtfrob6+MJycnplhYKCf7u4uHA4H7e3tF1V0gsfjKa0tLtnF8cWiaLyJx+O8/NLPeODr2zje00vTimupX/8x6q77DNO6C6leKjO3c0QITGEhkRNMRdOAxK4WfDYVCqkTc9ksihCFoaOizB8InOaSFYVntVkxTANdNwCB1+Olvr4Ol8tNNpPm+LFj9PR0E4/HcbvdpSj0xTZkFI0pSzoxUS6Xo7u7m2g0uuBm2Hg8zs9//nMeeGAbRzqP03zFelbcfC+WlR8kKPwY6mxin8tRdMyuSwmNZM5kbCZKNpehymXB67QiTYNcNkcqmSqF+qiK+u6Fu9Ps12azYrPZyGayZHMFy6jb62XZsmXYbDZGR0YYHBxkz549jI2N0dzcTEtLy6KHBsViMcbGxtB1HafTuTTndKlUiu3btxMKhVizZk052nVWxONxfvWrX/HAtm0cOPgOjSuuZcVN95Jv3kJErUVXZ0tRXaaCgxPLCVKo5KRKJJkjk8ngc2h4HBYUIdENg0wmDYDNZkVT1bMy687GnJPJZkgmU0ihgCJKoUGqqhAKhQiGgvT09jA6MkJbW9ui108YGBhg586dKIpCS0vL0hSdlLJU66uxsbEc7TojyWSS3/72tzzwwAPs2rUbV00rq2//fWi7mZASwFAts/XeLm/RFRCFOZ5qISetRFI6qWSaKoeCz1GIi9NNg0w2g5Bgs9sKwnsPJIX7nkyliUQi5PJ6ydtaCFEqm6aqKpFwmFA4RH9/P/lcjvXr1y9qCFgymSSTyVBfX78oS1xlM6Q0NTVRW1u7IEOHYs/6wAMPsGPHTuzeRpZt+QyOq+4iqNRiqJbC213K2bpRl7PoxLw/UmjkpJVYysBiZumosWBVBSgCwzTIZtKoqobb5TqtcaUgOEimMkxNzRCLJwsO2HOvs1BmF8kbsVgsRMJhwpEIwZkZpJS0t7dTVVW1KD1e0apaV1e3dPNeQuHtthAnkE6nef311/n6/V/n1e07sHsbWXnTZ/Bv/jQRtQ5DWGc1VhHc6ZBCkJMWjHwaL1H8LhtWreChYxgm+Xwei9WCzWZ/l4ucnE1olExlmJicJhKNF/J1njQeLYhJweUs1AuwWqxEY1FGRkY43tVFPpcr+T4utPAURUHTtEWbW5Yt7+Xg4CDhcPh9HTZkMhneeustvvZPX+c3O3ZjbbiK1hs/R83mewgpNZiKnctiOeCCkUihksgaBBMZsnohtaDXZUdgoud1MtkchWRFhRp3RVnouk4smmB6Jkg4Fod5Pdwc0ZWOJAqFOurrqfbXoOfzHO/q4ljnMSYmJnA4nDQ2Niyoo3Q6nSYUCmEYxqJkJC+L6NLpNK+++ipTU1PvmyElm8mw+63d3P/ANn7xyhtYWzfR+oE/wrfubqL4QLVV5HbWFB5uQ7URMb0Mh/NE42m8To0qlw1NCnQd4skUuq5jtVqwWizouk44EmFiaoZ4Mo0U84eupzzKbGyRY3ZIZ3c4GBsbY3RklP37D9Db20MgUENbW9uCOEpLKRkaGmL37t0IIRbMBjGXstUySKfT+P3+9yUjcDabZe/evXz9/vt5+RevYG3eQPsH/xNVq24loVtBKCyNkO/F4vTCkKjkRaE4ZTQWx+PQqHbbCgmMTJN8Lk82nyev68TiCUKhKOlMlpJx5hwo1E9wYbXZSadTRCIRBgYGGBwYpKWlZcGSWkWjUUKhENXV1YsSdF02Q0pjYyONjY1lHydnMhkOHTrE/fffz0svv4TF10jbnX+Bf9WtJHRLQXAV3oP36o2KnynoQiOakoSjCTwuDb/HhooBUpLN5YgnkiRTKfJ5/cR3z2M46JyNQHC7PaRTKULBIP39/aSSSdasWfO+RycIURjuNjc3U1dXh6ZpZ/5SmSmr72W5BFfss3K5HEeOHObr93+d559/AdXuo3XTx/Ff/wUSumV2eFPh/DkhRImCiY14GnJ5nYZaH05LYa5XdFIxS99hjuDO/R44HA4CgQAup4NkMkEwGGJkZIRYLEpHRwd1dXXvq/CKPqSWObGFC0lZ1+nKkZjIRCJlYcJ+5MgRtm37Os899yM0u4+ODR+metO9xK31hYXYCuVDzNbIU6ykTQ3dMPG57LisAiGME6udQsyZrM39eW447Haqa2pwOJ2kUmnGx0Y5fvwY4XCYtra2BUnhvuTdwN555x2CweAFDw9MQM/n6Tp+nK999Z947kc/wumuY83Nn6Jq/SeIezow1KVdA++iRYApBCldEk7kSaXSaOj4PXYUzDkyuzDBFbHa7ARqAtTX1yOR9Pf3cuzYMYaGhrBarYXe8H2IUJicnOTIkSPour4oBUTKIrpi+m3ggt9Qhm7Q29PN/fd/nR88/RzeqkY23PE71Gy8h2l7K3nVRSFEp8L7hlDJmgpT4QShSBS3TaPa6ygJr1z9gxACm91GU1MT/qoqYtEoo2OjHDxwkCNHDuNyuVi+fDlOp7NMRywwPDzMoUOHcDgctLS0lHXfZ0PZDCktLS0lwZ2v6HRdp6+nmwe3bePfvvs0dl896z94L4HNn2RQ95NT3UguzryalxpSFLJJx7MGwWgMt12lxm3BikRRylkwrGCQcblceDxeMpkMwWChHPPQ0CBNTU2sXbu2fPYCKUu9aENDw6LE+l00NccNw2Cgv5+HHtzGU099F83hZ+0HP031dR9jSK8ho7oqgltohIKp2IjmJMFIDJ9N0uizopTdy0dgsVrx+6up8vvJZrNMT08zPDxMLBZl+fLlNDU1laV+QrEEQHV19aIF114U8XRFwT380DaeeurfMISdurW30HHb7zJq1pJVPLOCq1grFxyhYAobsawkn4rS7AO33YpAzlkbPd19Ofv7JYTAZrVSU11NVZWfXC5LMDhDf38/ExPjpbCgcmQQX+wkWmVZpMhms3R3d6Oq6jl7pJimycjwKI88/BBPPPkkWcNC1YqN1F33CSbMWnKWqvehwneFc0FBQSpehhJZ3jw2zU2rBI1+17yqtO9evhHnHOAhhcDhdHH11ddg0VQ0TWPHju38+te/Rtd1dF3n1ltvvWDPlUgkwuTkJH6/f+kujufzeXp6eshkMrS1tZ3196SUjI6M8pWv/hNP/uv3Max1NN54L+6r7sLRtpGs6sGsLA0sKsVSYVIoZFAJZyShZMEv0+WwYdVEIWt0oazrSV8+n5elQLNYqPL7aWxsxJSS4aFhjh8/Tn9/H6Y0qary47+ACIWi9bKYZmShKXvN8bNxIJVSIk2TyYlJvvXNb/HwI48iHC20bv0Dam76AkbVcnKKHakUEwlVWDREIVhDCjCFhaTiYTwhGA8lsKgKVR4bNlXMDjdnv3CBx0OAplkIBGqpCdSSSmeYmJigs7OTgwcPkM/rtF1g/QSbzUYgEFiU3C1lq09ns9nO2mNbSsnk5BTfefRRvvPPj6Nbm2i75XfxXXc3GcWDVLW53rIX2rwKZUQgkIqVVE4hFE2gCRO/14ZdA7UYTVWGoxQW4QUet4vaQC153WBmZpqJiXH6+vqoqalh3bp15+VVYrfbS4K7LBITSSmZnp7isccf41vf+jaJrELbbX9A1eZ7SCguFMVyylCRChcPEgWpWEnmBeFoCqfdQn3Agyp1FFme0rVFS7imaVT7q6itrSWf15manGZycpJoNEJ9fR2tra1Yrdbz3v9iUNYMz/F4/D0TExXLFD3++ON881vfIhhJ4W5bR+OH/zcSig9lNjznRLGnChcrUgikaieVV0lkcnjddqrcVlR0yryKh6qoVFUVhJfJ5piamqJ/oJ+BwQECgQBtrWcfFiSlJB6PMzY2hmEYZV94PxvKIrpivpJoNMrq1atPuY2UkuDMDE888QTf+MY3mZ6J42pYRfvNnyMT2IBQrAgpkJUQnSWDRCnUQc9KIvEULqetIDxZEN7cO3m+r1AxWzNQVVWqqvwEagPousHUxATd3V0MDw9TXV191vF4UkoGBgbYtWtXKTHRQlM2h2cpJYFA4NQmWAnTU1Pc/0//xBNPPEEwkmTl+tvwrb0D/9V3khJuQBRuU6WDW0LMhgWhEsvohGNJhDRwWsBpU06YPsWJrc/rELOoikK1309zc3PBEDc5SU9vD339fSQSCbwez1lZI7PZLIZhUFdXR3V19YIPM4UsrhS+b0gikTBP/su/8X/9319CtThYvuEDtN30GULOlSQttYW8JvNaRSXrwpKgqKhC4I9FT1KnRbm+zcINy1zUe1TmZq4VF/BOLQ6AZgPRGR4e4qUXX+DXv/4l42MjeDxuPvGJT3LfX/0VGzdufM99meZskNKc7GULyftuSInFYvzgmR/w8MPfJJ7MsHzdrbRs+RRR32qS1gAG5z4JrnAxMccrRbGQMVQisTRuzaA1YEeIollMXHCPN9eW7Xa7CdTVzhrmppmZnqavrw+H3c66deve08VrbobnJWu9zOfzDAwMEI1G5yUmisfj/PCHz7Ft24MMDI3TuvYGmrd8llTNVSS0AIYsFvWosNQpCKKQ4i+tq+RTSfyWDFUeB8rch7sMQ81iXJ/H46Wuvh4kBGdmCAWDhMMh3G43HR0dpxVeJpMhGo2WnJ8XmrJleH7ttdeYnp4uuYHFYnF+/OMfs+3r2zjWNYC9up1VH/4DUtUbSVqrCj2cVGa9FipjyaVOKfuXEJiKhVQmRzI8jdsKfo9rfi28CxDeicQTAqEIvF4vDY2NCKEwMzPNwMAAfX292O122traTrn4PTIywt69e5FSLl03MCklmUyGqqoqmhobScYSPP/C8zzwwDY6O7txVDWz4gOfR6y4jaQWwESjMF5QqAjuEkQITNVCKmsSj0bw2BT8bjvq3EndKYV3ZmfNuUNMgUARhcIldXX1ICUT4+P09PTS19eLzWajo6MDj8czbx9F30ufz7d03cCKiYkaGhoIh8N846FH+NennuRI9zC+lTdSf/0nqNv8SSKyClMoyHlDyoroLkUkCrpiJ5JTmU4Y5HSwKOB1OArreCctDYk5K7TvJbzTJPor9Hj19Ri6QSgUZGRkhN7eXmZmZvB4PKXQIACn00ljYyO1tbVLd3gJhWQvqVSKl156if/n//1bxqZiuK+4jYatX8S25jbiRiEAtZJM6PJAIjCERlZ1MZ23MxzJk8vl8Ts0vA4LCLMwRJzzOMx/Mk79nBScr5k7ziykj5jt8ZoaG9E0C+FwlKHBQd5+ex9jY2O0trbS1taGEIU1P4fDsSiCgzKma+ju7uanP32Rxx5/gsGxON7Vt9Gw9fcQDVeRK8QbA4ULVpHd5UPBV1MhKyyE0zqKImmsdmFTTVQkSmlEOTeAa77PrZjrS32Kh2fuXLFQI68Bi6YRi8cIzQTp7enBMAyuvvpqqqurZyvRZpBSliU+71wpi+gSiQTPPvssjzz8Td451o1l2a20fOALWJuuRZcaiMKJVdyXLx/m3evZTNA5UyORN1E1qHHbsKkSRcrS6Od0Q8czPjgn9Xhuj5v6hgYsqlYqXDIxMY5hGLS3t5NKpXj77bcxTZNAIFC2cz5bLjiI1TAMBgcHefbZZ+nv68XiqaH51k9gb76aXN6CUARl8oGtsASRnHDlksLCeFzn1a4E0lS4vtWBX0ujoM+mgDj/+b3kRISDQBCoq+OWD2zFRIKqcPx4J9/97neRUnLjjTcSCoUWJRMYlEF0UkrS6QxDQ0OY0sBu0WgOBEjkQSgCo2KgvOyRc34K1c5UCt7oy5JMZbmmLs/KWgeKNOYEvZ6fAIuik4U+j9r6BrZ+8HaqAzX89pX/YNebb/C9732PY8eO8eEPf3hRLJdQhuGloig4HA6EUHjn8GEy6SRCKnj9tehWH4ZaqM4Js2srlRqNly+zEzOhaGR1mAzGScZC1NglAY+91COedzDsSUYZBXC7nLS2tVLtryI4M01PTw+dnZ24XC62bNlCXV1dOc7snCiLO4jP5+Pzn/8cv/97v0+Vx83Q7peY3vssjkQnWj49KzSJFGY5DldhCXE66ZhSkM1J4rEMw4PDjI6MAvODYMW7VxbO6bgF+4wkGgmh53OsW3ctV1xxxaLXPC9bYqKBgQFuve1WfFU+/uEf/pHhfT8HoeNb93moXk3a4sCU6uxFrYw3L0fEbEFJJCjZBA2WKJtXeGiwqyTiMTIpPzaX44L2f/KxQqEg4VCYnp5eUqk0H/vYx2hra6O5uRnDMJBSLnxRynLtSFVV6upq+dM//S/ce++nMPNJhvb8mtC+H2INH8WRz6BKqIwtLz9KLmIUFsFFLkaDFuaOVR42rwywrK0Zh9PJwNAgqWTqgo6jSArR60iCwRkmJycZHh5m7969hEIhXE4XV111FS0tLSQSiTKc3blTtsRExYy5VVVVrFq9ikg4zJF3DhKfGkHRU7h8AaTdhalaODGxk8Dc8I8KlxrFOy1EoQKQlovRZAlz+5VuNi2vwmUTqIqCoeuEgkGSqSQOp7OwcH0Oa0wCELJYhFkSj8eIRiIMDQ7y/L//hL17drPpuutIJBO8/vrrXHPNNWzatGlR6p6XNTGRzWYrCLAmwNVXX43D7iA8M0X/0bchH8LvUAn43OhoGEKj0NFWBHepUryzipTYzSyezAQr7UHuvNrHho4qnBaJnA39cTid2Oz2QrXXcJhkIonP5zsnQQgBipBEwiF6e7s51nmEX/7i5+zbt5dbbrmZP/zPf8jM1BQ/feGnhMJhhBClNBALKbyyVmLN5XJYrVYURaG2tpYtW7bg83np6epkuGsf1uQkjV4LHk81aWHHEBbkrDtQZdh5aVFcN1OQ2GUOX3qEdmWQD67xcd3KeuzqiQCToluXw+HA4/WRTqUZGR1BmuY5CU8AsWiErq5j7Nr5Bi+/+CKdR49w3XUb+dKXvsSH7riDAwf209vXh9vrxevxcOWVV5YqTS2U8Moiukwmw9tvv83U1BStra2lz202GytWrMDv99Pb00PP8aPkUyECXicubxVpNEzVPvtKrAjvUqJQxs7EKtN4c2O0KuNcv9LHmuWtWDVLYW530vZQWNv1eDyoisLIyAimYeA7yyFgKhGnv6+Xt3btZPtvf8Pw8BDXbdzIfffdx4c+9CFUTUVKSXNLKzU1AdasWc2NN96I3W4vS52Es6Us1kvTNInFYqc0xXq9Xu69917y+Tz3/e9/xVDvUUzTZIWeo3nZbYzlIaVWzXqZV7hUEFJilRlc2TFaxDibl/m4dmU7LpsNpCxITpzI+1ZMGiIo5EJpaWlBCEE4FCIaiVA1Jzj6XccCkok4sWiY3p4utm8vCG7dtdfyl3/x59x99914PB6yuSzr1q2nvb2D733ve0xOTqJpGpqmLejwsiyis9lsbNiw4bS/d7vd3HPPPby9fz/f++6/MdLXiZ7XuUpC84oP0IcXE4Vigd1Kj7f00WQWd3acZsa5rt3NNVe24XI5Z9X1bg+Jd91xIWhubkFTNUZHRzGlPGV6R0Ghh0vEYwwPD/Haa68yMDDAtddcw1/8+Z/z8Y9/Ap/PV2iTpuFyuUquYKZpLkoxkbIMLxVFwePxvCtYcC52h4OrrrqafD7L4XcOEwlOkQpNUeVxYfjbMRUb81cUKsJbyjjyM7TLQa5vd3PtlW14ve6iibGwwVncXiFAUQTJVIpQMIiqaTgdjjnZBiSpRJxYNMLw8CA//ekLvPXmLlavWsVf/uVf8OnPfOZEti9RsLJbLBYsFgv19fU0NTXhdDqxWCxLT3RSSnK5HKZpnjZUQhECn8/L1ddei8ftIpfNcvToIaKhSRSHh9rm5WR0UaglXhHekmNuGgVVz7DcHuOOK+2s7WigyuOdNZad+xTCYrXicDiQwMzMDKlkEo+7kP4hFJxmbHSU7q7jvPDv/85bu3ayceMG/s8v/R/cfffd1NQEEIoy7zESQqAoCoqiYLVasdlsC+6hUhbRZbNZ9u/fTzAYpKmp6bTbCSHweb1s2rSZ5uZmxsZHOdZ5iGRkGm+VF1+ghYxRyJsiTqzwXGjzKiwAhU5MoOgZqmWQm9tVblrdgNNuY2460/Nxq7RYLHi9XkzTYHx8DD2fJZtOMzY6Qvfx47zw/PPs27eH5cuWcd99f8XvfuF3cLlcs73Xuw9WrNpjmuai5L0sy5yuWHPcYrFw3XXXnXF7h8PBB2+/Hc2ioWpf5z9+8wZd//GvXGEY1Ky6nWDWDmph0bxSm26pIFGMNFUyzKZGg3WtPjSl2L/JeaE354P4/9s7z+i2zjPP/+5FbyQqQRLsTY2SbNmObNkqjksylrvHJUVuKR6XJG4ps2ezn3f302y8yU7mzMzOzu5mkzOZ8bjGTRLVKFG9UBLFJpEUSRAAAbCj3nc/gIRIRZItGQJF+f7OoSVD4C3vvf+3PO9TJCmTckGS6O7qBJEmOOTnoz99yLFjR2hoqOcHP/gB99xzN1rNpV/rQCDAvn37WL58ObW1tVd+UVdIzgwpn5fg83xMRhN33L6W2FSMo4ePEhg4yalP/ycN6TTuZfcynDBm5+6q8K595FQcu4iwqiTFHYucFNtNSKQy/yjlqJqPgAKbDZPJSOuxIzTv3MGRI4epr6/j+9//Pt/61lOUlHx+uI7H42H16tUUFxcv3LyXmTzz9ssOCtRqtRlvAATtJ08Q8fcSDfRTYLVimXC5SQAAIABJREFUL64kpmgRYsZtLBMlpcrvWkJCFqBVEtgZ4QZvknVL7JQ6jNNFRDI/uSmfBfGpKYKBAEODA+zYvp2Wlt3UVFfx3HPPsmnTd/H5fLOmlHMmtHOwWq34fD4cDsfCFR1cWR1nSZIwmUwsWboUrUZDZ3sb4cE+ooO9WMwWzO5y4pIFIUnT8VFCld01g4QkJHQiiYMIy91TrF1cSLndRKaUp+BL5VE/j0QsznAoQO+Z0+xububA/n24XA6efuZpnn7macrLKs4T3MXtAfOZ3RlyaEg5evQooVDospN3SpKE2WxmyZIleDxuTAYdxw/tIdrfRaFBoa7Gx9RkEiEbSM/KtaIyv2iFgiUVwaP0sdIxzu2LHFS4rGimd1xz9ZAkBMPBIGMjEc6c7uLdd/6dw4cOUVlVziuvvMSjjz5KTXXNZQkoEAjQ1tZGKpXK7uHlk5ys6RKJBCdOnMBkMrFixYrL/n1JknC53Tz7/Pe45ZavodNq+dd/e5u+nf8br2mS2vq7OBsvZszgnd4+l5AkhZknq/qy5BetSGFJhvEkT7PEOcXtDZWUeMycy+iVgyciBBKCyPAwQ4P9BIYG+ehPf2LHjh0UFRXx5JNP8Nxzz2MwGLlchfv9fnbv3k1jYyPl5eULO8qgpKTkiutAz+QjdLndLF60mGg0woF9Lfj7zuA0aSn2uphKQVpjIi1ppsNF1OlmvtGKJJZ0GHeym8WOCW5trKK0uAhJks/FzX3JR5KZlQqUdIrxsVG6Otv54IP32d28G5fLxZNPPsG3v/3tKzaECCEwGo2UlpbOy7ouD6WyLp9UMsm+fft48YUXONZ6Amuhi5s23I/nhm/Qq5QR0RcD8pxSu7PzA6tcHTQihVkJ44p3sbhgnDtW1FFeUjw9Kk1HsuVCcEKQTicJBPwcOXyIjz/+iL0tLdjtdh7/y8d56eUXWbZs6Zc6z3y4f81wTZbM0ep0LF22jFdfe53ljcuYHAlxqOk9wsc+odo0jEZJICQFZabBhDre5QO9GMeV6KbBOsptS6soLylFkjLODCIH2wIzdhdFSeP3D3LieCvbtzVlBFdo55GHH+aFv/ohS5cs4cuOFQvekKIoCmNjY8RiMYxGYy6uC6PRSE1tLXa7nb6+Xnp7ThPs78FmNmAuqich9ChSxk6WtW2qpZNzjiDTM2tIUZgcoNEU5PbGKqrKyphbAObLvcAzghPTgutob+PkieMcPHgAgIceeoiXXn6JFSuWf+kwHEVRSKVSCCHmJUlRTuPphoeH58TTfVkMBgO1dbVUlJVjMhk53nqUvu4OrCYTruJKYsKAIk9HQ855CLl5EVSmQ21ECn0qTL0xyt3Liqgu902PcLO/9eXPMzYaZXQkyokTx/n0k485frwVs9nEc889x6ZN32XlypU5EcnAwAAHDhwglUotzAzPkIkysNvtaLU5OdwcbDYbGx98gMbGRqw2K//w9//IqW3/j8UoFN30GANxKxhM07US1PQPuUWgEWm08WEqDGHuXOqlutyKJIHIYRiWJDLxcOHhEL09p/nsk4/YtWsXWo2GF174IT/60SsXDOu5UmRZxmAwXJX39YuQMzewFStWfOl59sXQaDRUVlfx6quvI9KCX//tbzm17fcslhRcS+9nVPGSlPWz5KaOcLlAI9LokyNUGMf5xlInyyocSCQBZXpiMXuD4EJt/vmRBZLI1CuPTU3S23OazZs/o7m5GY0s84177+GxRx/FeYkA1iuhpKQku588Hyn4cma9VBTlqi9OhaLQ3tbGj370E7Zsa0JvdVF/++NYVzzIqLGElMYwPeJdPEBSHQcvzUz7aISCIRGlwjDKvY12bqiwYiBBWqRQhIJGkjNTzGk/IaTzYv+zhQUu3uIyIESKgYGzHDl0mD3Nu2hubiaVSnHvPXfzxhtvsGbNbciy5rrqR3NmSJmYmCCZTF7Vml+SJGGxWCgr8+Ef9NPe1krU341BTlPoKUfRWjPxeNmk2pmeVkaazslxHT25q0Sm5RR0iSgVuhHuWeZgRYUVg5REkgQWkxGX04nNYkUCkokkM1V55m7USecOeKHzTI9wgYCf013dHD50kK1bt5BKJrjr7mnB3b4mE5+Z48c2n9sFkENDyuHDhwmFQpSVleXiui6KTqej1Oejtq4Oi8VCV8dJAmfaMItJiu1mtLIGIRtgTgFKkc3BIqFmY7kYGiEwiUk88jDLHRNsaLCyoqIAg5RCRmC1mPGVePG43dhslsy6SCNnrIFpZdY0c3bU6NxzZKyUCvF4jEgkzPHW47Ts2UN7exsaWeKpbz3FD3/4Q9asWXNVascJIRgcHOTQoUMkk8krdub4MuTMkGKz2fK2MDWZTKxdu5aGhgaK3B5++3d/R0/LOxjjAcpW/QWTjpWENR7ispG0pJklMtWqeT4STO9zKujFJAVTPSyyj/LNZTWUumygpJAQWMwmSoqLKCywTf+ShsJCG2azCSkQZGoohCTJl1xXzwguFp8kGAjQ1dnFzu3bad61k4ICC889/yzPPfsc5eUVV+9+JSlbFDKZTF6181yKnBpS8okkSRR7vbzwwgtotVp++3e/pe1QM0JJU74qhXCvICwVE8eEQia/JlImOm9mvaFKbzpgShIYlUlssR4qNIPcUuOj1FWQrQdg/jPBnUOn0+J02InF4kRGxgD5gvYTSWTc9hKJOOHhYU53dbNz+zb27G5mfHyUBx74C57etOmqz5SEEHi9XhwOx8IufzxD3i1BkoTZYmHxosXIksTWrZsZDg6gSY7hKjAhm6wkZQOKpD+XJ0AiM+2UVNHNqMMgxrFP9VAjD3FHYzFLairQyDJCUbCYjfhKvBQW2rjYo9XpdBgM+swIkkicO/TsCqtCAaEwPjpKZ0cHe5p3sXPXTkZGRrjtttt4+eWXuOmmVRdNsZBLNBrNvG4Z5CwxUSqVIplM5v1GJEnCYrVQUVGBf9DPiePHCAf9SMlRPIVmNOZCYnIBmR547gL/qy46CYFBTFA40UO15OeOZaUsqatAr9MiRBqryUhpiRe7veCigsscZ1p4RgPJVIqpWHxO5ysDCMFwKMiptjZa9uxm2/YmwuFhVq/+Gm+++Tp33fX16Xfn6opuPt2/ZshpYqJAIIDP58vFdV02FouF2toaotGMR0M0EkSKj2EvtDNlKUdIBpDkTDnc6QImf76xcP3LcOYuBaATcexTZylnkDWLili2uBK9ToskFMxGA6UlXhz2wksKLntcCXRaHVqtjlgsTiKRnLYaZ0QXDA4xOHCWzo52PvzwfYaG/Nx88828/vrrfPOb38BoNJGvZ+D3+zl+/Hg2nm5BJiaSJAmdTodGo5mXzUbI9LSNy5fzi7/+D1TXVPPOO+/QcfIwU4oO880uTFW3MimZEYo87TJ4vg3zq7WbJ0kCc2qExZYxVtdXUlvmRqfTZARnMlJSUoT9ElPKCx8TjAY9ZpOBifEJkGRSqSTR4WHa2o7T0X6Kw4cPkkqmePzxx9m0aRPr16+fJbj8kEgkiEajFBQUzMu7mhPR6fV6Vq5cCczf3sfMdSxfvpzy8nKqq2v41a/e4njbIRxpM6UagblyNSOYufRtn9tmuB7JJPQVaJNjlBkmuLOxlOoyJzJpUBRMJgPFxR7shZeeUl7w2EIQj8WYmpxCliCVSjA0OEhXZzsnjh9j69atTE5O8tijj/LSyy/S2Ng4L510UVERFoslZ875l0vORrr5WpReCLvdzmOP/SWSJPPWW/+dYyf3IEScMgT2ytsZFSCJzMQnM9W6/qeV51DQJMfxShFWV1mo9hWiEWkQApPRQLHXg2N6DXe5rTI5NUVweJipqUkUBMGgn472k5w8eYKdO3bQ29vLxo0b+asXX6CxsRGYn07aaDTOm+AgR6KD+fFhuxSFhYU88sgjxKZi/PTNnzLSeQAllaZ0TQpH/TpG0gYE094OuUpXdU2TcQvQJCfwyhHurDZxQ0UBEpl8/iaDnuKSIhz2QuQreI5TUzGGAiFGRkdRhGBoaIi2k220t59i547tdHV1sWLFCjZt+g7Lly+/Cve3cMiJ6GKxGK2treh0uuw0c/6RsBc6ePDBh2g7eZJ//l//zEj3fpLpBDUS2Ou+TjStQRHTYUHZ2eT1GYMuIdCmJvHKUdZWGlhdY6fAmDHjG/V6vN6M4DTyFQguFmcoGCI6MkJaEYyOjeEfHOTMmW527dxJd3c3y5Yt5ZVXXuKee+6+7GlrrhkaGqK3t5eioiIqKyvzfv6cRPAlk0k6Ozvp7u7OxeFywsyDLS0t4bXXX+N733sWu8XAZF8rp3f8X8ZPNWFMRdGgnMtAfJ0KDkBOTeEmwm1lOlbXOSg0gzQjuOIiHM5C5MsVnIB0WmF0dJxwJEoynWZ8bJzhYIizfX3s3L6DjvYOFi9ezIsvvsgjjzyK3Z7/7FvnEwwGaWlp4fTp0/Ny/pwlJjKZTNlEL9cKkgSSLFFYWMjSpUtxOBwoiTgdrQeYCJ3BbkhRUeplMqmQlPVXJZmtRD4M4XM7C2nW/+uVJJb4EFXaAPcstnFjhRWHVQZSWIwGykq9OByFaDVy9nq/6CljsTih4Qjh6AiJRJwhf4DT3d30nDnN++++Q1dXOxs2rOPVV3/Cxo0b8XjcXCtbMxaLBZ/Pd9kJknPBNZmY6GoxOTHBzu3b+Zv/9jd8unkLTm8ZK9c9jG3ZvXSl3MTkAiRJl3V/+tI5P5hrC716DS1gOiWhhEASAkUCnUhRGA9SpRti/RIXS6u86LQyiDR6jUxJcRFer+eKzhiLxfEHQoTCEVKpNMGAn67OLvr7+/js009oO3mCu+76Oj//+c9Ys+Z2NJ9TX+CrRM5aIp1OA1wVz/BcYbZYWLthAxqdFkXAZ59t5mjT29wgQfWSOzmdFsRlV3bEU8TCtbHolSS2ZJCSVC/Ly80srS5GIwmESGPUa/G4nDgcV9bLJxJJQuEo4Ug0I7hggO7ubvr7z7J1yxaOHT3KmjW38frrr6uCuwA5WdPF43EOHz7MkSNHcnG4q4rJZGLNmtv5/vd/gNvtJjx0lsNb/42pk5up1kWQSWYyW8EVmc1nk98V4vTmhxDolBTmRAh3qpflxRKNNcVoNRKyBAZdRnButwu9XnfZZ0kkkoSGI4TCEdKKQjIRZ3xsFP/AAJs/+5SDBw5QUVHOU089xbp16685wQkhiEQinDx5Er/fPy/XkDPRtba20tbWlovDXXVMZjNr163lxZdexF3kIRwY4NCWtwkc/ABrMpTZKJZzE3eXT+FJAnQiiTkVxpPqY6k7zU3LqvA4nUhKGr1WpsjtxO12otddvhgSiSTB4QiB0DCJRIJkIkEkPExH+yk++fgjDh08QGVlOc8++yz333//NbV3O4MkSfj9fpqbm+nq6pqXa8hZlIFOp6O0tBSP58rWCPnGYrHQ0NCAVqejs6MD/2A/YyNhSsuq0FqdJGUDYk4s3jWOlBGcLRHCk+pjuTvNrcuqKC5ygRAY9Fo8bieeKxzhhBBER8cYHAqQSCRJJBIMD4c4093N5k8/ZdeunZSXl/H000/z/PPPz4sp/ouSTqfRarWUlJTMi+EvZ4aUa21z/IsghCAQCPDee+/x8Ud/4uPPtlJYsQx7w924b36IobgBRaPnWrC2XRqBJKUxxsM0cJbVVUbqS20Ue90IFMwGA16vhwKbBcMVxJAlkykiIyOEhiOMj08yHB4mEh5mcKCfd95+m+7uTnw+H8899xz33HPPvBRavFwUJZPNbD7yXuZs/F9ogoPMNXu9XjZt2sTKlSsxGk3839//C5FgGKNRT9nK++ibFAiNgWtZeJIk0KQTlOgTrKks5MZ6L2adBoRAo5EpLLThdjquaFM6mUgyHIkSCAaJJZJEolEGBwcI+P28/+67tLTsZtWqG/nFL37BN7/5TUwmU+5v8CowH2LLnjsXB5kJ7Tl69GguDpd3Zhy2n//e91iyqI6JYBentvwzY60fUGyaRBbJaZO8mLe9c3GRHwmBJp3CFItQZYmzor4Eo0EDkkAIgdlkxOm0X36fISCVTBGJRAkEgsTiCSLhCIMD/QQG/Xzw3rvs2bMbp9PJxo33LxjBCSEYGxujp6eHcDg8L9eQM9EdP36ctra2q5b78moiSVJWeD/5yU9YtriOsaEujn30j4weeh+3NIFGSU176Of/+mb2DGf/KBIgCTRKCksyQl3BJDfX2THrtQgkFElCQaDRajBegRhS6RSR6AjB4TCJRBIlLUjGE/gH+vnoT+/T3LwLp8PJww89zCOPPDKvDsSXgxCCgYEBdu7cSWdn57xcQ848UnQ6HcXFxQvGkHIhTCYTNdXVFNps9Pacpu90ByNDZ7AY9RR6y0kJLXOzjOUR6by/SwJZJLEkotSbx7h7ZRGLfQXIkpL9mkBg0OkoLLCh0chfuL9QFMHIyDj+QIB4PAEC/END7D+wl08/+Yg9e3ZTWGjn4Uce5uVXXqaxcdm8Ttcul6mpKWKxGB6PZ17Sques5rjH48Hlci3Itd1sTCYT1dXVOJ1Oent76D3dzsRwP05nIYWuUmLCOL1hnuf7PC+rnY4UhmSYGtMI9zY6WVJWgEZKMccdTMok6NVoZCwW8xd2chsbm6B/cIjYVJx0Ok1gaIj2jlO07NnDtqYtWKwWHnzwAX784x+xYsWKBSW4mcq/paWluN3ueXHm+Eq5gV0OI9ERtm/fxjvvvsvbb78DFheVq+7Ge8O9hCQPk3IRSh4rBc3klNSQQp+MUKodY0WpjgaPjsVlTjTTmc5m+11KiEwUgVFPcZEHh8N+SR/LVEphbHycoaEgo2MTTIyPMTo6Sld3J++/9y79/b3odDJPPfUtNt63kRtuWLUgO9n5TjabE+tlMpmkp6cHSZIWhLn4i1BoL+S+jRtZsnQpZqORv/3Nb+geC2BOBihd8RcEtCkmdC4S0tVfy8zk1JJFGrMygk8X4tZSmdWL3NiMOpBEptK3gNlpzDPp9WTisQSDQwFSaQWn04Feq/mzxEzptEJ0ZIxBf4DY1BQTE2MMBYbw+wf45OMP2bN7F5WVFbz88ks88fiTuFxurmWL7qWYmJhgZGQEq9U6LzXHc+oG1trauiANKRdDo9FQU1PDs88/z/oNG5gciXJs16cED71HcbwVWzJ41V+7GadpWaQxKqMUJnqpNES4qcZDgUmPNOM5I+aOchnO2TgT8SSBYIhgaJhYIjknRUw6rTAymhnhpqammJicYHh4mFAowObPPmHXzp1oNBruvHM9jz32lzidC1dwAIODg+zYsYOOjo55eV9zMtJptVqqqqquSbefL4ssyyxatIjX3ngDWZLZ3LSVE3uaIJXGeYOJMYOLBCZAQ+YFT8/67fOtH1d4DULBmB6jIN5DpSHEzTWVFNiMKGQiCzKvzYUdzmYH/CQTSUKhYRRFodjjxqDXZgXn9weZnJxEkiCdTtHX18vmzz5hx/ZtpNNp7r77LjZt2oTHXZSX3JRXCyEEOp2OgoKCedviyHmG54U4x/88LBYL6zdsQJZkJI2WLZu30rZvF/WaAorXVeNPu0jIFoR0rmbCn5H9+PLaRxYK5vQEBbFeyvUBNjRWUl/lmx7hZg4qLnnYrLVVSCSTaSLhKOlkGqMxkyB2fGySiYlJhFAIhUIcPnyY7dua2LGjCaEofP3rX+eNN95k9erbpiv1LNxnLEkSxcXF2O12DAbDvFxDzhITzVeK6nxhsVhYt34dskaDVqvjk48+5tTBrSx1+fA1PkB/WiYhm0CRuWB5qOlcm5ezuT4juMJYL+W6IOsaK2ioKZ/VsX3eyz/3e2J6HZdMphgORzIpExUFZTosKxAM0NXVRXdXJ827dqCk06xfv57XX3+dtWvXLigr5aW4LhITpVIp/H4/kiTNW7LZfGC2WLhj7R3YbDbqG+r517ff5uTWP1A1Noa27i6EaxFpDJm8KzNckXUzI1CtMokzPUBjUZJVlVXUVXozI9xlHXKuMGdnPkunFWQEyWSSaDRC28mT7Ni5nbN9vTidmfwyjz32KGvWrLluBDeTjTyRSGTTqy/IZLPxeJyDBw9iMBiua9EBmM1mVt96K5WVVVisVv7Lf/3PnGj6A95wGM/qxxCOemKSGSW7xrtcMlNUGYUCJljqmGLd8jJKXFYkSaDkYN0vJGnaQCMyvpXhEKdOnWL7tiZ27dqB1Wrh6aef4fvf+x6VlRUzxQhYyNPK2QwMDHD8+HHKy8vnJTNZTrovjUaD1+udl939+UCWJYpLivnOt7/No488goiNM3RkM8GWf4FAOxYpjSwyRo65/luff+yMs4mCNjFKqX6ctUtLKHbbMq5fObwHSYJ0MkkoFKCzo4OW3c00N+9kfHyMW2+9leeefZaKOYK7PpgplTU5OUkqlVq41sv5KJU138iSRHVNNW+88QYajY4//vFf8R/ZQiqh4P1aCp1nEUmtFeUymjizNaCgSY7hlcOsqSugrKjgEjW9rxSBJGB0bJRTp9rYt7eFXbt2MjIS5ZZbbuHZZ56huqZ6OiphZoS7PkY5gOLiYm6//XbMZvPCTasuSdKCcXjNJQa9gRUrbuC1115DlmT+5Y9/JHRiCyaTjoZ7PQymJWKa8/OQXKhnzbzUkkijTWUEd2e9hZVV9mzCIcSlLZRfHIGMIBqJcPx4KwcPHmTnzp0EgwFuvukm3nzjDTZs2DArDOj6EhxklgjzJTjIkRtYKpVicHAQWZav+zXdbITI/KSSSdrb2/nDH37Pu++9R+/gMFU3rsdUsQpjxU1EhYOYZEHJVC65wJEkDEoMWypIpXmc2xqcLPEVYtVn8p6c8zT5susqgZJKEhnOpFjYv38v27Y1EZuKcdddX2fTpu9y5513YjQap1/I62cdNxshBOl0GlmWF24Q60w8nV6v/0qJTppODq036GhcvoyS0leprq7if/zmNxzb/m+U1rRRmwpTWnMHg6KIuGwnlY0POrelrU1PUBDvZ5Etyp3LfVSX2tFKgBDZgh9fel0lBEo6xXAwwKlTpzh+/Bg7d+5gfGyUhx9+mFdffZXGxsbzXsLrT3AA/f39tLW14fP5WLx48cK0XsqyTGFhITrd5efeuJ5wuVw88uijjI2N89d//Qv6u46TTqdZLEFx9RqGhJZxrNPfzkzztCKJJeWn3hhgw/JKakpdyJDJXTlHaDNCvZLRRyCUNOFQgFNtbRlLZVMT0UiY+++/n1deeYXly5dfl44N5yOEYHR0lJ6eHkwm07zcc85Ce5xOJ0VFRV/Jtd1sTCYT3qIiJsbGOdF6jGg4QGw0hMump8BZwohiR0ggIzJFGeP91BoC3H2Dj7qyIs75e8zyNvkzkV3GiyIESjpJKOinre0kbW0n2b69ia6uDm6//Q7+0y9/yY033viVEByci/10u934fD4sFkveryGnI51KhoqKCl597VX0Oh3/9E//xFBPO0JJ4YvJ6BoeIyYXoiGJLemnlB5uqXBQV140Kxv0bMFlkM4b9L7wZFNSiISDnDp1gu7uLnZs30JnZxeLFy3mmWeeYdWqVV/+hhcYhYWF81KBdYbrz0P5GkCj1VLf0MCPX3sVjU7HP/z9P+Dv6QL9VhrKVzKslGOQYpSk+1hVYWFZtQ8NF96HmxGblP2vyHikfJH3RShMjI8zHA4TCgZp2rqFrq5OFi9azI9//BM23ndfbm54gTJfGexyMr2MxWLs37+fwcHBr5Qh5VJIsozdbmfxkiV4XB7SqRTdHW2kRkMYxDgrq2wsscMtS2sptNk4P1WXJMimd58b8S3N+eOC554OXh0eDnHmTDcDZ3v58IMP6OzoZMP6Dbz55k+57777cLlcOb/vhcDAwAD79u0jHo/jdrsXpiElnU4TjUa/8oaU85FlmcqqKv7qpRdZ1tjIr956i48/24wn2MkKxwRlt69hcnwEe6F1Oh7u3MO/0N/O/+SCmw8iI7hQcIiOjlMMDg7yyUd/4lTbSdavX8fPf/5z1q5dd03XnLjaRKNRurq65i3KIGeGlMLCQoqLi+dlYXqtk9lKKcVoMrK7eQfBwbNEQ0OYjHrsDjvJZJICW8F0NPfFM5nMCU+9wJek6f3zUDBAd2cHweAQf/rgA9pPnWLduvX87Gc/Y+3atddl3OPloNPp8Hg8lJWVYbVaP/8XckxORCfLMlarVRXcBZDIzBx1eh0ulxNZljlx4gSDgwMM+gcwGA34fGXYbLZMsY2LJD3Klu66iIPIzMfBUIiOjg6CQT+ffPwhhw4eYtWqVfzyl/+R9evXo9WqsxGTyYTb7Z639zVntQxUPh+r1UptbS0ajYbOzk4GBgbw+wfR63TYbDasVtusKfpFlHUBMsYWQTg8TMd0XYbPPv2U/fv3UVbm4/nnn+eJJ55Qp//XCDkRXTKZ5PTp00QiEZxOZy6u67pEkiQKCgqoq6vDYDBM13TrJxIOY7fbsVotmI1mdPqLCE/6c91lppSCVDJBJBqloyNTQefggf34Skt5+ulNfOc73/nKGk0uxPj4OKFQCCHEvKzrciK6eDzOkSNHGB0dpaamJhfXdd0iSRI2m42GhgYqKyuRZZnW1mP4h/zEY1N4vUWEw2GcLud0qPe5zYI5f0ozU0pBMBhgcKCfifFRfv+7/8PxY0e4YeVKfvrmGzz66KNUV1d/ZTa/vwhnz55l//792dQN+SYnK2qdTkdDQ4P6YL8gM4VLHn/8cerr65EkiT/84Q9EIxEkCZavWIkQCvX1i8gkPDpfeGLaD1oQDofpH+gjHAry4QcfcPTIIW668UZ+9tOfcd/9GzEYjNerC+UVU1BQQG1t7byN/jm1Xs7nLv9CZCYzts1m49ChQ5w5cwa/34/RYMBkNpNOKZnp+pzsW+ecn6PRKH19vUSGQ3z4wXvsbm5mxYoVvPnmm9y3cWMm25X6OP4Ms9mM1+uloKBg4W6OQ6b3VgV3+Wg0Gux2Ozabjb6+Prq7uxkaGsJoNOLxFGGEtZUeAAAHqUlEQVS12TAajNNJhc61byQSoa+vj2gkzHvvvcPuXc0sWrSIn/70TR544AEsVosquM9hQbuBzSQmAigrK8vFIb9SuN1uHn/8cfR6Pb/+9a85fPgwWzZvRqfVYSsoQFEU7A4XkiwhSRqi0Qj+wUHGRiJ8+N67tDQ3Y7VauPvuu3jwwQfnZe9poSBEJhFTMplEr9fPi0U3JyPd1NQUzc3NhEIh6urq1BHvMpkpalFVVYXdbufs2bN0dnYSDIWwWiwUFhaikWRMJhOKEIyPj9PZ0c777/07zbt2YTGbuP/+jbz00kvXdNnhawFJkujp6WH37t2kUim8Xm/e39ec7tO5XK6vTHKiq4HJZKKiooLa2loMBgPHW1vp6+0lEY+j0+kY8vtJpxIMDvTzu9/9jr1791BbW8vLL73Epu9u4sZVN873LSwIkskkqVQKh8OBw+HIu+jUqj3XGDN5GTs7O3nrrbf47W9/i8PhZM2aNdlkOm+//e9sa9pOXX0dP/nxj3jqqSdwOl3qGu4yuC5qjs9XmMT1hiRJaLVaGhoaeOaZZ2hvb2fbtm3sbt5FLDYFQEvLHmpqq/nRK6/w+BOP43A6VcFdJrIsz1uxm5wlJhoYGECWZdWQkkPGx8dpamriV7/6FVs2b0bWaNBoNPh8Pl5++WW++53v4vZkpvMLscObzzpxMyPdfFjdc2ZIaWpqYvfu3Xzta19DlmVSqRRnzpxh37592QopiqJk6z2bzWZsNhvpdJrh4WG2bduWNZ9LksTo6ChbtmxhZGSE0tJSICPu2UllIBNW1N/fz5EjR7JGBCEEw8PDNDU1kU6ncbvdCCGIRCI0NTUxNjZGcXExkiQRiUTYvn07w8PD+Hw+JEkiGo2ye/duhoaGsp3IxMQER48epbOzk+LiYrRaLZOTk7S2ttLZ2Ynb7c7Wc/D7/Rw8eBCPx4NOp0MIQTQapbW1lXQ6nd0fGhkZ4eDBg/T39885z4kTJ+js7MTr9VJZWYnL5eLs2bP09vSg1Wq56+67efONN0nE4+zftw+DwUBBQUG2zQ8ePAiAw+HI1tjevXs3iUQiW556YmKC9vZ2hoaG8Hg82SSsnZ2dnD59Gq/XiyzLKIrC6dOnaWlpAci6+fX29tLS0kIqlcqu48+ePUtLS0v2PEII/H4/LS0tjI+PU1SUqfgTDAY5cOAA4XA4Ww11bGyM1tZWBgYGsNvtWatiZ2cnbW1tWCyWbJWdgYEBOjs70Wg0WafloaEhDhw4wMTERDZGLhKJcOTIEaLRKC6XC1mWicViNDc309TUhF6vz957PsnJhHZmStTd3Z3tQdLpNH19fTQ1NTE6OookSSiKwuDgIJs3byYQCAAZgYRCIbZu3Upvb2+2AWZE19ramj1POp3G7/dz+PBhFEVBkiTS6XT2pZrN8PAwmzdvpru7O/tZJBJh8+bNtLW1Zc89MjLC9u3bOXz4cLbnHRsbY8+ePRw6dCj7u5OTkxw+fJi9e/eSSqWynx09ejT7Qs8QCoVoaWlhcnIy+1k0GuXgwYOcPXs2+9nY2Bj79+/nwIED2c/i8ThtbW3s3buXqakprFYrq1ev5qGHHuJrq1fz5JNP8oMf/ACv18vQ0BC7du7CP+gHkem9Z9q8t7c3e8zBwUG2bt1KV1dX9r7j8TidnZ2cOHFiTvueOXOGI0eOZJ+jEIIzZ86wZcsWenp6sm109uxZNm/eTEdHR/Z7fr+fHTt20N7enj1mIBBg165dc9o8Go2yd+9ejh49SjKZzLblkSNHOHLkyJy27O7uZt++fYyOjs455smTJ4lEItnPwuEwe/fupb29PfsOjY2NceDAAU6ePEl6ukhKIpHg1KlTtLe3k0qlFu7muCzLOBwOysvLqaioyA7ZM3FL1dXV2VyKOp0Ol8tFbW0tFoslm3vQ6XRSW1tLQUFB9pgFBQXU19dne+eZ33c4HNmRakbwLpdrTtS6RqPB4XBQV1eXHT3l6Wju+vr6bG8481ldXV3WfDxz7urqarxeb/Z6LBYL5eXllJaWotFosqZ+n89HWVlZNk5t5tw+nw+dTpc9ps1mo7S0dM49Wq1WKisrsz6As2ti+3w+9Ho9er2ekpISbr75Zr7xjW9w0003IWvk6ft2U1FVidVqndPmNTU12RFVo9Hgdrupra3NWutkWcZsNlNUVJRtC0mSMBgMeDyebFvMtK/X680+n4sdU6PR4HK5qKmpwel0Zj9zOp1UV1dnzzPjwVRZWUlRUREajSbbvj6fD6/XO6cti4qK8Pl8WefkmfYtKirKjn5arRa73U5lZWV2NJ5p87KysuxIN+P7umTJEmpra+el2pRqvVRZMFwvxrrro/6RyleC60FwoIpORSXvqKJTUckzquhUVPKMKjoVlTyjik5FJc+oolNRyTOq6FRU8owqOhWVPKOKTkUlz6iiU1HJM6roVFTyjCo6FZU8o4pORSXPqKJTUckzquhUVPKMKjoVlTyjik5FJc+oolNRyTOq6FRU8owqOhWVPKOKTkUlz6iiU1HJM6roVFTyjCo6FZU8o4pORSXPqKJTUckzquhUVPKMKjoVlTyjik5FJc+oolNRyTOq6FRU8owqOhWVPKOKTkUlz6iiU1HJM/8fn3Z1YTTaA2UAAAAASUVORK5CYII=;movable=0;resizable=0;rotatable=0;deletable=0;editable=0;connectable=0;" parent="1" vertex="1">
                    <mxGeometry x="258.9978125" y="365.003251953125" width="221" height="269" as="geometry"/>
                </mxCell>
                <mxCell id="15" value="getBoundingClientRect" style="text;whiteSpace=wrap;html=1;movable=0;resizable=0;rotatable=0;deletable=0;editable=0;connectable=0;" parent="1" vertex="1">
                    <mxGeometry x="83.99781250000001" y="295.003251953125" width="151" height="36" as="geometry"/>
                </mxCell>
                <mxCell id="16" value="变形/变换了, 以一个最小矩形来包住,&lt;br&gt;得到这个矩形的尺寸" style="text;html=1;align=center;verticalAlign=middle;resizable=0;points=[];autosize=1;strokeColor=none;fillColor=none;movable=0;rotatable=0;deletable=0;editable=0;connectable=0;" parent="1" vertex="1">
                    <mxGeometry x="263.5" y="321" width="211" height="41" as="geometry"/>
                </mxCell>
                <mxCell id="17" value="没有transform变形,&lt;br&gt;和offsetWidth尺寸一样" style="text;html=1;align=center;verticalAlign=middle;resizable=0;points=[];autosize=1;strokeColor=none;fillColor=none;movable=0;rotatable=0;deletable=0;editable=0;connectable=0;" parent="1" vertex="1">
                    <mxGeometry x="66" y="558" width="138" height="41" as="geometry"/>
                </mxCell>
                <mxCell id="18" value="包含滚动条自身的宽度" style="text;html=1;align=center;verticalAlign=middle;resizable=0;points=[];autosize=1;strokeColor=none;fillColor=none;movable=0;rotatable=0;deletable=0;editable=0;connectable=0;" vertex="1" parent="1">
                    <mxGeometry x="319" y="-66" width="138" height="26" as="geometry"/>
                </mxCell>
                <mxCell id="19" value="从里到外的排列顺序" style="text;html=1;align=center;verticalAlign=middle;resizable=0;points=[];autosize=1;strokeColor=none;fillColor=none;movable=0;rotatable=0;deletable=0;editable=0;connectable=0;" vertex="1" parent="1">
                    <mxGeometry x="254" y="-29" width="126" height="26" as="geometry"/>
                </mxCell>
                <mxCell id="20" value="滚动条能滚动的叫可滚动区域" style="text;html=1;align=center;verticalAlign=middle;resizable=0;points=[];autosize=1;strokeColor=none;fillColor=none;movable=0;rotatable=0;deletable=0;editable=0;connectable=0;" vertex="1" parent="1">
                    <mxGeometry x="667" y="267" width="174" height="26" as="geometry"/>
                </mxCell>
                <mxCell id="21" value="&lt;span style=&quot;color: rgb(0, 0, 0); font-family: Helvetica; font-size: 12px; font-style: normal; font-variant-ligatures: normal; font-variant-caps: normal; font-weight: 400; letter-spacing: normal; orphans: 2; text-align: center; text-indent: 0px; text-transform: none; widows: 2; word-spacing: 0px; -webkit-text-stroke-width: 0px; background-color: rgb(255, 255, 255); text-decoration-thickness: initial; text-decoration-style: initial; text-decoration-color: initial; float: none; display: inline !important;&quot;&gt;不包含border和滚动条自身&lt;/span&gt;" style="text;whiteSpace=wrap;html=1;movable=0;resizable=0;rotatable=0;deletable=0;editable=0;connectable=0;" vertex="1" parent="1">
                    <mxGeometry x="534" y="362" width="152" height="25" as="geometry"/>
                </mxCell>
                <mxCell id="22" value="&lt;span style=&quot;color: rgb(0, 0, 0); font-family: Helvetica; font-size: 12px; font-style: normal; font-variant-ligatures: normal; font-variant-caps: normal; font-weight: 400; letter-spacing: normal; orphans: 2; text-align: center; text-indent: 0px; text-transform: none; widows: 2; word-spacing: 0px; -webkit-text-stroke-width: 0px; background-color: rgb(255, 255, 255); text-decoration-thickness: initial; text-decoration-style: initial; text-decoration-color: initial; float: none; display: inline !important;&quot;&gt;overflow: auto; 自动判断内容不适合会自动加滚动条用来滚动&lt;/span&gt;" style="text;whiteSpace=wrap;html=1;movable=0;resizable=0;rotatable=0;deletable=0;editable=0;connectable=0;" vertex="1" parent="1">
                    <mxGeometry x="676" y="321" width="246" height="35" as="geometry"/>
                </mxCell>
            </root>
        </mxGraphModel>
    </diagram>
</mxfile>